<?xml version="1.0" encoding="UTF-8"?>
<svg id="Layer_2" xmlns="http://www.w3.org/2000/svg" xmlns:xlink="http://www.w3.org/1999/xlink" viewBox="0 0 1005.7 837.57">
  <defs>
    <style>
      .cls-1 {
        fill: #f44336;
      }

      .cls-2 {
        fill: none;
      }

      .cls-3 {
        fill: #212121;
      }

      .cls-4 {
        fill: #fbc02d;
      }

      .cls-5 {
        fill: #1976d2;
      }

      .cls-6 {
        fill: #f5f5f5;
      }

      .cls-7 {
        clip-path: url(#clippath);
      }

      .cls-8 {
        fill: #7cb342;
      }
    </style>
    <clipPath id="clippath">
      <rect class="cls-2" x="65.7" width="940" height="720.32"/>
    </clipPath>
  </defs>
  <g id="Layer_1-2" data-name="Layer_1">
    <g class="cls-7">
      <path class="cls-6" d="M117.31,0h837.88c1.65,0,3.29.08,4.93.24,1.64.16,3.27.4,4.88.72s3.21.72,4.78,1.2c1.58.48,3.13,1.03,4.65,1.66s3.01,1.33,4.46,2.11c1.45.78,2.86,1.62,4.23,2.54,1.37.91,2.69,1.89,3.96,2.94,1.27,1.04,2.49,2.15,3.66,3.31s2.27,2.38,3.31,3.65c1.04,1.28,2.03,2.59,2.94,3.96.92,1.37,1.76,2.78,2.54,4.23s1.48,2.94,2.11,4.46,1.19,3.07,1.66,4.65c.48,1.57.88,3.17,1.2,4.78.32,1.61.56,3.24.72,4.88.16,1.64.24,3.28.24,4.92v619.81c0,1.65-.08,3.29-.24,4.93-.16,1.64-.4,3.26-.72,4.88-.32,1.61-.72,3.21-1.2,4.79-.47,1.57-1.03,3.12-1.66,4.64s-1.33,3.01-2.11,4.46c-.78,1.45-1.62,2.86-2.54,4.23-.91,1.37-1.9,2.69-2.94,3.96-1.05,1.27-2.15,2.49-3.31,3.66-1.17,1.16-2.39,2.27-3.66,3.31-1.27,1.05-2.59,2.03-3.96,2.94-1.37.91-2.78,1.76-4.23,2.53-1.45.78-2.94,1.48-4.46,2.11s-3.07,1.18-4.65,1.66c-1.57.48-3.17.88-4.78,1.2-1.61.32-3.24.56-4.88.72-1.64.16-3.28.24-4.93.24H117.31c-1.65,0-3.29-.08-4.93-.24-1.64-.16-3.27-.4-4.88-.72-1.61-.32-3.21-.72-4.79-1.2-1.58-.48-3.13-1.03-4.65-1.66s-3.01-1.33-4.46-2.11c-1.45-.78-2.86-1.62-4.23-2.53-1.37-.92-2.69-1.9-3.96-2.94-1.27-1.04-2.49-2.15-3.66-3.31-1.16-1.17-2.27-2.39-3.31-3.66-1.04-1.27-2.02-2.59-2.94-3.96-.92-1.36-1.76-2.78-2.54-4.23-.78-1.45-1.48-2.94-2.11-4.46s-1.18-3.07-1.66-4.64c-.48-1.58-.88-3.17-1.2-4.79s-.56-3.24-.72-4.88c-.16-1.64-.24-3.28-.24-4.93V50.25c0-1.65.08-3.29.24-4.92.16-1.64.4-3.27.72-4.88s.72-3.21,1.2-4.79c.48-1.57,1.03-3.12,1.66-4.64s1.33-3.01,2.11-4.46,1.62-2.86,2.54-4.23,1.9-2.69,2.94-3.96c1.05-1.27,2.15-2.49,3.31-3.65s2.39-2.27,3.66-3.31c1.28-1.05,2.59-2.03,3.96-2.94,1.37-.92,2.78-1.76,4.23-2.54,1.45-.78,2.94-1.48,4.46-2.11s3.07-1.18,4.65-1.66c1.57-.48,3.17-.88,4.79-1.2s3.24-.56,4.88-.72C114.01.08,115.66,0,117.31,0Z"/>
    </g>
    <path class="cls-1" d="M620.03,402.03h-33.51c-1.1,0-2.19.06-3.29.16-1.09.11-2.18.27-3.26.48s-2.14.48-3.19.8c-1.05.32-2.08.69-3.1,1.11s-2.01.89-2.97,1.41-1.91,1.08-2.82,1.69c-.91.61-1.79,1.27-2.64,1.96-.85.7-1.66,1.43-2.44,2.21s-1.51,1.59-2.21,2.44c-.69.85-1.35,1.73-1.96,2.64s-1.17,1.85-1.69,2.82c-.52.96-.98,1.96-1.41,2.97-.42,1.02-.79,2.05-1.1,3.1-.32,1.05-.59,2.11-.8,3.19s-.38,2.16-.48,3.25c-.11,1.09-.16,2.19-.16,3.29v217.77h100.54v-217.77c0-1.1-.05-2.19-.16-3.29-.1-1.09-.27-2.17-.48-3.25s-.48-2.14-.8-3.19c-.32-1.05-.69-2.08-1.11-3.1-.42-1.01-.89-2.01-1.4-2.97-.52-.97-1.08-1.91-1.69-2.82s-1.27-1.79-1.96-2.64c-.7-.85-1.43-1.66-2.21-2.44s-1.59-1.51-2.44-2.21c-.85-.69-1.73-1.35-2.65-1.96-.91-.61-1.85-1.17-2.82-1.69s-1.96-.98-2.97-1.41-2.05-.79-3.1-1.11c-1.05-.32-2.11-.58-3.19-.8s-2.16-.38-3.26-.48c-1.09-.1-2.19-.16-3.29-.16Z"/>
    <path class="cls-4" d="M737.34,351.78h-33.52c-1.1,0-2.19.06-3.29.16-1.09.11-2.18.27-3.26.48-1.07.21-2.14.48-3.19.8-1.05.32-2.08.69-3.1,1.11-1.02.42-2.01.89-2.97,1.41s-1.91,1.08-2.82,1.69c-.92.61-1.8,1.26-2.65,1.96-.84.69-1.66,1.43-2.43,2.21s-1.52,1.58-2.21,2.43c-.69.85-1.35,1.73-1.96,2.64s-1.17,1.85-1.69,2.82c-.52.97-.99,1.96-1.41,2.97-.42,1.02-.79,2.05-1.11,3.1-.32,1.05-.58,2.11-.8,3.19-.21,1.08-.38,2.16-.48,3.26-.11,1.09-.16,2.18-.16,3.28v268.03h100.55v-268.03c0-1.1-.06-2.19-.16-3.28-.11-1.09-.27-2.18-.48-3.26s-.48-2.14-.8-3.19c-.32-1.05-.69-2.08-1.1-3.1-.42-1.01-.89-2-1.41-2.97-.52-.97-1.08-1.91-1.69-2.82s-1.26-1.79-1.96-2.64-1.43-1.66-2.21-2.43c-.78-.78-1.59-1.52-2.44-2.21-.85-.7-1.73-1.35-2.64-1.96-.92-.61-1.85-1.18-2.82-1.69s-1.96-.98-2.97-1.41c-1.02-.42-2.05-.79-3.09-1.11-1.05-.32-2.11-.58-3.19-.8s-2.16-.38-3.26-.48c-1.09-.1-2.19-.16-3.28-.16Z"/>
    <path class="cls-8" d="M854.64,452.29h-33.52c-1.1,0-2.19.06-3.29.16-1.09.11-2.18.27-3.26.48-1.07.21-2.14.48-3.19.8s-2.08.69-3.1,1.11c-1.01.42-2.01.89-2.97,1.41-.96.52-1.91,1.08-2.82,1.69s-1.79,1.27-2.64,1.96c-.85.7-1.66,1.43-2.44,2.21s-1.52,1.59-2.21,2.44c-.7.85-1.35,1.73-1.96,2.64-.61.91-1.17,1.85-1.69,2.82-.52.97-.99,1.96-1.41,2.97-.42,1.02-.79,2.05-1.11,3.09-.32,1.05-.58,2.11-.8,3.19-.21,1.07-.38,2.16-.48,3.25-.11,1.09-.16,2.19-.16,3.29v167.52h100.55v-167.52c0-1.1-.06-2.19-.16-3.29-.11-1.09-.27-2.18-.48-3.25-.21-1.08-.48-2.14-.8-3.19-.32-1.05-.69-2.08-1.11-3.09s-.89-2.01-1.41-2.97c-.52-.96-1.08-1.91-1.69-2.82s-1.26-1.79-1.96-2.64-1.43-1.66-2.21-2.44-1.59-1.51-2.44-2.21c-.85-.69-1.73-1.35-2.64-1.96s-1.85-1.17-2.82-1.69c-.97-.52-1.96-.99-2.97-1.41-1.01-.42-2.05-.79-3.09-1.11-1.05-.32-2.11-.58-3.19-.8s-2.16-.38-3.25-.48c-1.09-.1-2.19-.16-3.29-.16Z"/>
    <path class="cls-3" d="M599.44,140.09c-.7-.85-1.48-1.62-2.33-2.31-.85-.69-1.77-1.3-2.74-1.81-.97-.52-1.98-.93-3.04-1.25-1.06-.31-2.13-.53-3.22-.63-1.1-.1-2.19-.1-3.29.02-1.09.11-2.17.33-3.22.65s-2.06.74-3.03,1.27-1.88,1.13-2.72,1.83l-182.28,150.52-148.57-117.26c-.77-.6-1.58-1.14-2.44-1.59-.86-.46-1.76-.84-2.68-1.15s-1.88-.53-2.84-.67c-.97-.14-1.94-.2-2.92-.17-.97.03-1.94.14-2.9.34-.95.2-1.89.47-2.8.83-.91.36-1.78.8-2.6,1.31-.83.51-1.61,1.09-2.34,1.74l-150.82,134.01c-.79.74-1.5,1.55-2.13,2.43-.63.88-1.17,1.81-1.63,2.79-.45.98-.81,1.99-1.06,3.05-.25,1.05-.41,2.11-.45,3.2-.05,1.08.01,2.15.17,3.22.16,1.07.42,2.11.78,3.13.36,1.02.82,1.99,1.37,2.92.55.93,1.19,1.8,1.91,2.61s1.51,1.54,2.36,2.19c.86.66,1.78,1.22,2.75,1.7.97.48,1.97.86,3.02,1.15,1.04.28,2.1.46,3.18.54,1.08.07,2.15.05,3.23-.08,1.07-.13,2.12-.36,3.15-.69,1.03-.33,2.02-.77,2.96-1.29.95-.52,1.83-1.14,2.66-1.83l140.32-124.69,148.18,116.95c.74.59,1.54,1.11,2.38,1.57.83.45,1.7.83,2.6,1.14.9.31,1.82.54,2.76.68.94.15,1.89.22,2.84.21.95-.01,1.89-.1,2.83-.27.93-.17,1.85-.42,2.74-.75.9-.33,1.76-.73,2.58-1.2s1.6-1.02,2.33-1.62l192.71-159.14c.85-.7,1.62-1.47,2.32-2.33.69-.85,1.3-1.76,1.81-2.73.52-.97.93-1.98,1.25-3.04s.53-2.13.63-3.22.1-2.19-.01-3.29-.33-2.16-.65-3.21-.74-2.06-1.27-3.03-1.13-1.88-1.83-2.72Z"/>
    <path class="cls-3" d="M904.91,134.01h-150.82c-1.1,0-2.19-.11-3.27-.32-1.08-.21-2.13-.53-3.14-.95s-1.98-.94-2.9-1.55c-.92-.61-1.77-1.31-2.54-2.08-.78-.78-1.47-1.63-2.08-2.54-.61-.91-1.13-1.88-1.55-2.9-.42-1.02-.74-2.06-.96-3.14-.21-1.08-.32-2.17-.32-3.27s.1-2.19.32-3.27c.22-1.08.54-2.13.96-3.14.42-1.02.93-1.98,1.55-2.9.61-.92,1.31-1.76,2.08-2.54.78-.78,1.63-1.47,2.54-2.08.91-.61,1.88-1.13,2.9-1.55s2.06-.74,3.14-.95c1.08-.21,2.17-.32,3.27-.32h150.82c1.1,0,2.19.11,3.27.32s2.13.53,3.14.95c1.02.42,1.98.94,2.9,1.55.91.61,1.76,1.31,2.54,2.08s1.47,1.63,2.08,2.54c.61.91,1.13,1.88,1.55,2.9s.74,2.06.95,3.14.32,2.17.32,3.27-.11,2.19-.32,3.27-.53,2.13-.95,3.14-.94,1.98-1.55,2.9c-.61.92-1.3,1.76-2.08,2.54s-1.63,1.47-2.54,2.08c-.92.61-1.88,1.13-2.9,1.55-1.02.42-2.06.74-3.14.95s-2.17.32-3.27.32Z"/>
    <path class="cls-3" d="M720.58,117.26c0,1.1-.1,2.19-.32,3.27-.21,1.08-.53,2.13-.95,3.14s-.94,1.98-1.55,2.9c-.61.92-1.31,1.76-2.08,2.54-.78.78-1.63,1.47-2.54,2.08-.91.61-1.88,1.13-2.9,1.55s-2.06.74-3.15.95c-1.08.21-2.17.32-3.27.32s-2.19-.11-3.27-.32-2.13-.53-3.15-.95c-1.02-.42-1.98-.94-2.9-1.55-.91-.61-1.76-1.31-2.54-2.08s-1.47-1.63-2.09-2.54c-.61-.91-1.13-1.88-1.55-2.9s-.74-2.06-.95-3.14-.32-2.17-.32-3.27.11-2.19.32-3.27.53-2.13.95-3.14.94-1.98,1.55-2.9c.61-.92,1.31-1.76,2.09-2.54s1.63-1.47,2.54-2.08c.92-.61,1.88-1.13,2.9-1.55,1.02-.42,2.07-.74,3.15-.95s2.17-.32,3.27-.32,2.19.11,3.27.32c1.08.21,2.13.53,3.15.95s1.98.94,2.9,1.55c.92.61,1.76,1.31,2.54,2.08.78.78,1.47,1.63,2.08,2.54.61.91,1.13,1.88,1.55,2.9s.74,2.06.95,3.14c.22,1.08.32,2.17.32,3.27Z"/>
    <path class="cls-3" d="M904.91,201.02h-150.82c-1.1,0-2.19-.11-3.27-.32-1.08-.21-2.13-.53-3.14-.95s-1.98-.94-2.9-1.55c-.92-.61-1.77-1.31-2.54-2.08s-1.47-1.63-2.08-2.54c-.61-.92-1.13-1.88-1.55-2.9-.42-1.02-.74-2.06-.96-3.14-.21-1.08-.32-2.17-.32-3.27s.1-2.19.32-3.27c.22-1.08.54-2.13.96-3.14.42-1.02.93-1.98,1.55-2.9.61-.92,1.31-1.76,2.08-2.54.78-.78,1.63-1.47,2.54-2.08.91-.61,1.88-1.13,2.9-1.55s2.06-.74,3.14-.95c1.08-.21,2.17-.32,3.27-.32h150.82c1.1,0,2.19.11,3.27.32s2.13.53,3.14.95c1.02.42,1.98.94,2.9,1.55.91.61,1.76,1.31,2.54,2.08s1.47,1.63,2.08,2.54c.61.91,1.13,1.88,1.55,2.9s.74,2.06.95,3.14.32,2.17.32,3.27-.11,2.19-.32,3.27-.53,2.13-.95,3.14c-.42,1.02-.94,1.98-1.55,2.9-.61.91-1.3,1.76-2.08,2.54-.78.78-1.63,1.47-2.54,2.08-.92.61-1.88,1.13-2.9,1.55-1.02.42-2.06.74-3.14.95s-2.17.32-3.27.32Z"/>
    <path class="cls-3" d="M904.91,268.02h-150.82c-1.1,0-2.19-.11-3.27-.32-1.08-.21-2.13-.53-3.14-.95s-1.98-.94-2.9-1.55c-.92-.61-1.77-1.31-2.54-2.08s-1.47-1.63-2.08-2.54c-.61-.92-1.13-1.88-1.55-2.9-.42-1.02-.74-2.07-.96-3.15-.21-1.08-.32-2.17-.32-3.27s.1-2.19.32-3.27c.22-1.08.54-2.13.96-3.14.42-1.02.93-1.98,1.55-2.9.61-.92,1.31-1.76,2.08-2.54.78-.78,1.63-1.47,2.54-2.08.91-.61,1.88-1.13,2.9-1.55,1.02-.42,2.06-.73,3.14-.95,1.08-.21,2.17-.32,3.27-.32h150.82c1.1,0,2.19.1,3.27.32,1.08.22,2.13.54,3.14.95,1.02.42,1.98.94,2.9,1.55.91.61,1.76,1.3,2.54,2.08.78.78,1.47,1.62,2.08,2.54.61.92,1.13,1.88,1.55,2.9s.74,2.06.95,3.14.32,2.17.32,3.27-.11,2.19-.32,3.27-.53,2.13-.95,3.15c-.42,1.02-.94,1.98-1.55,2.9-.61.91-1.3,1.76-2.08,2.54-.78.78-1.63,1.47-2.54,2.08-.92.61-1.88,1.13-2.9,1.55-1.02.42-2.06.74-3.14.95s-2.17.32-3.27.32Z"/>
    <path class="cls-3" d="M720.58,184.27c0,1.1-.1,2.19-.32,3.27-.21,1.08-.53,2.13-.95,3.14-.42,1.02-.94,1.98-1.55,2.9-.61.91-1.31,1.76-2.08,2.54-.78.78-1.63,1.47-2.54,2.08-.91.61-1.88,1.13-2.9,1.55s-2.06.74-3.15.95c-1.08.21-2.17.32-3.27.32s-2.19-.11-3.27-.32-2.13-.53-3.15-.95c-1.02-.42-1.98-.94-2.9-1.55-.91-.61-1.76-1.31-2.54-2.08-.78-.78-1.47-1.63-2.09-2.54-.61-.92-1.13-1.88-1.55-2.9-.42-1.02-.74-2.06-.95-3.14s-.32-2.17-.32-3.27.11-2.19.32-3.27.53-2.13.95-3.14.94-1.98,1.55-2.9c.61-.92,1.31-1.76,2.09-2.54s1.63-1.47,2.54-2.08c.92-.61,1.88-1.13,2.9-1.55,1.02-.42,2.07-.74,3.15-.95s2.17-.32,3.27-.32,2.19.11,3.27.32c1.08.21,2.13.53,3.15.95s1.98.94,2.9,1.55c.92.61,1.76,1.31,2.54,2.08.78.78,1.47,1.63,2.08,2.54.61.91,1.13,1.88,1.55,2.9s.74,2.06.95,3.14c.22,1.08.32,2.17.32,3.27Z"/>
    <path class="cls-3" d="M720.58,251.27c0,1.1-.1,2.19-.32,3.27-.21,1.08-.53,2.13-.95,3.15-.42,1.02-.94,1.98-1.55,2.9-.61.91-1.31,1.76-2.08,2.54-.78.78-1.63,1.47-2.54,2.08-.91.61-1.88,1.13-2.9,1.55s-2.06.74-3.15.95c-1.08.21-2.17.32-3.27.32s-2.19-.11-3.27-.32-2.13-.53-3.15-.95c-1.02-.42-1.98-.94-2.9-1.55-.91-.61-1.76-1.31-2.54-2.08-.78-.78-1.47-1.63-2.09-2.54-.61-.92-1.13-1.88-1.55-2.9-.42-1.02-.74-2.07-.95-3.15s-.32-2.17-.32-3.27.11-2.19.32-3.27.53-2.13.95-3.14.94-1.98,1.55-2.9c.61-.92,1.31-1.76,2.09-2.54.78-.78,1.63-1.47,2.54-2.08.92-.61,1.88-1.13,2.9-1.55,1.02-.42,2.07-.73,3.15-.95,1.08-.21,2.17-.32,3.27-.32s2.19.1,3.27.32c1.08.22,2.13.54,3.15.95,1.02.42,1.98.94,2.9,1.55.92.61,1.76,1.3,2.54,2.08s1.47,1.62,2.08,2.54,1.13,1.88,1.55,2.9.74,2.06.95,3.14c.22,1.08.32,2.17.32,3.27Z"/>
    <path class="cls-1" d="M217.85,619.8l-192.22,102.41c1.41,2.66,2.89,5.28,4.41,7.88,1.53,2.59,3.1,5.16,4.73,7.68,1.63,2.53,3.31,5.03,5.05,7.48s3.52,4.88,5.35,7.27,3.71,4.73,5.65,7.04,3.91,4.57,5.93,6.8c2.03,2.22,4.1,4.41,6.21,6.55,2.11,2.14,4.28,4.23,6.48,6.28,2.2,2.05,4.44,4.05,6.73,6.01s4.61,3.86,6.97,5.73c2.36,1.86,4.77,3.67,7.21,5.43,2.44,1.76,4.92,3.47,7.43,5.13,2.51,1.66,5.05,3.26,7.63,4.82,2.58,1.55,5.19,3.05,7.83,4.49,2.64,1.44,5.31,2.83,8,4.17,2.7,1.33,5.42,2.61,8.17,3.83,2.75,1.22,5.53,2.39,8.32,3.49,2.8,1.11,5.62,2.16,8.46,3.15,2.84.99,5.7,1.92,8.58,2.79,2.88.88,5.78,1.68,8.69,2.44,2.92.75,5.84,1.44,8.79,2.07s5.9,1.2,8.86,1.7c2.96.51,5.94.95,8.92,1.34s5.98.71,8.97.97c3,.26,6,.46,9.01.59,3.01.14,6.01.21,9.02.22,3.01.01,6.02-.04,9.03-.16,3.01-.11,6.01-.29,9.01-.53,3-.23,5.99-.54,8.98-.9,2.99-.36,5.97-.79,8.94-1.27s5.93-1.03,8.88-1.64c2.95-.61,5.89-1.28,8.8-2.01,2.92-.73,5.82-1.52,8.71-2.36,2.89-.85,5.76-1.76,8.6-2.73s5.68-1.99,8.48-3.08c2.81-1.09,5.59-2.23,8.35-3.43,2.76-1.2,5.49-2.46,8.2-3.77,2.7-1.31,5.39-2.68,8.03-4.11,2.65-1.42,5.27-2.9,7.86-4.44,2.59-1.53,5.15-3.12,7.67-4.76,2.52-1.64,5.01-3.33,7.46-5.07,2.45-1.74,4.87-3.53,7.25-5.38,2.38-1.84,4.72-3.73,7.02-5.67,2.3-1.94,4.56-3.93,6.78-5.96,2.22-2.04,4.4-4.11,6.53-6.23,2.14-2.13,4.22-4.29,6.26-6.5,2.04-2.21,4.04-4.46,5.99-6.76s3.85-4.63,5.7-6.99c1.85-2.37,3.66-4.78,5.41-7.22,1.76-2.45,3.45-4.93,5.1-7.44s3.24-5.07,4.79-7.65c1.54-2.58,3.03-5.19,4.47-7.84,1.43-2.64,2.81-5.32,4.14-8.02,1.32-2.7,2.59-5.43,3.8-8.18,1.21-2.76,2.36-5.53,3.46-8.33,1.1-2.8,2.14-5.63,3.11-8.47s1.9-5.71,2.76-8.59c.86-2.88,1.66-5.78,2.4-8.7.74-2.91,1.42-5.84,2.04-8.79.61-2.94,1.17-5.9,1.67-8.87.49-2.96.93-5.94,1.3-8.93s.68-5.97.93-8.97.44-6,.56-9.01.18-6.01.18-9.02h-217.85Z"/>
    <path class="cls-4" d="M217.85,402.03c-4.68,0-9.35.15-14.02.45-4.67.3-9.32.75-13.96,1.35-4.64.6-9.26,1.34-13.84,2.24-4.59.9-9.15,1.94-13.67,3.13-4.53,1.19-9.01,2.52-13.44,4s-8.82,3.1-13.16,4.86c-4.33,1.77-8.6,3.66-12.81,5.7s-8.35,4.21-12.42,6.51-8.06,4.73-11.98,7.3c-3.91,2.56-7.74,5.24-11.48,8.05s-7.39,5.73-10.94,8.77c-3.55,3.04-7,6.2-10.35,9.46-3.35,3.27-6.59,6.64-9.72,10.1-3.14,3.47-6.15,7.05-9.05,10.71s-5.68,7.42-8.34,11.27c-2.66,3.85-5.19,7.78-7.6,11.78-2.41,4.01-4.68,8.09-6.83,12.25s-4.15,8.38-6.03,12.66c-1.87,4.29-3.6,8.63-5.19,13.02-1.59,4.4-3.04,8.84-4.35,13.33s-2.46,9.02-3.48,13.58-1.88,9.16-2.6,13.78-1.29,9.26-1.7,13.92c-.42,4.66-.69,9.32-.81,13.99-.12,4.68-.09,9.35.1,14.02.18,4.67.52,9.33.99,13.98.48,4.65,1.12,9.28,1.9,13.89.78,4.61,1.71,9.19,2.79,13.74,1.08,4.55,2.3,9.06,3.67,13.53,1.36,4.47,2.88,8.9,4.53,13.27,1.65,4.38,3.44,8.69,5.38,12.95,1.93,4.26,3.99,8.45,6.2,12.58l192.22-102.41v-217.77Z"/>
    <path class="cls-8" d="M217.85,402.03v217.77h217.85c0-3.56-.09-7.13-.27-10.68s-.45-7.11-.8-10.66c-.35-3.55-.79-7.08-1.32-10.6-.53-3.52-1.14-7.03-1.84-10.53s-1.48-6.97-2.35-10.42c-.87-3.46-1.82-6.89-2.86-10.3-1.04-3.41-2.16-6.79-3.36-10.15s-2.49-6.68-3.85-9.96c-1.36-3.29-2.81-6.55-4.34-9.77-1.53-3.22-3.13-6.4-4.81-9.55-1.68-3.14-3.44-6.24-5.28-9.29-1.83-3.06-3.74-6.07-5.72-9.03-1.98-2.96-4.04-5.88-6.16-8.73-2.13-2.86-4.32-5.67-6.58-8.42-2.26-2.76-4.59-5.45-6.98-8.09s-4.85-5.22-7.37-7.74c-2.52-2.52-5.1-4.97-7.74-7.36-2.64-2.4-5.33-4.72-8.09-6.98-2.76-2.26-5.57-4.45-8.43-6.57-2.86-2.13-5.78-4.18-8.74-6.16s-5.97-3.89-9.03-5.72c-3.06-1.83-6.16-3.59-9.3-5.27-3.14-1.68-6.32-3.28-9.55-4.81-3.22-1.53-6.47-2.97-9.77-4.33-3.29-1.37-6.62-2.65-9.97-3.85s-6.73-2.32-10.15-3.36-6.84-1.99-10.3-2.85c-3.45-.87-6.93-1.65-10.43-2.35-3.49-.7-7.01-1.31-10.53-1.83-3.52-.53-7.06-.96-10.6-1.32s-7.1-.62-10.66-.8c-3.56-.18-7.12-.27-10.69-.28Z"/>
    <path class="cls-3" d="M921.67,653.31h-368.67c-1.65,0-3.29-.09-4.93-.25-1.64-.16-3.27-.41-4.88-.73-1.61-.32-3.21-.72-4.78-1.2-1.58-.48-3.13-1.04-4.65-1.67-1.52-.63-3.01-1.33-4.45-2.11-1.45-.78-2.86-1.62-4.23-2.54-1.37-.91-2.69-1.89-3.96-2.94-1.27-1.04-2.49-2.15-3.66-3.31s-2.27-2.38-3.31-3.65c-1.04-1.27-2.02-2.59-2.94-3.96-.91-1.37-1.76-2.78-2.54-4.23-.78-1.45-1.48-2.94-2.11-4.45-.63-1.52-1.19-3.07-1.67-4.65-.48-1.57-.88-3.17-1.2-4.78-.32-1.61-.56-3.24-.72-4.88-.17-1.64-.24-3.28-.25-4.92v-268.03c0-1.1.11-2.19.32-3.27s.53-2.13.95-3.15.94-1.98,1.55-2.9c.61-.91,1.31-1.76,2.09-2.54.78-.78,1.62-1.47,2.54-2.08s1.88-1.13,2.9-1.55c1.02-.42,2.07-.74,3.15-.95s2.17-.32,3.27-.32,2.19.11,3.27.32c1.08.21,2.13.53,3.15.95s1.98.94,2.9,1.55c.92.61,1.76,1.31,2.54,2.08.78.78,1.47,1.63,2.08,2.54.61.92,1.13,1.88,1.55,2.9s.74,2.07.95,3.15c.22,1.08.32,2.17.32,3.27v268.03c0,1.1.11,2.19.33,3.27.21,1.08.53,2.13.95,3.14s.94,1.98,1.55,2.9c.61.91,1.31,1.76,2.08,2.54.78.78,1.63,1.47,2.54,2.08.91.61,1.88,1.13,2.9,1.55s2.06.74,3.14.96c1.08.21,2.17.32,3.27.32h368.67c1.1,0,2.19.11,3.27.32s2.13.53,3.15.95,1.98.94,2.9,1.55,1.76,1.31,2.54,2.08c.78.78,1.47,1.63,2.08,2.54.61.92,1.13,1.88,1.55,2.9.42,1.02.74,2.07.95,3.15s.32,2.17.32,3.27-.11,2.19-.32,3.27-.53,2.13-.95,3.14-.94,1.98-1.55,2.9c-.61.92-1.31,1.76-2.08,2.54-.78.78-1.63,1.47-2.54,2.08-.92.61-1.88,1.13-2.9,1.55s-2.07.74-3.15.95-2.17.32-3.27.32Z"/>
    <path class="cls-1" d="M134.06,326.65c0,1.92-.09,3.84-.28,5.74-.19,1.91-.47,3.81-.84,5.69-.38,1.89-.84,3.74-1.4,5.58s-1.2,3.64-1.94,5.42-1.56,3.51-2.46,5.2c-.91,1.69-1.9,3.34-2.96,4.93-1.07,1.6-2.21,3.14-3.43,4.62s-2.51,2.91-3.86,4.27-2.78,2.65-4.27,3.86-3.03,2.36-4.63,3.43c-1.59,1.07-3.24,2.05-4.93,2.96-1.7.91-3.43,1.72-5.2,2.46-1.78.73-3.58,1.38-5.42,1.94s-3.7,1.03-5.58,1.4-3.78.66-5.69.84-3.83.28-5.75.28-3.84-.09-5.75-.28-3.81-.47-5.69-.84-3.74-.84-5.58-1.4-3.65-1.2-5.42-1.94c-1.78-.73-3.51-1.55-5.2-2.46-1.7-.91-3.34-1.89-4.94-2.96-1.6-1.07-3.14-2.21-4.63-3.43s-2.91-2.51-4.27-3.86c-1.35-1.36-2.65-2.78-3.86-4.27s-2.36-3.02-3.43-4.62c-1.07-1.59-2.05-3.24-2.96-4.93-.91-1.7-1.73-3.43-2.46-5.2s-1.38-3.58-1.94-5.42-1.03-3.7-1.4-5.58c-.38-1.88-.66-3.78-.84-5.69-.19-1.91-.28-3.82-.28-5.74s.09-3.83.28-5.74.47-3.81.84-5.69.84-3.74,1.4-5.58c.56-1.83,1.2-3.64,1.94-5.42.73-1.77,1.56-3.51,2.46-5.2.91-1.7,1.89-3.34,2.96-4.94s2.21-3.14,3.43-4.62,2.51-2.91,3.86-4.27c1.36-1.36,2.78-2.65,4.27-3.86s3.03-2.36,4.63-3.43c1.59-1.07,3.24-2.05,4.94-2.96,1.69-.91,3.43-1.72,5.2-2.46,1.77-.73,3.58-1.38,5.42-1.94s3.7-1.03,5.58-1.4,3.78-.66,5.69-.84,3.83-.28,5.75-.28,3.84.09,5.75.28,3.81.47,5.69.84,3.74.84,5.58,1.4,3.65,1.2,5.42,1.94c1.77.73,3.51,1.55,5.2,2.46,1.69.91,3.34,1.89,4.93,2.96,1.6,1.07,3.14,2.21,4.63,3.43s2.91,2.51,4.27,3.86,2.65,2.78,3.86,4.27,2.36,3.02,3.43,4.62,2.06,3.24,2.96,4.94c.9,1.69,1.72,3.43,2.46,5.2.73,1.78,1.38,3.58,1.94,5.42.56,1.84,1.03,3.7,1.4,5.58s.66,3.78.84,5.69.28,3.82.28,5.74Z"/>
    <path class="cls-4" d="M301.64,175.89c0,1.92-.09,3.83-.28,5.74-.19,1.91-.47,3.81-.85,5.69-.38,1.88-.84,3.74-1.4,5.58s-1.2,3.65-1.94,5.42c-.74,1.78-1.56,3.51-2.46,5.2s-1.89,3.34-2.96,4.94c-1.07,1.59-2.21,3.14-3.43,4.62s-2.51,2.91-3.87,4.26c-1.35,1.36-2.78,2.65-4.26,3.86s-3.03,2.36-4.63,3.43c-1.6,1.07-3.24,2.06-4.94,2.96-1.69.91-3.43,1.73-5.2,2.46s-3.58,1.38-5.42,1.94-3.7,1.02-5.58,1.4c-1.89.38-3.79.66-5.7.84s-3.83.29-5.74.29-3.84-.1-5.75-.29-3.81-.47-5.69-.84c-1.89-.38-3.74-.84-5.58-1.4s-3.65-1.2-5.42-1.94-3.51-1.56-5.2-2.46c-1.69-.9-3.34-1.89-4.94-2.96-1.59-1.06-3.14-2.21-4.62-3.43s-2.91-2.51-4.27-3.86c-1.36-1.35-2.65-2.78-3.86-4.26s-2.36-3.03-3.43-4.62c-1.06-1.6-2.05-3.24-2.96-4.94s-1.72-3.43-2.46-5.2c-.73-1.77-1.38-3.58-1.94-5.42-.56-1.84-1.02-3.7-1.4-5.58-.38-1.89-.66-3.78-.84-5.69s-.28-3.83-.28-5.74.09-3.84.28-5.75.47-3.81.84-5.69c.38-1.88.84-3.74,1.4-5.58.56-1.84,1.21-3.65,1.94-5.42.73-1.78,1.55-3.51,2.46-5.2s1.9-3.34,2.96-4.94c1.07-1.59,2.21-3.14,3.43-4.62s2.51-2.91,3.86-4.26c1.36-1.36,2.78-2.65,4.27-3.86s3.03-2.36,4.62-3.43c1.6-1.07,3.24-2.05,4.94-2.96s3.43-1.72,5.2-2.46c1.78-.73,3.58-1.38,5.42-1.94s3.7-1.02,5.58-1.4c1.88-.38,3.78-.66,5.69-.84s3.83-.28,5.75-.28,3.83.09,5.74.28,3.81.47,5.7.84c1.88.38,3.74.84,5.58,1.4s3.64,1.2,5.42,1.94c1.78.74,3.51,1.56,5.2,2.46s3.34,1.89,4.94,2.96,3.14,2.21,4.63,3.43,2.91,2.51,4.26,3.86c1.36,1.35,2.65,2.78,3.87,4.26s2.36,3.03,3.43,4.62c1.07,1.6,2.05,3.24,2.96,4.94s1.72,3.43,2.46,5.2c.73,1.77,1.38,3.58,1.94,5.42s1.02,3.7,1.4,5.58c.38,1.89.66,3.78.85,5.69.19,1.91.28,3.83.28,5.75Z"/>
    <path class="cls-5" d="M636.79,159.14c0,1.92-.09,3.84-.28,5.75-.19,1.91-.47,3.81-.85,5.69-.37,1.89-.84,3.74-1.4,5.58s-1.2,3.64-1.94,5.42-1.56,3.51-2.46,5.2-1.89,3.34-2.96,4.93c-1.07,1.6-2.21,3.14-3.43,4.63s-2.51,2.9-3.86,4.26c-1.36,1.36-2.78,2.65-4.27,3.86s-3.03,2.36-4.63,3.43-3.24,2.05-4.94,2.96-3.43,1.72-5.2,2.46-3.58,1.38-5.42,1.94c-1.84.56-3.7,1.02-5.58,1.4-1.89.38-3.78.66-5.69.84s-3.83.28-5.75.28-3.84-.09-5.75-.28-3.81-.47-5.69-.84-3.74-.84-5.58-1.4c-1.84-.56-3.65-1.21-5.42-1.94-1.77-.73-3.51-1.55-5.2-2.46-1.69-.91-3.34-1.89-4.94-2.96-1.59-1.07-3.14-2.21-4.62-3.43s-2.91-2.51-4.27-3.86-2.65-2.78-3.86-4.26-2.36-3.03-3.43-4.63c-1.07-1.59-2.06-3.24-2.96-4.93-.9-1.69-1.72-3.43-2.46-5.2s-1.38-3.58-1.94-5.42-1.03-3.7-1.4-5.58c-.38-1.88-.66-3.78-.84-5.69s-.28-3.83-.28-5.75.09-3.83.28-5.74.47-3.81.84-5.69c.38-1.88.84-3.74,1.4-5.58.56-1.84,1.2-3.65,1.94-5.42.73-1.77,1.56-3.51,2.46-5.2.91-1.69,1.9-3.34,2.96-4.94,1.06-1.59,2.21-3.14,3.43-4.62s2.51-2.91,3.86-4.27c1.36-1.35,2.78-2.65,4.27-3.86,1.48-1.21,3.03-2.36,4.62-3.43,1.6-1.06,3.24-2.05,4.94-2.96,1.7-.9,3.43-1.72,5.2-2.46,1.78-.73,3.58-1.38,5.42-1.94s3.7-1.03,5.58-1.4c1.89-.38,3.78-.66,5.69-.85,1.91-.19,3.83-.28,5.75-.28s3.84.09,5.75.28c1.91.19,3.81.47,5.69.85,1.88.37,3.74.84,5.58,1.4s3.64,1.2,5.42,1.94,3.51,1.56,5.2,2.46c1.69.91,3.34,1.9,4.94,2.96,1.6,1.07,3.14,2.21,4.63,3.43,1.48,1.22,2.91,2.51,4.27,3.86,1.35,1.36,2.65,2.78,3.86,4.27s2.36,3.03,3.43,4.62c1.07,1.6,2.05,3.24,2.96,4.94s1.73,3.43,2.46,5.2c.73,1.78,1.38,3.58,1.94,5.42.56,1.83,1.03,3.7,1.4,5.58.38,1.89.66,3.78.85,5.69.19,1.91.28,3.83.28,5.74Z"/>
    <path class="cls-8" d="M452.46,309.9c0,1.92-.09,3.83-.28,5.74-.19,1.91-.47,3.81-.85,5.69-.37,1.88-.84,3.74-1.4,5.58-.56,1.84-1.2,3.65-1.94,5.42-.73,1.77-1.56,3.51-2.46,5.2s-1.89,3.34-2.96,4.94c-1.07,1.59-2.21,3.14-3.43,4.62s-2.51,2.91-3.86,4.27c-1.36,1.35-2.78,2.65-4.27,3.86-1.48,1.21-3.03,2.36-4.63,3.43-1.6,1.06-3.24,2.05-4.94,2.96-1.69.9-3.43,1.72-5.2,2.46s-3.58,1.38-5.42,1.94-3.7,1.03-5.58,1.4c-1.89.38-3.78.66-5.69.85-1.91.19-3.83.28-5.75.28s-3.84-.09-5.75-.28c-1.91-.19-3.81-.47-5.69-.85-1.89-.37-3.74-.84-5.58-1.4s-3.65-1.2-5.42-1.94c-1.77-.73-3.51-1.56-5.2-2.46-1.69-.91-3.34-1.9-4.94-2.96-1.59-1.07-3.14-2.21-4.62-3.43-1.48-1.22-2.91-2.51-4.27-3.86-1.36-1.36-2.65-2.78-3.86-4.27s-2.36-3.03-3.43-4.62c-1.06-1.6-2.05-3.24-2.96-4.94-.9-1.69-1.72-3.43-2.46-5.2-.73-1.78-1.38-3.58-1.94-5.42-.56-1.84-1.03-3.7-1.4-5.58-.38-1.89-.66-3.78-.84-5.69s-.28-3.83-.28-5.74.09-3.84.28-5.75c.19-1.91.47-3.81.84-5.69.38-1.89.84-3.74,1.4-5.58s1.2-3.64,1.94-5.42,1.56-3.51,2.46-5.2c.91-1.69,1.9-3.34,2.96-4.93,1.07-1.6,2.21-3.14,3.43-4.63s2.51-2.9,3.86-4.26,2.78-2.65,4.27-3.86,3.03-2.36,4.62-3.43c1.6-1.07,3.24-2.05,4.94-2.96,1.7-.91,3.43-1.72,5.2-2.46,1.78-.73,3.58-1.38,5.42-1.94,1.84-.56,3.7-1.03,5.58-1.4s3.78-.66,5.69-.84,3.83-.28,5.75-.28,3.84.09,5.75.28,3.81.47,5.69.84c1.88.38,3.74.84,5.58,1.4,1.84.56,3.64,1.2,5.42,1.94s3.51,1.55,5.2,2.46,3.34,1.89,4.94,2.96,3.14,2.21,4.63,3.43,2.91,2.51,4.27,3.86c1.35,1.36,2.65,2.78,3.86,4.26s2.36,3.03,3.43,4.63c1.07,1.59,2.05,3.24,2.96,4.93s1.73,3.43,2.46,5.2,1.38,3.58,1.94,5.42,1.03,3.7,1.4,5.58c.38,1.88.66,3.78.85,5.69.19,1.91.28,3.83.28,5.75Z"/>
  </g>
</svg>