<?xml version="1.0" encoding="UTF-8"?>
<svg xmlns="http://www.w3.org/2000/svg" viewBox="0 0 386.26 532">
  <defs>
    <style>
      .cls-1, .cls-2, .cls-3, .cls-4 {
        fill: #708090;
      }

      .cls-1, .cls-4, .cls-5 {
        opacity: .25;
      }

      .cls-6 {
        fill: #d8ecd2;
      }

      .cls-6, .cls-7, .cls-8 {
        stroke: #231f20;
        stroke-miterlimit: 10;
      }

      .cls-9, .cls-7 {
        fill: #fff;
      }

      .cls-3 {
        opacity: .5;
      }

      .cls-8, .cls-10 {
        fill: #231f20;
      }

      .cls-10 {
        font-family: FiraSans-UltraLight, 'Fira Sans';
        font-size: 60px;
        font-weight: 100;
      }

      .cls-4, .cls-5, .cls-11 {
        mix-blend-mode: multiply;
      }

      .cls-12, .cls-5, .cls-11 {
        fill: #51b848;
      }

      .cls-13 {
        isolation: isolate;
      }

      .cls-14 {
        fill: #606161;
      }
    </style>
  </defs>
  <g class="cls-13">
    <g id="Layer_2">
      <g id="Layer_1-2" data-name="Layer_1">
        <g>
          <path class="cls-3" d="M55.03,229.07s26.41-68.11,141.79-68.11,134.84,68.11,134.84,68.11c0,0-33.36,256.47-138.31,256.47S55.03,229.07,55.03,229.07Z"/>
          <path class="cls-12" d="M66.71,237.21s24.13-62.22,129.53-62.22,123.18,62.22,123.18,62.22c0,0-30.48,234.29-126.35,234.29s-126.35-234.29-126.35-234.29Z"/>
          <rect class="cls-2" x="113.76" y="343.7" width="163.06" height="37.68" rx="12" ry="12"/>
          <rect class="cls-8" x="124.28" y="357.4" width="143.21" height="10.29"/>
          <path class="cls-7" d="M131.27,362.54s16.89,14.43,16.89,27.76v13.33h128.67s6.44-41.3-16.67-41.1-128.89,0-128.89,0Z"/>
          <rect class="cls-6" x="112.09" y="224.97" width="163.06" height="98.27" rx="12" ry="12"/>
          <text class="cls-10" transform="translate(125.61 294.21)"><tspan x="0" y="0">100%</tspan></text>
          <path class="cls-1" d="M331.65,228.46s-19.45-68.25-134.84-68.25c-1.17,0-2.32,0-3.47.04v325.28h.01c104.94,0,138.3-257.08,138.3-257.08Z"/>
          <g>
            <path class="cls-3" d="M287.65,121.13s-13.42,32.16-92.98,32.16c-65.65,0-89.52-21.91-95.86-29.56-1.35-1.61-1.9-2.6-1.9-2.6,0,0,4.07-21.44,14.19-46.3C125.01,40.64,150.36,0,192.28,0c72.36,0,95.36,121.13,95.36,121.13Z"/>
            <path class="cls-12" d="M278.25,116.75s-12.1,28.99-83.82,28.99c-59.18,0-80.7-19.75-86.41-26.65-1.22-1.45-1.72-2.34-1.72-2.34,0,0,3.67-19.33,12.79-41.74,12.54-30.82,35.4-67.45,73.19-67.45,65.23,0,85.97,109.19,85.97,109.19Z"/>
            <path class="cls-11" d="M111.1,74.83c-10.12,24.86-14.19,46.3-14.19,46.3,0,0,.55.99,1.9,2.6-5.05-.78-8.94-5.02-8.94-10.1v-46.1c0-5.63,4.77-10.23,10.61-10.23,2.92,0,5.57,1.15,7.49,3.01,1.93,1.85,3.12,4.41,3.12,7.22v7.3Z"/>
            <path class="cls-11" d="M274.35,74.89c10.12,24.86,14.19,46.3,14.19,46.3,0,0-.55.99-1.9,2.6,5.05-.78,8.94-5.02,8.94-10.1v-46.1c0-5.63-4.77-10.23-10.61-10.23-2.92,0-5.57,1.15-7.49,3.01-1.93,1.85-3.12,4.41-3.12,7.22v7.3Z"/>
            <g>
              <path class="cls-9" d="M173.9,118.44h39.44s-3.03,15.22-19.72,15.22-19.72-15.22-19.72-15.22Z"/>
              <ellipse class="cls-9" cx="169.6" cy="90.58" rx="10.71" ry="13.93"/>
              <ellipse class="cls-9" cx="217.63" cy="90.58" rx="10.71" ry="13.93"/>
              <ellipse class="cls-14" cx="171.05" cy="90.51" rx="7.92" ry="10.3"/>
              <ellipse class="cls-14" cx="216.31" cy="90.58" rx="7.92" ry="10.3"/>
              <ellipse class="cls-9" cx="168.54" cy="85.8" rx="1.86" ry="1.79"/>
              <ellipse class="cls-9" cx="219.09" cy="85.8" rx="1.86" ry="1.79"/>
            </g>
            <path class="cls-1" d="M287.65,120.55s-13.35,32-92.53,32c-.8,0-1.59,0-2.38-.02V0h.01c72,0,94.9,120.55,94.9,120.55Z"/>
          </g>
          <g>
            <ellipse class="cls-3" cx="193.06" cy="523.56" rx="72.19" ry="8.44"/>
            <path class="cls-1" d="M265.53,523.55c0,4.67-32.32,8.45-72.19,8.45v-16.89c39.87,0,72.19,3.78,72.19,8.44Z"/>
          </g>
          <g>
            <ellipse class="cls-3" cx="27.65" cy="318.66" rx="88.67" ry="24.52" transform="translate(-291.55 298.26) rotate(-81.38)"/>
            <path class="cls-12" d="M54.24,302.83s-11.27,75.7-34.38,75.7-14.37-75.7-14.37-75.7c0,0-6.46,57.04,13.19,57.33s35.56-57.33,35.56-57.33Z"/>
            <g>
              <path class="cls-4" d="M13.9,406.21c.07.02.13.03.2.04,13.39,2.03,30.19-35.58,37.53-83.99.64-4.21,1.19-8.37,1.64-12.45.11-.95.21-1.89.3-2.82,4.19-41.02-.84-73.55-12.52-76l-20.41,131.73-2.86,18.42-3.88,25.07Z"/>
              <path class="cls-5" d="M18.34,378.36c.58.11,1.17.17,1.8.17,19.66,0,30.67-55.66,33.42-71.55.41-2.36.63-3.84.67-4.14-.04.15-.17.6-.38,1.32-2.43,8.36-15.98,52.32-32.68,55.77l-2.84,18.43Z"/>
            </g>
          </g>
          <g>
            <ellipse class="cls-3" cx="358.61" cy="318.66" rx="24.52" ry="88.67" transform="translate(-43.69 57.32) rotate(-8.62)"/>
            <path class="cls-12" d="M332.02,302.83s11.27,75.7,34.38,75.7,14.37-75.7,14.37-75.7c0,0,6.46,57.04-13.19,57.33s-35.56-57.33-35.56-57.33Z"/>
            <g>
              <path class="cls-4" d="M372.36,406.21c-.07.02-.13.03-.2.04-13.39,2.03-30.19-35.58-37.53-83.99-.64-4.21-1.19-8.37-1.64-12.45-.11-.95-.21-1.89-.3-2.82-4.19-41.02.84-73.55,12.52-76l20.41,131.73,2.86,18.42,3.88,25.07Z"/>
              <path class="cls-5" d="M367.92,378.36c-.58.11-1.17.17-1.8.17-19.66,0-30.67-55.66-33.42-71.55-.41-2.36-.63-3.84-.67-4.14.04.15.17.6.38,1.32,2.43,8.36,15.98,52.32,32.68,55.77l2.84,18.43Z"/>
            </g>
          </g>
        </g>
      </g>
    </g>
  </g>
</svg>