<?xml version="1.0" encoding="UTF-8"?>
<svg xmlns="http://www.w3.org/2000/svg" viewBox="0 0 205.7 153.29">
  <defs>
    <style>
      .cls-1 {
        opacity: .25;
      }

      .cls-1, .cls-2 {
        fill: #708090;
      }

      .cls-3 {
        fill: #fff;
      }

      .cls-2 {
        opacity: .5;
      }

      .cls-4, .cls-5 {
        fill: #51b848;
      }

      .cls-6 {
        isolation: isolate;
      }

      .cls-7 {
        fill: #606161;
      }

      .cls-5 {
        mix-blend-mode: multiply;
      }
    </style>
  </defs>
  <g class="cls-6">
    <g id="Layer_2">
      <g id="Layer_1-2" data-name="Layer_1">
        <g>
          <path class="cls-2" d="M197.78,121.13s-13.42,32.16-92.98,32.16c-65.65,0-89.52-21.91-95.86-29.56-1.35-1.61-1.9-2.6-1.9-2.6,0,0,4.07-21.44,14.19-46.3C35.14,40.64,60.49,0,102.41,0c72.36,0,95.36,121.13,95.36,121.13Z"/>
          <path class="cls-4" d="M188.38,116.75s-12.1,28.99-83.82,28.99c-59.18,0-80.7-19.75-86.41-26.65-1.22-1.45-1.72-2.34-1.72-2.34,0,0,3.67-19.33,12.79-41.74C41.77,44.18,64.62,7.55,102.41,7.55c65.23,0,85.97,109.19,85.97,109.19Z"/>
          <path class="cls-5" d="M21.22,74.83c-10.12,24.86-14.19,46.3-14.19,46.3,0,0,.55.99,1.9,2.6-5.05-.78-8.94-5.02-8.94-10.1v-46.1c0-5.63,4.77-10.23,10.61-10.23,2.92,0,5.57,1.15,7.49,3.01,1.93,1.85,3.12,4.41,3.12,7.22v7.3Z"/>
          <path class="cls-5" d="M184.48,74.89c10.12,24.86,14.19,46.3,14.19,46.3,0,0-.55.99-1.9,2.6,5.05-.78,8.94-5.02,8.94-10.1v-46.1c0-5.63-4.77-10.23-10.61-10.23-2.92,0-5.57,1.15-7.49,3.01-1.93,1.85-3.12,4.41-3.12,7.22v7.3Z"/>
          <g>
            <path class="cls-3" d="M84.02,118.44h39.44s-3.03,15.22-19.72,15.22-19.72-15.22-19.72-15.22Z"/>
            <ellipse class="cls-3" cx="79.73" cy="90.58" rx="10.71" ry="13.93"/>
            <ellipse class="cls-3" cx="127.75" cy="90.58" rx="10.71" ry="13.93"/>
            <ellipse class="cls-7" cx="81.18" cy="90.51" rx="7.92" ry="10.3"/>
            <ellipse class="cls-7" cx="126.44" cy="90.58" rx="7.92" ry="10.3"/>
            <ellipse class="cls-3" cx="78.67" cy="85.8" rx="1.86" ry="1.79"/>
            <ellipse class="cls-3" cx="129.22" cy="85.8" rx="1.86" ry="1.79"/>
          </g>
          <path class="cls-1" d="M197.78,120.55s-13.35,32-92.53,32c-.8,0-1.59,0-2.38-.02V0h.01c72,0,94.9,120.55,94.9,120.55Z"/>
        </g>
      </g>
    </g>
  </g>
</svg>