<?xml version="1.0" encoding="UTF-8"?>
<svg xmlns="http://www.w3.org/2000/svg" version="1.1" viewBox="0 0 950 950">
  <defs>
    <style>
      .cls-1 {
      fill: #59ca02;
      }
    </style>
  </defs>
  <!-- Generator: Adobe Illustrator 28.7.1, SVG Export Plug-In . SVG Version: 1.2.0 Build 142)  -->
  <g>
    <g id="Layer_1">
      <g>
        <path class="cls-1"
          d="M345.1,571.7c20-48.6,40.5-96.9,58.7-146.1,8.5,33.3,16.9,67.1,26.6,100.5-28.9,14.3-56.8,30.7-85.4,45.6ZM466.4,411.4c-4.6-21.2-8.9-43.8-11.9-65.7-3.7-16.4-.7-35.6-11.4-49.6-60.4-53.3-79.5,57.6-93.8,97-13.4,43.3-30,85.6-46.3,127.8-16.7,42.9-32.3,84.9-47.2,128.7-6.9,26.6-21.2,55.7-19.5,84,1.5,14.1,13.8,21.9,26,21.9s19.3-4.9,23.2-15.4c6.2-24.1,13.3-48.4,21.9-72.1,3.6-10,7.4-20,11.2-30,8.2-4.1,16.4-8.9,24.4-11.5,35.1-15.1,68.3-35.5,104.1-48.9,12.7,35.6,27.9,70.1,47.8,102.2,22.8,30,69.9-1.9,50.8-34.2-39.2-72.9-60.3-154-79.3-234.2" />
        <path class="cls-1"
          d="M551.8,451.1c3.9,4.1,9.2,6,14.4,6s13.3-3,17.7-8.4c13.3-9.7,27.3-18.5,41.1-27.5,7.1-4.5,14.3-8.9,21.4-13.4,4.3,24.2,8.7,48.4,12.1,72.5,2,12.8,11.7,18.6,21.5,18.6,12.1,0,24.3-8.9,22.2-24.6-5.3-30.6-10.9-61.2-15.7-91.9,26.3-16.8,52.3-34,78-51.7,23.1-9.4,28.8-40.8.8-47-20.6-.3-49.1,29.9-68.7,40.3-5.6,3.8-11.2,7.5-16.8,11.2-2.6-21.1-4.7-42.3-5.9-63.6-4.5-20.1-35.2-22.1-41.6-1.5-.9,30.6,2.1,61.2,6.6,91.7-12.7,8.1-25.4,16.3-38,24.6-17.8,15.9-73.2,34.4-49.1,64.7" />
        <path class="cls-1" d="M673.9,271.3c0,.1,0,.3,0,.4,0,.4.2.7.3,1,0-.5-.2-1-.3-1.4" />
      </g>
    </g>
  </g>
</svg>