<svg xmlns="http://www.w3.org/2000/svg" xmlns:xlink="http://www.w3.org/1999/xlink" width="1024" zoomAndPan="magnify" viewBox="0 0 768 767.999994" height="1024" preserveAspectRatio="xMidYMid meet" version="1.0"><path fill="#ff89aa" d="M 768 384 C 768 390.285156 767.847656 396.566406 767.539062 402.84375 C 767.230469 409.117188 766.765625 415.382812 766.152344 421.636719 C 765.535156 427.894531 764.765625 434.128906 763.84375 440.34375 C 762.921875 446.5625 761.847656 452.75 760.621094 458.914062 C 759.394531 465.078125 758.019531 471.207031 756.492188 477.304688 C 754.964844 483.402344 753.289062 489.457031 751.464844 495.46875 C 749.640625 501.484375 747.671875 507.449219 745.554688 513.367188 C 743.4375 519.28125 741.175781 525.144531 738.769531 530.949219 C 736.363281 536.757812 733.820312 542.5 731.132812 548.179688 C 728.445312 553.863281 725.621094 559.472656 722.65625 565.015625 C 719.695312 570.558594 716.597656 576.023438 713.367188 581.414062 C 710.136719 586.804688 706.777344 592.113281 703.285156 597.339844 C 699.792969 602.5625 696.175781 607.699219 692.433594 612.75 C 688.6875 617.796875 684.824219 622.75 680.835938 627.605469 C 676.847656 632.464844 672.746094 637.222656 668.523438 641.878906 C 664.304688 646.535156 659.972656 651.085938 655.527344 655.527344 C 651.085938 659.972656 646.535156 664.304688 641.878906 668.523438 C 637.222656 672.746094 632.464844 676.847656 627.605469 680.835938 C 622.75 684.824219 617.796875 688.6875 612.75 692.433594 C 607.699219 696.175781 602.5625 699.792969 597.339844 703.285156 C 592.113281 706.777344 586.804688 710.136719 581.414062 713.367188 C 576.023438 716.597656 570.558594 719.695312 565.015625 722.65625 C 559.472656 725.621094 553.863281 728.445312 548.179688 731.132812 C 542.5 733.820312 536.757812 736.363281 530.949219 738.769531 C 525.144531 741.175781 519.28125 743.4375 513.367188 745.554688 C 507.449219 747.671875 501.484375 749.640625 495.46875 751.464844 C 489.457031 753.289062 483.402344 754.964844 477.304688 756.492188 C 471.207031 758.019531 465.078125 759.394531 458.914062 760.621094 C 452.75 761.847656 446.5625 762.921875 440.34375 763.84375 C 434.128906 764.765625 427.894531 765.535156 421.636719 766.152344 C 415.382812 766.765625 409.117188 767.230469 402.84375 767.539062 C 396.566406 767.847656 390.285156 768 384 768 C 377.714844 768 371.433594 767.847656 365.15625 767.539062 C 358.882812 767.230469 352.617188 766.765625 346.363281 766.152344 C 340.105469 765.535156 333.871094 764.765625 327.65625 763.84375 C 321.4375 762.921875 315.25 761.847656 309.085938 760.621094 C 302.921875 759.394531 296.792969 758.019531 290.695312 756.492188 C 284.597656 754.964844 278.542969 753.289062 272.53125 751.464844 C 266.515625 749.640625 260.550781 747.671875 254.632812 745.554688 C 248.71875 743.4375 242.855469 741.175781 237.050781 738.769531 C 231.242188 736.363281 225.5 733.820312 219.820312 731.132812 C 214.136719 728.445312 208.527344 725.621094 202.984375 722.65625 C 197.441406 719.695312 191.976562 716.597656 186.585938 713.367188 C 181.195312 710.136719 175.886719 706.777344 170.660156 703.285156 C 165.4375 699.792969 160.300781 696.175781 155.25 692.433594 C 150.203125 688.6875 145.25 684.824219 140.394531 680.835938 C 135.535156 676.847656 130.777344 672.746094 126.121094 668.523438 C 121.464844 664.304688 116.914062 659.972656 112.472656 655.527344 C 108.027344 651.085938 103.695312 646.535156 99.476562 641.878906 C 95.253906 637.222656 91.152344 632.464844 87.164062 627.605469 C 83.175781 622.75 79.3125 617.796875 75.566406 612.75 C 71.824219 607.699219 68.207031 602.5625 64.714844 597.339844 C 61.222656 592.113281 57.863281 586.804688 54.632812 581.414062 C 51.402344 576.023438 48.304688 570.558594 45.34375 565.015625 C 42.378906 559.472656 39.554688 553.863281 36.867188 548.179688 C 34.179688 542.5 31.636719 536.757812 29.230469 530.949219 C 26.824219 525.144531 24.5625 519.28125 22.445312 513.367188 C 20.328125 507.449219 18.359375 501.484375 16.535156 495.46875 C 14.710938 489.457031 13.035156 483.402344 11.507812 477.304688 C 9.980469 471.207031 8.605469 465.078125 7.378906 458.914062 C 6.152344 452.75 5.078125 446.5625 4.15625 440.34375 C 3.234375 434.128906 2.464844 427.894531 1.847656 421.636719 C 1.234375 415.382812 0.769531 409.117188 0.460938 402.84375 C 0.152344 396.566406 0 390.285156 0 384 C 0 377.714844 0.152344 371.433594 0.460938 365.15625 C 0.769531 358.882812 1.234375 352.617188 1.847656 346.363281 C 2.464844 340.105469 3.234375 333.871094 4.15625 327.65625 C 5.078125 321.4375 6.152344 315.25 7.378906 309.085938 C 8.605469 302.921875 9.980469 296.792969 11.507812 290.695312 C 13.035156 284.597656 14.710938 278.542969 16.535156 272.53125 C 18.359375 266.515625 20.328125 260.550781 22.445312 254.632812 C 24.5625 248.71875 26.824219 242.855469 29.230469 237.050781 C 31.636719 231.242188 34.179688 225.5 36.867188 219.820312 C 39.554688 214.136719 42.378906 208.527344 45.34375 202.984375 C 48.304688 197.441406 51.402344 191.976562 54.632812 186.585938 C 57.863281 181.195312 61.222656 175.886719 64.714844 170.660156 C 68.207031 165.4375 71.824219 160.300781 75.566406 155.25 C 79.3125 150.203125 83.175781 145.25 87.164062 140.394531 C 91.152344 135.535156 95.253906 130.777344 99.476562 126.121094 C 103.695312 121.464844 108.027344 116.914062 112.472656 112.472656 C 116.914062 108.027344 121.464844 103.695312 126.121094 99.476562 C 130.777344 95.253906 135.535156 91.152344 140.394531 87.164062 C 145.25 83.175781 150.203125 79.3125 155.25 75.566406 C 160.300781 71.824219 165.4375 68.207031 170.660156 64.714844 C 175.886719 61.222656 181.195312 57.863281 186.585938 54.632812 C 191.976562 51.402344 197.441406 48.304688 202.984375 45.34375 C 208.527344 42.378906 214.136719 39.554688 219.820312 36.867188 C 225.5 34.179688 231.242188 31.636719 237.050781 29.230469 C 242.855469 26.824219 248.71875 24.5625 254.632812 22.445312 C 260.550781 20.328125 266.515625 18.359375 272.53125 16.535156 C 278.542969 14.710938 284.597656 13.035156 290.695312 11.507812 C 296.792969 9.980469 302.921875 8.605469 309.085938 7.378906 C 315.25 6.152344 321.4375 5.078125 327.65625 4.15625 C 333.871094 3.234375 340.105469 2.464844 346.363281 1.847656 C 352.617188 1.234375 358.882812 0.769531 365.15625 0.460938 C 371.433594 0.152344 377.714844 0 384 0 C 390.285156 0 396.566406 0.152344 402.84375 0.460938 C 409.117188 0.769531 415.382812 1.234375 421.636719 1.847656 C 427.894531 2.464844 434.128906 3.234375 440.34375 4.15625 C 446.5625 5.078125 452.75 6.152344 458.914062 7.378906 C 465.078125 8.605469 471.207031 9.980469 477.304688 11.507812 C 483.402344 13.035156 489.457031 14.710938 495.46875 16.535156 C 501.484375 18.359375 507.449219 20.328125 513.367188 22.445312 C 519.28125 24.5625 525.144531 26.824219 530.949219 29.230469 C 536.757812 31.636719 542.5 34.179688 548.179688 36.867188 C 553.863281 39.554688 559.472656 42.378906 565.015625 45.34375 C 570.558594 48.304688 576.023438 51.402344 581.414062 54.632812 C 586.804688 57.863281 592.113281 61.222656 597.339844 64.714844 C 602.5625 68.207031 607.699219 71.824219 612.75 75.566406 C 617.796875 79.3125 622.75 83.175781 627.605469 87.164062 C 632.464844 91.152344 637.222656 95.253906 641.878906 99.476562 C 646.535156 103.695312 651.085938 108.027344 655.527344 112.472656 C 659.972656 116.914062 664.304688 121.464844 668.523438 126.121094 C 672.746094 130.777344 676.847656 135.535156 680.835938 140.394531 C 684.824219 145.25 688.6875 150.203125 692.433594 155.25 C 696.175781 160.300781 699.792969 165.4375 703.285156 170.660156 C 706.777344 175.886719 710.136719 181.195312 713.367188 186.585938 C 716.597656 191.976562 719.695312 197.441406 722.65625 202.984375 C 725.621094 208.527344 728.445312 214.136719 731.132812 219.820312 C 733.820312 225.5 736.363281 231.242188 738.769531 237.050781 C 741.175781 242.855469 743.4375 248.71875 745.554688 254.632812 C 747.671875 260.550781 749.640625 266.515625 751.464844 272.53125 C 753.289062 278.542969 754.964844 284.597656 756.492188 290.695312 C 758.019531 296.792969 759.394531 302.921875 760.621094 309.085938 C 761.847656 315.25 762.921875 321.4375 763.84375 327.65625 C 764.765625 333.871094 765.535156 340.105469 766.152344 346.363281 C 766.765625 352.617188 767.230469 358.882812 767.539062 365.15625 C 767.847656 371.433594 768 377.714844 768 384 Z M 768 384 " fill-opacity="1" fill-rule="nonzero"/><path fill="#212121" d="M 558.855469 234.050781 C 558.855469 231.46875 558.546875 228.929688 557.929688 226.421875 C 557.308594 223.917969 556.398438 221.523438 555.195312 219.242188 C 553.992188 216.957031 552.535156 214.855469 550.820312 212.925781 C 549.105469 211 547.183594 209.304688 545.054688 207.84375 C 546.058594 206.707031 546.980469 205.5 547.8125 204.226562 C 548.644531 202.957031 549.378906 201.628906 550.019531 200.253906 C 550.660156 198.875 551.203125 197.457031 551.640625 196.003906 C 552.074219 194.546875 552.40625 193.066406 552.632812 191.5625 C 552.855469 190.0625 552.972656 188.550781 552.980469 187.027344 C 552.984375 185.507812 552.882812 183.996094 552.671875 182.492188 C 552.460938 180.984375 552.144531 179.503906 551.722656 178.042969 C 551.296875 176.585938 550.769531 175.164062 550.144531 173.777344 C 549.515625 172.394531 548.789062 171.0625 547.96875 169.785156 C 547.148438 168.503906 546.242188 167.289062 545.246094 166.140625 C 544.253906 164.992188 543.179688 163.917969 542.03125 162.925781 C 540.882812 161.929688 539.667969 161.023438 538.386719 160.203125 C 537.109375 159.382812 535.777344 158.65625 534.394531 158.03125 C 533.007812 157.402344 531.585938 156.875 530.128906 156.449219 C 528.667969 156.027344 527.1875 155.710938 525.679688 155.5 C 524.175781 155.289062 522.664062 155.1875 521.144531 155.195312 C 520.285156 155.195312 519.480469 155.378906 518.640625 155.445312 C 519.382812 152.800781 519.773438 150.101562 519.808594 147.355469 C 519.808594 146.3125 519.757812 145.273438 519.652344 144.234375 C 519.550781 143.195312 519.398438 142.167969 519.195312 141.144531 C 518.992188 140.121094 518.738281 139.109375 518.4375 138.113281 C 518.132812 137.113281 517.78125 136.132812 517.382812 135.171875 C 516.984375 134.207031 516.539062 133.265625 516.046875 132.347656 C 515.554688 131.425781 515.019531 130.535156 514.441406 129.667969 C 513.863281 128.800781 513.242188 127.964844 512.582031 127.15625 C 511.917969 126.351562 511.21875 125.582031 510.484375 124.84375 C 509.746094 124.105469 508.972656 123.40625 508.167969 122.746094 C 507.363281 122.082031 506.523438 121.460938 505.65625 120.882812 C 504.792969 120.304688 503.898438 119.769531 502.976562 119.277344 C 502.058594 118.785156 501.117188 118.339844 500.152344 117.941406 C 499.191406 117.542969 498.210938 117.191406 497.210938 116.890625 C 496.214844 116.585938 495.203125 116.332031 494.183594 116.128906 C 493.160156 115.925781 492.128906 115.773438 491.089844 115.671875 C 490.054688 115.570312 489.011719 115.519531 487.972656 115.519531 C 485.171875 115.535156 482.425781 115.914062 479.726562 116.664062 C 477.03125 117.410156 474.480469 118.496094 472.070312 119.925781 C 472.078125 119.617188 472.164062 119.328125 472.164062 119.015625 C 472.167969 117.296875 472.03125 115.589844 471.757812 113.890625 C 471.484375 112.195312 471.078125 110.53125 470.535156 108.902344 C 469.988281 107.269531 469.320312 105.691406 468.519531 104.171875 C 467.71875 102.648438 466.804688 101.203125 465.769531 99.828125 C 464.734375 98.457031 463.597656 97.175781 462.355469 95.988281 C 461.113281 94.796875 459.78125 93.71875 458.363281 92.746094 C 456.945312 91.773438 455.460938 90.921875 453.902344 90.191406 C 452.347656 89.460938 450.742188 88.859375 449.089844 88.386719 C 447.4375 87.917969 445.757812 87.582031 444.050781 87.386719 C 442.339844 87.1875 440.628906 87.128906 438.910156 87.210938 C 437.195312 87.289062 435.496094 87.507812 433.8125 87.863281 C 432.132812 88.21875 430.488281 88.710938 428.886719 89.332031 C 427.285156 89.957031 425.742188 90.703125 424.261719 91.574219 C 422.78125 92.449219 421.382812 93.433594 420.058594 94.535156 C 418.738281 95.636719 417.515625 96.835938 416.390625 98.132812 C 415.265625 99.433594 414.25 100.816406 413.347656 102.277344 C 412.746094 100.839844 412.039062 99.457031 411.230469 98.121094 C 410.421875 96.789062 409.523438 95.523438 408.53125 94.320312 C 407.535156 93.121094 406.460938 91.996094 405.300781 90.953125 C 404.144531 89.910156 402.914062 88.957031 401.617188 88.097656 C 400.316406 87.234375 398.964844 86.46875 397.554688 85.808594 C 396.140625 85.144531 394.691406 84.585938 393.199219 84.136719 C 391.707031 83.683594 390.1875 83.34375 388.648438 83.117188 C 387.105469 82.890625 385.554688 82.777344 383.996094 82.777344 C 382.4375 82.777344 380.886719 82.890625 379.34375 83.117188 C 377.800781 83.34375 376.285156 83.683594 374.792969 84.136719 C 373.300781 84.585938 371.847656 85.144531 370.4375 85.808594 C 369.027344 86.46875 367.675781 87.234375 366.375 88.097656 C 365.078125 88.957031 363.847656 89.910156 362.691406 90.953125 C 361.53125 91.996094 360.457031 93.121094 359.460938 94.320312 C 358.46875 95.523438 357.566406 96.789062 356.761719 98.121094 C 355.953125 99.457031 355.246094 100.839844 354.644531 102.277344 C 353.742188 100.816406 352.726562 99.433594 351.601562 98.136719 C 350.476562 96.835938 349.25 95.636719 347.929688 94.539062 C 346.609375 93.4375 345.210938 92.453125 343.726562 91.578125 C 342.246094 90.707031 340.707031 89.960938 339.105469 89.335938 C 337.5 88.714844 335.859375 88.226562 334.179688 87.871094 C 332.496094 87.515625 330.796875 87.296875 329.082031 87.214844 C 327.363281 87.136719 325.652344 87.195312 323.945312 87.394531 C 322.238281 87.589844 320.558594 87.925781 318.902344 88.394531 C 317.25 88.867188 315.644531 89.46875 314.089844 90.199219 C 312.535156 90.929688 311.046875 91.78125 309.632812 92.753906 C 308.214844 93.726562 306.882812 94.804688 305.640625 95.992188 C 304.398438 97.179688 303.261719 98.460938 302.226562 99.835938 C 301.195312 101.207031 300.277344 102.65625 299.476562 104.175781 C 298.679688 105.699219 298.007812 107.273438 297.464844 108.90625 C 296.921875 110.535156 296.511719 112.199219 296.238281 113.894531 C 295.964844 115.59375 295.828125 117.300781 295.832031 119.019531 C 295.832031 119.332031 295.914062 119.617188 295.925781 119.925781 C 293.515625 118.5 290.964844 117.414062 288.269531 116.664062 C 285.570312 115.917969 282.824219 115.535156 280.023438 115.519531 C 278.984375 115.519531 277.941406 115.570312 276.90625 115.675781 C 275.867188 115.777344 274.835938 115.929688 273.8125 116.132812 C 272.792969 116.335938 271.78125 116.589844 270.785156 116.890625 C 269.785156 117.195312 268.804688 117.546875 267.84375 117.945312 C 266.878906 118.34375 265.9375 118.789062 265.019531 119.28125 C 264.097656 119.773438 263.203125 120.308594 262.335938 120.886719 C 261.472656 121.464844 260.632812 122.085938 259.828125 122.746094 C 259.023438 123.410156 258.25 124.109375 257.511719 124.84375 C 256.777344 125.582031 256.078125 126.355469 255.414062 127.160156 C 254.753906 127.964844 254.132812 128.804688 253.554688 129.671875 C 252.976562 130.535156 252.441406 131.429688 251.949219 132.351562 C 251.457031 133.269531 251.011719 134.210938 250.613281 135.175781 C 250.214844 136.136719 249.863281 137.117188 249.558594 138.117188 C 249.257812 139.113281 249.003906 140.125 248.800781 141.144531 C 248.597656 142.167969 248.445312 143.199219 248.34375 144.238281 C 248.238281 145.273438 248.1875 146.316406 248.1875 147.355469 C 248.222656 150.105469 248.613281 152.800781 249.355469 155.449219 C 248.515625 155.382812 247.707031 155.195312 246.851562 155.195312 C 245.332031 155.1875 243.820312 155.292969 242.316406 155.5 C 240.808594 155.710938 239.328125 156.03125 237.867188 156.453125 C 236.410156 156.878906 234.988281 157.402344 233.601562 158.03125 C 232.21875 158.660156 230.886719 159.386719 229.605469 160.203125 C 228.328125 161.023438 227.113281 161.933594 225.964844 162.925781 C 224.816406 163.921875 223.742188 164.992188 222.75 166.144531 C 221.753906 167.292969 220.847656 168.507812 220.027344 169.785156 C 219.207031 171.066406 218.480469 172.398438 217.851562 173.78125 C 217.222656 175.164062 216.699219 176.585938 216.273438 178.046875 C 215.851562 179.507812 215.53125 180.988281 215.324219 182.496094 C 215.113281 184 215.011719 185.511719 215.015625 187.03125 C 215.023438 188.550781 215.140625 190.0625 215.363281 191.566406 C 215.589844 193.070312 215.917969 194.550781 216.355469 196.003906 C 216.792969 197.460938 217.332031 198.878906 217.976562 200.253906 C 218.617188 201.632812 219.351562 202.957031 220.183594 204.230469 C 221.015625 205.503906 221.933594 206.707031 222.941406 207.847656 C 221.765625 208.65625 220.648438 209.539062 219.589844 210.496094 C 218.535156 211.453125 217.546875 212.476562 216.625 213.566406 C 215.707031 214.65625 214.863281 215.804688 214.097656 217.007812 C 213.332031 218.214844 212.652344 219.464844 212.054688 220.757812 C 211.457031 222.054688 210.953125 223.382812 210.535156 224.746094 C 210.117188 226.113281 209.792969 227.496094 209.558594 228.90625 C 209.328125 230.3125 209.191406 231.730469 209.152344 233.15625 C 209.109375 234.582031 209.164062 236.003906 209.316406 237.421875 C 209.46875 238.839844 209.710938 240.242188 210.050781 241.628906 C 210.390625 243.011719 210.820312 244.371094 211.34375 245.695312 C 211.867188 247.023438 212.472656 248.3125 213.167969 249.554688 C 213.863281 250.800781 214.640625 251.996094 215.496094 253.136719 C 216.351562 254.277344 217.28125 255.355469 218.28125 256.375 C 219.28125 257.390625 220.347656 258.335938 221.472656 259.207031 C 222.601562 260.082031 223.785156 260.875 225.019531 261.585938 C 226.253906 262.300781 227.53125 262.929688 228.851562 263.472656 C 227.773438 264.878906 226.820312 266.367188 225.992188 267.933594 C 225.164062 269.503906 224.472656 271.128906 223.921875 272.8125 C 223.367188 274.496094 222.957031 276.214844 222.6875 277.964844 C 222.421875 279.71875 222.304688 281.480469 222.335938 283.253906 C 222.367188 285.027344 222.542969 286.785156 222.867188 288.527344 C 223.195312 290.269531 223.660156 291.972656 224.273438 293.636719 C 224.882812 295.300781 225.628906 296.902344 226.511719 298.4375 C 227.390625 299.976562 228.390625 301.433594 229.515625 302.804688 C 230.640625 304.171875 231.871094 305.441406 233.210938 306.605469 C 234.546875 307.765625 235.972656 308.8125 237.484375 309.734375 C 238.996094 310.660156 240.574219 311.453125 242.222656 312.109375 C 243.867188 312.769531 245.554688 313.289062 247.289062 313.664062 C 249.019531 314.039062 250.773438 314.265625 252.542969 314.347656 C 254.3125 314.429688 256.078125 314.363281 257.839844 314.148438 C 259.597656 313.933594 261.328125 313.574219 263.027344 313.066406 C 264.726562 312.5625 266.371094 311.917969 267.960938 311.136719 C 270.222656 316.789062 272.789062 322.304688 275.660156 327.675781 L 489.304688 329.144531 C 492.796875 323.070312 495.871094 316.792969 498.527344 310.316406 C 500.859375 311.628906 503.316406 312.632812 505.902344 313.320312 C 508.488281 314.007812 511.121094 314.359375 513.796875 314.378906 C 515.269531 314.382812 516.734375 314.289062 518.195312 314.089844 C 519.652344 313.894531 521.089844 313.59375 522.507812 313.195312 C 523.925781 312.796875 525.308594 312.304688 526.660156 311.710938 C 528.007812 311.121094 529.308594 310.441406 530.5625 309.667969 C 531.816406 308.894531 533.011719 308.039062 534.144531 307.101562 C 535.277344 306.160156 536.34375 305.148438 537.335938 304.0625 C 538.328125 302.972656 539.242188 301.824219 540.074219 300.609375 C 540.910156 299.394531 541.652344 298.128906 542.308594 296.808594 C 542.964844 295.492188 543.527344 294.132812 543.996094 292.738281 C 544.460938 291.339844 544.828125 289.917969 545.097656 288.472656 C 545.367188 287.023438 545.535156 285.566406 545.601562 284.09375 C 545.667969 282.621094 545.628906 281.152344 545.492188 279.6875 C 545.351562 278.222656 545.109375 276.773438 544.769531 275.339844 C 544.429688 273.90625 543.992188 272.503906 543.453125 271.132812 C 542.917969 269.761719 542.289062 268.433594 541.566406 267.152344 C 540.84375 265.867188 540.039062 264.640625 539.144531 263.46875 C 540.59375 262.871094 541.992188 262.171875 543.339844 261.371094 C 544.683594 260.566406 545.964844 259.667969 547.179688 258.675781 C 548.390625 257.683594 549.527344 256.609375 550.582031 255.449219 C 551.636719 254.289062 552.597656 253.058594 553.472656 251.753906 C 554.34375 250.453125 555.117188 249.09375 555.789062 247.675781 C 556.457031 246.261719 557.023438 244.800781 557.480469 243.304688 C 557.933594 241.804688 558.277344 240.277344 558.511719 238.726562 C 558.742188 237.175781 558.855469 235.617188 558.855469 234.050781 Z M 558.855469 234.050781 " fill-opacity="1" fill-rule="nonzero"/><path fill="#8e4a3c" d="M 561.460938 356.570312 C 561.460938 354.792969 561.371094 353.019531 561.195312 351.25 C 561.019531 349.480469 560.757812 347.726562 560.414062 345.980469 C 560.066406 344.238281 559.636719 342.515625 559.125 340.8125 C 558.609375 339.113281 558.015625 337.4375 557.339844 335.792969 C 556.664062 334.152344 555.910156 332.542969 555.078125 330.972656 C 554.246094 329.402344 553.335938 327.875 552.355469 326.390625 C 551.375 324.910156 550.324219 323.476562 549.207031 322.097656 C 548.085938 320.714844 546.902344 319.394531 545.652344 318.128906 C 544.40625 316.863281 543.097656 315.660156 541.734375 314.523438 C 540.367188 313.382812 538.949219 312.3125 537.480469 311.3125 C 536.011719 310.3125 534.496094 309.386719 532.9375 308.53125 C 531.378906 307.679688 529.78125 306.902344 528.148438 306.203125 C 526.511719 305.503906 524.847656 304.886719 523.152344 304.351562 C 521.457031 303.816406 519.742188 303.359375 518.003906 302.992188 C 516.265625 302.621094 514.511719 302.335938 512.746094 302.136719 C 510.976562 301.9375 509.207031 301.824219 507.429688 301.796875 L 507.429688 301.714844 L 480 301.714844 L 480 411.429688 L 507.429688 411.429688 L 507.429688 411.34375 C 509.207031 411.316406 510.976562 411.203125 512.746094 411.003906 C 514.511719 410.804688 516.261719 410.519531 518.003906 410.152344 C 519.742188 409.78125 521.457031 409.328125 523.152344 408.792969 C 524.847656 408.253906 526.511719 407.636719 528.148438 406.9375 C 529.78125 406.242188 531.378906 405.464844 532.9375 404.609375 C 534.496094 403.757812 536.011719 402.832031 537.480469 401.828125 C 538.949219 400.828125 540.367188 399.757812 541.734375 398.621094 C 543.097656 397.480469 544.40625 396.28125 545.652344 395.015625 C 546.902344 393.75 548.085938 392.425781 549.207031 391.046875 C 550.324219 389.664062 551.375 388.234375 552.355469 386.75 C 553.335938 385.269531 554.242188 383.742188 555.078125 382.171875 C 555.910156 380.597656 556.664062 378.992188 557.339844 377.347656 C 558.015625 375.703125 558.609375 374.03125 559.125 372.328125 C 559.636719 370.628906 560.066406 368.902344 560.414062 367.160156 C 560.757812 365.417969 561.019531 363.660156 561.195312 361.890625 C 561.371094 360.121094 561.460938 358.347656 561.460938 356.570312 Z M 561.460938 356.570312 " fill-opacity="1" fill-rule="nonzero"/><path fill="#8e4a3c" d="M 260.570312 301.714844 C 258.773438 301.714844 256.984375 301.800781 255.195312 301.976562 C 253.40625 302.15625 251.632812 302.417969 249.871094 302.769531 C 248.105469 303.117188 246.367188 303.554688 244.648438 304.078125 C 242.929688 304.597656 241.238281 305.203125 239.578125 305.890625 C 237.917969 306.578125 236.296875 307.34375 234.710938 308.191406 C 233.128906 309.039062 231.589844 309.960938 230.09375 310.960938 C 228.601562 311.957031 227.160156 313.027344 225.769531 314.167969 C 224.382812 315.304688 223.050781 316.511719 221.78125 317.78125 C 220.511719 319.050781 219.304688 320.382812 218.167969 321.769531 C 217.027344 323.160156 215.957031 324.601562 214.960938 326.09375 C 213.960938 327.589844 213.039062 329.128906 212.191406 330.710938 C 211.34375 332.296875 210.578125 333.917969 209.890625 335.578125 C 209.203125 337.238281 208.597656 338.929688 208.078125 340.648438 C 207.554688 342.367188 207.117188 344.105469 206.769531 345.871094 C 206.417969 347.632812 206.15625 349.40625 205.976562 351.195312 C 205.800781 352.984375 205.714844 354.773438 205.714844 356.570312 C 205.714844 358.367188 205.800781 360.160156 205.976562 361.949219 C 206.15625 363.738281 206.417969 365.511719 206.769531 367.273438 C 207.117188 369.035156 207.554688 370.777344 208.078125 372.496094 C 208.597656 374.214844 209.203125 375.90625 209.890625 377.5625 C 210.578125 379.222656 211.34375 380.847656 212.191406 382.429688 C 213.039062 384.015625 213.960938 385.554688 214.960938 387.046875 C 215.957031 388.542969 217.027344 389.984375 218.167969 391.371094 C 219.304688 392.761719 220.511719 394.089844 221.78125 395.359375 C 223.050781 396.632812 224.382812 397.835938 225.769531 398.976562 C 227.160156 400.117188 228.601562 401.183594 230.09375 402.183594 C 231.589844 403.179688 233.128906 404.105469 234.710938 404.949219 C 236.296875 405.796875 237.917969 406.566406 239.578125 407.253906 C 241.238281 407.941406 242.929688 408.542969 244.648438 409.066406 C 246.367188 409.589844 248.105469 410.023438 249.871094 410.375 C 251.632812 410.726562 253.40625 410.988281 255.195312 411.164062 C 256.984375 411.339844 258.773438 411.429688 260.570312 411.429688 L 288 411.429688 L 288 301.714844 Z M 260.570312 301.714844 " fill-opacity="1" fill-rule="nonzero"/><path fill="#ba6e5a" d="M 668.707031 641.828125 C 660.8125 650.554688 652.535156 658.898438 643.871094 666.859375 C 635.207031 674.824219 626.195312 682.371094 616.839844 689.503906 C 607.480469 696.636719 597.8125 703.324219 587.839844 709.566406 C 577.867188 715.808594 567.625 721.582031 557.121094 726.882812 C 546.613281 732.179688 535.886719 736.988281 524.9375 741.296875 C 513.992188 745.609375 502.867188 749.410156 491.570312 752.695312 C 480.269531 755.984375 468.84375 758.746094 457.292969 760.980469 C 445.738281 763.214844 434.109375 764.914062 422.398438 766.078125 C 409.78125 767.3125 397.027344 768 384 768 C 370.972656 768 358.21875 767.3125 345.601562 766.078125 C 333.890625 764.914062 322.261719 763.214844 310.707031 760.980469 C 299.15625 758.746094 287.730469 755.984375 276.429688 752.695312 C 265.132812 749.410156 254.007812 745.609375 243.0625 741.296875 C 232.113281 736.988281 221.386719 732.179688 210.878906 726.882812 C 200.375 721.582031 190.132812 715.808594 180.160156 709.566406 C 170.1875 703.324219 160.519531 696.636719 151.160156 689.503906 C 141.804688 682.371094 132.792969 674.824219 124.128906 666.859375 C 115.464844 658.898438 107.1875 650.554688 99.292969 641.828125 C 101.171875 638.566406 103.210938 635.410156 105.417969 632.359375 C 107.621094 629.308594 109.972656 626.378906 112.476562 623.566406 C 114.980469 620.757812 117.621094 618.082031 120.402344 615.542969 C 123.179688 613.003906 126.082031 610.617188 129.105469 608.375 C 132.128906 606.132812 135.257812 604.050781 138.496094 602.132812 C 141.734375 600.210938 145.058594 598.460938 148.476562 596.882812 C 151.894531 595.304688 155.382812 593.90625 158.941406 592.683594 C 162.503906 591.460938 166.117188 590.425781 169.78125 589.578125 L 283.199219 563.519531 L 295.269531 560.777344 L 329.144531 552.960938 L 329.144531 469.578125 L 438.855469 469.578125 L 438.855469 552.960938 L 472.730469 560.777344 L 484.800781 563.519531 L 598.21875 589.578125 C 601.882812 590.425781 605.496094 591.464844 609.058594 592.683594 C 612.617188 593.90625 616.105469 595.304688 619.523438 596.882812 C 622.941406 598.460938 626.265625 600.210938 629.503906 602.132812 C 632.742188 604.050781 635.871094 606.132812 638.894531 608.375 C 641.917969 610.617188 644.820312 613.003906 647.597656 615.542969 C 650.378906 618.082031 653.019531 620.757812 655.523438 623.566406 C 658.027344 626.378906 660.378906 629.308594 662.582031 632.359375 C 664.789062 635.410156 666.828125 638.566406 668.707031 641.828125 Z M 668.707031 641.828125 " fill-opacity="1" fill-rule="nonzero"/><path fill="#8e4a3c" d="M 438.855469 538.09375 L 438.855469 469.621094 L 329.144531 469.621094 L 329.144531 538.09375 C 333.5 539.820312 337.925781 541.339844 342.425781 542.648438 C 346.921875 543.957031 351.472656 545.050781 356.074219 545.929688 C 360.675781 546.808594 365.3125 547.46875 369.976562 547.910156 C 374.640625 548.351562 379.316406 548.570312 384 548.570312 C 388.683594 548.570312 393.359375 548.351562 398.023438 547.910156 C 402.6875 547.46875 407.324219 546.808594 411.925781 545.929688 C 416.527344 545.050781 421.078125 543.957031 425.574219 542.648438 C 430.074219 541.339844 434.5 539.820312 438.855469 538.09375 Z M 438.855469 538.09375 " fill-opacity="1" fill-rule="nonzero"/><path fill="#ba6e5a" d="M 260.570312 301.714844 C 260.570312 218.398438 271.792969 150.855469 384 150.855469 C 496.207031 150.855469 507.429688 218.398438 507.429688 301.714844 L 507.429688 397.714844 C 507.429688 399.734375 507.378906 401.753906 507.28125 403.769531 C 507.179688 405.789062 507.03125 407.800781 506.835938 409.8125 C 506.636719 411.824219 506.390625 413.828125 506.09375 415.824219 C 505.796875 417.824219 505.449219 419.8125 505.058594 421.792969 C 504.664062 423.773438 504.21875 425.746094 503.730469 427.703125 C 503.238281 429.664062 502.699219 431.609375 502.113281 433.542969 C 501.527344 435.476562 500.894531 437.394531 500.214844 439.296875 C 499.53125 441.199219 498.804688 443.082031 498.03125 444.949219 C 497.261719 446.816406 496.441406 448.660156 495.578125 450.488281 C 494.714844 452.3125 493.804688 454.117188 492.855469 455.898438 C 491.902344 457.679688 490.90625 459.4375 489.867188 461.167969 C 488.828125 462.902344 487.75 464.609375 486.628906 466.289062 C 485.503906 467.96875 484.34375 469.617188 483.140625 471.242188 C 481.933594 472.863281 480.691406 474.453125 479.410156 476.015625 C 478.128906 477.578125 476.8125 479.105469 475.453125 480.605469 C 474.097656 482.101562 472.707031 483.5625 471.277344 484.992188 C 469.847656 486.417969 468.386719 487.8125 466.890625 489.167969 C 465.394531 490.527344 463.863281 491.84375 462.300781 493.125 C 460.742188 494.40625 459.148438 495.648438 457.527344 496.851562 C 455.902344 498.054688 454.253906 499.21875 452.574219 500.339844 C 450.894531 501.464844 449.1875 502.542969 447.453125 503.582031 C 445.722656 504.621094 443.964844 505.617188 442.183594 506.570312 C 440.402344 507.519531 438.597656 508.429688 436.773438 509.292969 C 434.945312 510.15625 433.101562 510.972656 431.234375 511.746094 C 429.367188 512.519531 427.484375 513.246094 425.582031 513.925781 C 423.679688 514.609375 421.761719 515.242188 419.828125 515.828125 C 417.894531 516.414062 415.949219 516.953125 413.992188 517.445312 C 412.03125 517.933594 410.0625 518.378906 408.078125 518.769531 C 406.097656 519.164062 404.109375 519.511719 402.109375 519.808594 C 400.113281 520.101562 398.109375 520.351562 396.097656 520.546875 C 394.089844 520.746094 392.074219 520.894531 390.054688 520.996094 C 388.039062 521.09375 386.019531 521.144531 384 521.144531 C 381.980469 521.144531 379.960938 521.09375 377.945312 520.996094 C 375.925781 520.894531 373.914062 520.746094 371.902344 520.546875 C 369.890625 520.351562 367.886719 520.101562 365.890625 519.808594 C 363.890625 519.511719 361.902344 519.164062 359.921875 518.769531 C 357.9375 518.378906 355.96875 517.933594 354.007812 517.445312 C 352.050781 516.953125 350.105469 516.414062 348.171875 515.828125 C 346.238281 515.242188 344.320312 514.609375 342.417969 513.925781 C 340.515625 513.246094 338.632812 512.519531 336.765625 511.746094 C 334.898438 510.972656 333.054688 510.15625 331.226562 509.292969 C 329.402344 508.429688 327.597656 507.519531 325.816406 506.570312 C 324.035156 505.617188 322.277344 504.621094 320.546875 503.582031 C 318.8125 502.542969 317.105469 501.464844 315.425781 500.339844 C 313.746094 499.21875 312.097656 498.054688 310.472656 496.851562 C 308.851562 495.648438 307.257812 494.40625 305.699219 493.125 C 304.136719 491.84375 302.605469 490.527344 301.109375 489.167969 C 299.613281 487.8125 298.152344 486.417969 296.722656 484.992188 C 295.292969 483.5625 293.902344 482.101562 292.546875 480.605469 C 291.1875 479.105469 289.871094 477.578125 288.589844 476.015625 C 287.308594 474.453125 286.066406 472.863281 284.859375 471.242188 C 283.65625 469.617188 282.496094 467.96875 281.371094 466.289062 C 280.25 464.609375 279.171875 462.902344 278.132812 461.167969 C 277.09375 459.4375 276.097656 457.679688 275.144531 455.898438 C 274.195312 454.117188 273.285156 452.3125 272.421875 450.488281 C 271.558594 448.660156 270.738281 446.816406 269.96875 444.949219 C 269.195312 443.082031 268.46875 441.199219 267.785156 439.296875 C 267.105469 437.394531 266.472656 435.476562 265.886719 433.542969 C 265.300781 431.609375 264.761719 429.664062 264.269531 427.703125 C 263.78125 425.746094 263.335938 423.773438 262.941406 421.792969 C 262.550781 419.8125 262.203125 417.824219 261.90625 415.824219 C 261.609375 413.828125 261.363281 411.824219 261.164062 409.8125 C 260.96875 407.800781 260.820312 405.789062 260.71875 403.769531 C 260.621094 401.753906 260.570312 399.734375 260.570312 397.714844 Z M 260.570312 301.714844 " fill-opacity="1" fill-rule="nonzero"/><path fill="#212121" d="M 498.367188 177.0625 C 477.796875 145.46875 441.550781 130.773438 384 130.039062 C 326.449219 130.773438 290.203125 145.46875 269.632812 177.0625 C 249.0625 208.652344 260.570312 324 260.570312 324 L 268.164062 323.265625 C 268.164062 323.265625 269.027344 269.792969 280.652344 265.226562 C 301.226562 257.144531 305.53125 228.488281 307.835938 216.734375 C 310.140625 204.976562 346.773438 193.957031 384 193.957031 C 388.09375 193.957031 392.171875 194.113281 396.207031 194.371094 C 396.039062 195.285156 395.941406 196.207031 395.914062 197.136719 C 395.882812 198.066406 395.925781 198.992188 396.035156 199.917969 C 396.144531 200.839844 396.324219 201.75 396.570312 202.648438 C 396.816406 203.546875 397.125 204.417969 397.503906 205.269531 C 397.878906 206.121094 398.316406 206.9375 398.816406 207.722656 C 399.316406 208.507812 399.871094 209.25 400.480469 209.953125 C 401.09375 210.652344 401.75 211.308594 402.460938 211.910156 C 403.167969 212.511719 403.917969 213.058594 404.707031 213.550781 C 405.496094 214.042969 406.316406 214.472656 407.171875 214.839844 C 408.027344 215.207031 408.902344 215.511719 409.804688 215.75 C 410.703125 215.984375 411.613281 216.152344 412.539062 216.253906 C 413.464844 216.355469 414.390625 216.386719 415.320312 216.347656 C 416.25 216.308594 417.171875 216.203125 418.085938 216.027344 C 418.996094 215.851562 419.894531 215.609375 420.769531 215.296875 C 421.648438 214.988281 422.496094 214.613281 423.316406 214.175781 C 424.136719 213.742188 424.921875 213.246094 425.667969 212.691406 C 425.667969 212.816406 425.632812 212.9375 425.632812 213.066406 C 425.628906 214.167969 425.703125 215.265625 425.851562 216.359375 C 426 217.453125 426.222656 218.53125 426.515625 219.597656 C 426.8125 220.660156 427.179688 221.699219 427.617188 222.710938 C 428.054688 223.722656 428.5625 224.703125 429.132812 225.644531 C 429.707031 226.589844 430.339844 227.492188 431.035156 228.347656 C 431.730469 229.207031 432.480469 230.011719 433.285156 230.765625 C 434.089844 231.519531 434.941406 232.214844 435.84375 232.855469 C 436.742188 233.492188 437.683594 234.066406 438.664062 234.574219 C 439.640625 235.085938 440.652344 235.523438 441.691406 235.894531 C 442.730469 236.265625 443.789062 236.566406 444.871094 236.792969 C 445.949219 237.019531 447.039062 237.171875 448.140625 237.246094 C 449.242188 237.324219 450.34375 237.328125 451.445312 237.253906 C 452.546875 237.179688 453.636719 237.03125 454.71875 236.808594 C 455.796875 236.585938 456.859375 236.289062 457.898438 235.921875 C 458.941406 235.554688 459.949219 235.117188 460.933594 234.609375 C 461.914062 234.105469 462.855469 233.535156 463.757812 232.898438 C 464.050781 234.601562 464.445312 236.285156 464.933594 237.941406 C 465.421875 239.601562 466.003906 241.226562 466.675781 242.820312 C 467.351562 244.410156 468.117188 245.960938 468.96875 247.464844 C 469.820312 248.96875 470.757812 250.421875 471.777344 251.816406 C 472.796875 253.214844 473.894531 254.546875 475.066406 255.820312 C 476.238281 257.089844 477.480469 258.289062 478.789062 259.417969 C 480.097656 260.546875 481.46875 261.597656 482.902344 262.570312 C 484.332031 263.542969 485.8125 264.425781 487.34375 265.230469 C 498.972656 269.796875 499.835938 323.269531 499.835938 323.269531 L 507.429688 324 C 507.429688 324 518.9375 208.652344 498.367188 177.0625 Z M 498.367188 177.0625 " fill-opacity="1" fill-rule="nonzero"/><path fill="#fff362" d="M 668.707031 641.828125 C 660.8125 650.554688 652.535156 658.898438 643.871094 666.859375 C 635.207031 674.824219 626.195312 682.371094 616.839844 689.503906 C 607.480469 696.636719 597.8125 703.324219 587.839844 709.566406 C 577.867188 715.808594 567.625 721.582031 557.121094 726.882812 C 546.613281 732.179688 535.886719 736.988281 524.9375 741.296875 C 513.992188 745.609375 502.867188 749.410156 491.570312 752.695312 C 480.269531 755.984375 468.84375 758.746094 457.292969 760.980469 C 445.738281 763.214844 434.109375 764.914062 422.398438 766.078125 C 409.78125 767.3125 397.027344 768 384 768 C 370.972656 768 358.21875 767.3125 345.601562 766.078125 C 333.890625 764.914062 322.261719 763.214844 310.707031 760.980469 C 299.15625 758.746094 287.730469 755.984375 276.429688 752.695312 C 265.132812 749.410156 254.007812 745.609375 243.0625 741.296875 C 232.113281 736.988281 221.386719 732.179688 210.878906 726.882812 C 200.375 721.582031 190.132812 715.808594 180.160156 709.566406 C 170.1875 703.324219 160.519531 696.636719 151.160156 689.503906 C 141.804688 682.371094 132.792969 674.824219 124.128906 666.859375 C 115.464844 658.898438 107.1875 650.554688 99.292969 641.828125 C 101.171875 638.566406 103.210938 635.410156 105.417969 632.359375 C 107.621094 629.308594 109.972656 626.378906 112.476562 623.566406 C 114.980469 620.757812 117.621094 618.082031 120.402344 615.542969 C 123.179688 613.003906 126.082031 610.617188 129.105469 608.375 C 132.128906 606.132812 135.257812 604.050781 138.496094 602.132812 C 141.734375 600.210938 145.058594 598.460938 148.476562 596.882812 C 151.894531 595.304688 155.382812 593.90625 158.941406 592.683594 C 162.503906 591.460938 166.117188 590.425781 169.78125 589.578125 L 283.199219 563.519531 L 295.269531 560.777344 L 354.515625 606.582031 L 362.195312 612.480469 L 384 629.347656 L 405.804688 612.480469 L 413.484375 606.582031 L 472.730469 560.777344 L 484.800781 563.519531 L 598.21875 589.578125 C 601.882812 590.425781 605.496094 591.464844 609.058594 592.683594 C 612.617188 593.90625 616.105469 595.304688 619.523438 596.882812 C 622.941406 598.460938 626.265625 600.210938 629.503906 602.132812 C 632.742188 604.050781 635.871094 606.132812 638.894531 608.375 C 641.917969 610.617188 644.820312 613.003906 647.597656 615.542969 C 650.378906 618.082031 653.019531 620.757812 655.523438 623.566406 C 658.027344 626.378906 660.378906 629.308594 662.582031 632.359375 C 664.789062 635.410156 666.828125 638.566406 668.707031 641.828125 Z M 668.707031 641.828125 " fill-opacity="1" fill-rule="nonzero"/><path fill="#01314f" d="M 408 600.796875 L 384 614.207031 L 360 600.796875 L 334.109375 628.347656 L 362.933594 657.914062 L 405.066406 657.914062 L 433.890625 628.347656 Z M 408 600.796875 " fill-opacity="1" fill-rule="nonzero"/><path fill="#00406f" d="M 422.398438 766.078125 C 409.78125 767.3125 397.027344 768 384 768 C 370.972656 768 358.21875 767.3125 345.601562 766.078125 L 363.703125 657.875 L 384 657.601562 L 404.296875 657.875 Z M 422.398438 766.078125 " fill-opacity="1" fill-rule="nonzero"/><path fill="#ed8835" d="M 332.160156 658.847656 L 370.285156 599.957031 L 329.144531 552.972656 L 283.160156 563.546875 Z M 332.160156 658.847656 " fill-opacity="1" fill-rule="nonzero"/><path fill="#ed8835" d="M 484.839844 563.546875 L 438.855469 552.972656 L 397.714844 599.957031 L 435.839844 658.847656 Z M 484.839844 563.546875 " fill-opacity="1" fill-rule="nonzero"/></svg>