<?xml version="1.0" encoding="UTF-8"?>
<svg id="Layer_2" xmlns="http://www.w3.org/2000/svg" xmlns:xlink="http://www.w3.org/1999/xlink" viewBox="0 0 1024.07 980">
  <defs>
    <style>
      .cls-1 {
        fill: #4187b5;
      }

      .cls-1, .cls-2, .cls-3, .cls-4, .cls-5, .cls-6, .cls-7, .cls-8, .cls-9, .cls-10 {
        fill-rule: evenodd;
      }

      .cls-11 {
        clip-path: url(#clippath-4);
      }

      .cls-2 {
        fill: #e3a829;
      }

      .cls-12 {
        fill: none;
      }

      .cls-3 {
        fill: #60b7fe;
      }

      .cls-4 {
        fill: #fa6e85;
      }

      .cls-5 {
        fill: #ccc;
      }

      .cls-13 {
        clip-path: url(#clippath-1);
      }

      .cls-6 {
        fill: #129182;
      }

      .cls-14 {
        clip-path: url(#clippath-5);
      }

      .cls-7 {
        fill: #9bc9ff;
      }

      .cls-8 {
        fill: #e6e6e6;
      }

      .cls-15 {
        clip-path: url(#clippath-3);
      }

      .cls-9 {
        fill: #f0b16e;
      }

      .cls-16 {
        clip-path: url(#clippath-2);
      }

      .cls-17 {
        clip-path: url(#clippath);
      }

      .cls-10 {
        fill: #e33f65;
      }
    </style>
    <clipPath id="clippath">
      <rect class="cls-12" x=".07" y="295.57" width="1024" height="684.43"/>
    </clipPath>
    <clipPath id="clippath-1">
      <rect class="cls-12" x="253.4" width="517.33" height="355.57"/>
    </clipPath>
    <clipPath id="clippath-2">
      <rect class="cls-12" x="254.73" y="723.57" width="257.33" height="256.43"/>
    </clipPath>
    <clipPath id="clippath-3">
      <rect class="cls-12" x="766.73" y="723.57" width="257.33" height="256.43"/>
    </clipPath>
    <clipPath id="clippath-4">
      <rect class="cls-12" x="510.73" y="723.57" width="257.33" height="256.43"/>
    </clipPath>
    <clipPath id="clippath-5">
      <rect class="cls-12" x=".07" y="723.57" width="256" height="256.43"/>
    </clipPath>
  </defs>
  <g id="Layer_1-2" data-name="Layer_1">
    <g class="cls-17">
      <path class="cls-8" d="M61.58,979.9h900.72c33.92,0,61.59-27.65,61.59-61.55V357.23c0-33.9-27.67-61.56-61.59-61.56H61.58c-33.92,0-61.58,27.66-61.58,61.56v561.11c0,33.91,27.67,61.56,61.58,61.56Z"/>
    </g>
    <g class="cls-13">
      <path class="cls-9" d="M644.79,167.05h43.01c44.93,0,81.69,36.74,81.69,81.65v76.28c0,16.7-13.63,30.31-30.33,30.31h-454.43c-16.71,0-30.33-13.61-30.33-30.31v-76.28c0-44.91,36.76-81.65,81.69-81.65h43.01C359.66,82.08,424.06.34,511.95.34s152.29,81.74,132.84,166.71ZM511.95,94.9c-23.01,0-41.67,18.65-41.67,41.65s18.65,41.65,41.67,41.65,41.67-18.65,41.67-41.65-18.66-41.65-41.67-41.65Z"/>
    </g>
    <g class="cls-16">
      <path class="cls-7" d="M255.97,724.05h255.97v255.85h-255.97v-255.85Z"/>
    </g>
    <g class="cls-15">
      <path class="cls-7" d="M767.92,724.05v255.85h194.39c33.92,0,61.58-27.65,61.58-61.55v-194.3h-255.97Z"/>
    </g>
    <g class="cls-11">
      <path class="cls-8" d="M511.95,724.05h255.97v255.85h-255.97v-255.85Z"/>
    </g>
    <path class="cls-7" d="M0,468.2h255.97v255.85H0v-255.85Z"/>
    <path class="cls-7" d="M511.95,468.2h255.97v255.85h-255.97v-255.85Z"/>
    <path class="cls-8" d="M767.92,468.2h255.97v255.85h-255.97v-255.85Z"/>
    <path class="cls-8" d="M255.97,468.2h255.97v255.85h-255.97v-255.85Z"/>
    <path class="cls-3" d="M0,468.2h255.97v50.36H0v-50.36Z"/>
    <path class="cls-3" d="M511.95,468.2h255.97v50.36h-255.97v-50.36Z"/>
    <path class="cls-5" d="M767.92,468.2h255.97v50.36h-255.97v-50.36Z"/>
    <path class="cls-5" d="M255.97,468.2h255.97v50.36h-255.97v-50.36Z"/>
    <g class="cls-14">
      <path class="cls-8" d="M255.97,979.9v-255.85H0v194.3c0,33.9,27.67,61.55,61.58,61.55h194.39Z"/>
    </g>
    <path class="cls-4" d="M767.92,468.2h255.97v-110.96c0-33.9-27.67-61.56-61.59-61.56h-192.82v29.31c0,16.7-13.63,30.31-30.33,30.31h-454.43c-16.71,0-30.33-13.61-30.33-30.31v-29.31H61.58c-33.92,0-61.58,27.66-61.58,61.56v110.96h767.92Z"/>
    <path class="cls-10" d="M803.11,295.68h-33.63v29.31c0,16.7-13.63,30.31-30.33,30.31h-454.43c-16.71,0-30.33-13.61-30.33-30.31v-29.31h-33.63v48.52c0,18.88,15.4,34.27,34.29,34.27h513.76c18.89,0,34.29-15.4,34.29-34.27v-48.52Z"/>
    <path class="cls-6" d="M567.51,845.74c-4.69-7.45-2.45-17.3,5-21.99,7.45-4.69,17.3-2.45,22,4.99l23.28,36.96,70.42-63.84c6.53-5.9,16.6-5.4,22.5,1.13s5.4,16.59-1.13,22.48c-9.33,8.45-83.73,76.43-86.67,78.28-7.46,4.69-17.31,2.45-22-4.99l-33.4-53.02Z"/>
    <path class="cls-2" d="M823.48,589.89c-4.69-7.45-2.45-17.29,5-21.98s17.3-2.46,21.99,4.99l23.29,36.96,70.42-63.84c6.53-5.9,16.6-5.4,22.5,1.13,5.9,6.52,5.4,16.59-1.13,22.48-9.33,8.45-83.73,76.43-86.67,78.28-7.46,4.69-17.31,2.45-22-5l-33.4-53.02Z"/>
    <path class="cls-10" d="M55.56,589.89c-4.69-7.45-2.45-17.29,5-21.98s17.3-2.46,22,4.99l23.28,36.96,70.42-63.84c6.52-5.9,16.59-5.4,22.49,1.13,5.9,6.52,5.4,16.59-1.13,22.48-9.33,8.45-83.73,76.43-86.67,78.28-7.46,4.69-17.31,2.45-22-5l-33.4-53.02Z"/>
    <path class="cls-1" d="M311.53,845.74c-4.69-7.45-2.45-17.3,5-21.99,7.45-4.69,17.3-2.45,22,4.99l23.28,36.96,70.42-63.84c6.53-5.9,16.6-5.4,22.5,1.13s5.4,16.59-1.13,22.48c-9.33,8.45-83.73,76.43-86.67,78.28-7.46,4.69-17.31,2.45-22-4.99l-33.4-53.02Z"/>
  </g>
</svg>