<?xml version="1.0" encoding="UTF-8"?>
<svg id="Layer_2" xmlns="http://www.w3.org/2000/svg" xmlns:xlink="http://www.w3.org/1999/xlink" viewBox="0 0 1022.22 901">
  <defs>
    <style>
      .cls-1 {
        fill: #9ac54a;
      }

      .cls-2 {
        fill: #e85d52;
      }

      .cls-3 {
        fill: #79abb1;
      }

      .cls-4 {
        fill: #8bd7c7;
      }

      .cls-5 {
        fill: #efdfb6;
      }

      .cls-6 {
        fill: #a8d64e;
      }

      .cls-7 {
        fill: #d36552;
      }

      .cls-8 {
        fill: #f68872;
      }

      .cls-9 {
        fill: #73cfbc;
      }

      .cls-10 {
        fill: #f4e8c5;
      }

      .cls-11 {
        fill: #f7ecbb;
      }

      .cls-12 {
        fill: #fde3a7;
      }

      .cls-13 {
        fill: #79a641;
      }

      .cls-14 {
        fill: none;
      }

      .cls-15 {
        fill: #e08071;
      }

      .cls-16 {
        fill: #8dc249;
      }

      .cls-17 {
        fill: #9f4439;
      }

      .cls-18 {
        fill: #659fa6;
      }

      .cls-19 {
        clip-path: url(#clippath-1);
      }

      .cls-20 {
        fill: #e37e69;
      }

      .cls-21 {
        fill: #d2766b;
      }

      .cls-22 {
        fill: #e9d39a;
      }

      .cls-23 {
        fill: #e16157;
      }

      .cls-24 {
        fill: #6abfac;
      }

      .cls-25 {
        fill: #f4685d;
      }

      .cls-26 {
        fill: #eb6a5d;
      }

      .cls-27 {
        fill: #d7574d;
      }

      .cls-28 {
        fill: #b55043;
      }

      .cls-29 {
        fill: #b8a679;
      }

      .cls-30 {
        fill: #fab69d;
      }

      .cls-31 {
        fill: #e26c5a;
      }

      .cls-32 {
        fill: #c45548;
      }

      .cls-33 {
        fill: #dfd4b3;
      }

      .cls-34 {
        fill: #f57661;
      }

      .cls-35 {
        fill: #655a56;
      }

      .cls-36 {
        fill: #d06554;
      }

      .cls-37 {
        fill: #d6c28d;
      }

      .cls-38 {
        fill: #91372e;
      }

      .cls-39 {
        fill: #f89a85;
      }

      .cls-40 {
        fill: #f14345;
      }

      .cls-41 {
        fill: #f9a895;
      }

      .cls-42 {
        fill: #e8917e;
      }

      .cls-43 {
        fill: #d76255;
      }

      .cls-44 {
        fill: #80c6b6;
      }

      .cls-45 {
        fill: #cc5747;
      }

      .cls-46 {
        fill: #ac493e;
      }

      .cls-47 {
        fill: #433634;
      }

      .cls-48 {
        fill: #b44c41;
      }

      .cls-49 {
        fill: #e8d9e1;
      }

      .cls-50 {
        fill: #e1d0aa;
      }

      .cls-51 {
        fill: #83b345;
      }

      .cls-52 {
        fill: #8b9494;
      }

      .cls-53 {
        fill: #87332b;
      }

      .cls-54 {
        fill: #e3dfe0;
      }

      .cls-55 {
        fill: #c9b584;
      }

      .cls-56 {
        fill: #a5a8a6;
      }

      .cls-57 {
        fill: #ee8778;
      }

      .cls-58 {
        fill: #bc5143;
      }

      .cls-59 {
        fill: #5c9298;
      }

      .cls-60 {
        fill: #de3f41;
      }

      .cls-61 {
        clip-path: url(#clippath);
      }

      .cls-62 {
        fill: #faf4d3;
      }

      .cls-63 {
        fill: #eae9e6;
      }

      .cls-64 {
        fill: #d27e6c;
      }

      .cls-65 {
        fill: #c67767;
      }
    </style>
    <clipPath id="clippath">
      <rect class="cls-14" x="233.69" y="21.23" width="17.33" height="879.77"/>
    </clipPath>
    <clipPath id="clippath-1">
      <rect class="cls-14" x="229.69" width="25.33" height="23.9"/>
    </clipPath>
  </defs>
  <g id="Layer_1-2" data-name="Layer_1">
    <g>
      <path class="cls-32" d="M1006.54,241.74c-10.53-9.98-139.86-36.74-177.41-43.08-87.77-14.82-162.67-27.33-251.71-31.46-92.79-4.31-188.67,3.66-280.99,14.91-73.53,8.97-146.85,23.18-219.38,38.06-20.64,4.23-33.9,5.77-54.27,11.18-10.8,2.87-15.2,15.49-14.98,22.48.51,16.57.59,29.44.87,46.02.26,15.74.16,31.48.04,47.22-.07,9.28.31,18.55.23,27.82-.07,8.13-1.15,19.38,3.15,25.19,3.31,4.47,17.9,4.21,23.81,4.21h174.05c20.68,0,41.36,0,62.05,0h65.92c23.03,0,46.07,0,69.1,0s47.56,0,71.34,0h72.06c23.7,0,47.4,0,71.09,0,22.94,0,45.88,0,68.82-.01h65.74c20.6,0,41.2,0,61.8,0,18.74,0,37.47.01,56.2.02,16.03,0,32.04.02,48.05.02,12.51,0,25.02,0,37.53-.01,8.81-.01,17.63-.02,26.45-.04,5.96-.02,11.94-.04,17.91-.07,9.27,0,7.71-7.79,7.72-14.74.03-12.04.13-24.08.09-36.13-.09-30.77,0-61.54.83-92.3.2-7.36-.09-13.54-6.13-19.28"/>
      <path class="cls-48" d="M31.29,316.14c0,.14,0,.28,0,.42,0,3.2.65,6.09,1.83,8.59,1.76,3.77,4.67,6.62,8.09,8.48,3.42,1.87,7.35,2.8,11.3,2.8,5.19-.01,10.47-1.59,14.69-4.93,2.11-1.67,3.95-3.77,5.33-6.3,1.39-2.53,2.32-5.47,2.66-8.78.14-1.29-.8-2.44-2.09-2.57s-2.44.8-2.57,2.09c-.29,2.73-1.04,5.05-2.11,7.01-1.61,2.94-3.97,5.11-6.76,6.58s-5.98,2.21-9.16,2.21c-2.15,0-4.28-.34-6.24-.99-2.95-.99-5.52-2.68-7.33-5.01-1.82-2.34-2.95-5.33-2.95-9.18v-.34c.02-1.3-1.01-2.36-2.3-2.38-1.3-.02-2.36,1.01-2.39,2.3"/>
      <path class="cls-48" d="M70.53,316.14v.42c0,3.2.65,6.09,1.82,8.59,1.76,3.77,4.67,6.62,8.09,8.48,3.42,1.87,7.34,2.8,11.3,2.8,5.19-.01,10.47-1.59,14.69-4.93,2.11-1.67,3.95-3.77,5.33-6.3,1.39-2.53,2.32-5.47,2.66-8.78.13-1.29-.8-2.44-2.09-2.57s-2.44.8-2.57,2.09c-.28,2.73-1.03,5.05-2.11,7.01-1.61,2.94-3.97,5.11-6.76,6.58s-5.99,2.21-9.16,2.21c-2.15,0-4.28-.34-6.24-.99-2.95-.99-5.52-2.68-7.34-5.02-1.82-2.33-2.95-5.32-2.95-9.17v-.34c.03-1.29-1.01-2.36-2.3-2.38-1.3-.02-2.36,1.01-2.39,2.3"/>
      <path class="cls-48" d="M50.91,298.24c0,.14,0,.28,0,.42,0,3.2.65,6.09,1.82,8.59,1.76,3.77,4.68,6.62,8.09,8.48,3.42,1.87,7.35,2.79,11.3,2.79,5.19,0,10.47-1.59,14.7-4.93,2.11-1.66,3.95-3.77,5.33-6.3s2.32-5.47,2.66-8.78c.13-1.28-.8-2.43-2.09-2.57s-2.44.8-2.57,2.09c-.29,2.73-1.04,5.04-2.11,7.01-1.61,2.94-3.97,5.11-6.76,6.59-2.78,1.47-5.98,2.21-9.16,2.21-2.15,0-4.28-.34-6.24-1-2.95-.98-5.52-2.68-7.33-5.02-1.82-2.34-2.95-5.32-2.96-9.17,0-.11,0-.23,0-.34.02-1.29-1.01-2.36-2.3-2.39-1.29-.02-2.36,1.01-2.38,2.31"/>
      <path class="cls-48" d="M184.27,318.24c0,.15,0,.28,0,.42,0,3.2.65,6.09,1.83,8.59,1.76,3.77,4.67,6.62,8.09,8.48,3.42,1.86,7.34,2.78,11.3,2.79,5.19-.01,10.47-1.6,14.7-4.93,2.11-1.66,3.95-3.77,5.33-6.29,1.39-2.53,2.32-5.47,2.66-8.78.13-1.29-.8-2.44-2.09-2.57-1.29-.13-2.44.8-2.57,2.09-.29,2.73-1.03,5.05-2.11,7.01-1.61,2.94-3.97,5.11-6.76,6.58-2.78,1.47-5.98,2.21-9.16,2.21-2.15,0-4.28-.34-6.24-1-2.95-.99-5.52-2.68-7.34-5.02-1.81-2.33-2.94-5.32-2.95-9.17v-.34c.03-1.3-1.01-2.36-2.3-2.38-1.29-.02-2.36,1.01-2.38,2.3"/>
      <path class="cls-48" d="M223.4,318.24v.42c0,3.2.65,6.09,1.82,8.59,1.76,3.77,4.68,6.62,8.09,8.48,3.43,1.86,7.35,2.78,11.3,2.79,5.19-.01,10.47-1.6,14.7-4.93,2.11-1.66,3.94-3.77,5.33-6.29,1.39-2.53,2.32-5.47,2.66-8.78.14-1.29-.8-2.44-2.08-2.57-1.29-.13-2.44.8-2.57,2.09-.29,2.73-1.04,5.05-2.11,7.01-1.61,2.94-3.98,5.11-6.76,6.58-2.78,1.47-5.98,2.21-9.16,2.21-2.15,0-4.28-.34-6.24-1-2.95-.99-5.52-2.68-7.34-5.02-1.81-2.33-2.94-5.32-2.95-9.17,0-.11,0-.22,0-.34.02-1.3-1.01-2.36-2.3-2.38s-2.36,1.01-2.39,2.3"/>
      <path class="cls-48" d="M164.66,300.34c0,.14,0,.28,0,.42,0,3.2.65,6.09,1.82,8.6,1.76,3.77,4.68,6.61,8.09,8.48,3.42,1.86,7.34,2.78,11.3,2.79,5.19,0,10.47-1.59,14.7-4.93,2.11-1.66,3.94-3.78,5.33-6.3,1.39-2.52,2.32-5.47,2.66-8.77.14-1.29-.8-2.44-2.08-2.57-1.29-.14-2.44.8-2.57,2.08-.29,2.73-1.04,5.05-2.11,7.01-1.61,2.94-3.98,5.11-6.76,6.59-2.78,1.47-5.98,2.21-9.16,2.21-2.15,0-4.28-.34-6.24-1-2.95-.98-5.52-2.68-7.34-5.02-1.81-2.34-2.94-5.32-2.95-9.17,0-.11,0-.22,0-.33.02-1.3-1.01-2.36-2.3-2.38-1.29-.03-2.36,1-2.38,2.3"/>
      <path class="cls-48" d="M219.48,260.95v.41c0,3.2.65,6.09,1.82,8.6,1.76,3.77,4.68,6.62,8.09,8.48,3.42,1.87,7.35,2.79,11.3,2.79,5.19,0,10.46-1.59,14.69-4.93,2.11-1.67,3.95-3.77,5.33-6.3,1.39-2.53,2.32-5.46,2.66-8.78.14-1.28-.8-2.43-2.08-2.57-1.29-.13-2.44.81-2.57,2.09-.29,2.73-1.03,5.05-2.11,7.01-1.61,2.94-3.97,5.11-6.76,6.58-2.78,1.47-5.98,2.21-9.16,2.21-2.15,0-4.28-.33-6.24-.99-2.95-.99-5.52-2.69-7.34-5.02-1.81-2.34-2.95-5.33-2.95-9.18,0-.11,0-.22,0-.33.02-1.3-1.01-2.36-2.31-2.39-1.29-.02-2.35,1.01-2.38,2.3"/>
      <path class="cls-48" d="M199.86,241.7v.42c0,3.2.65,6.09,1.82,8.6,1.76,3.77,4.68,6.61,8.09,8.47,3.42,1.87,7.34,2.79,11.3,2.8,5.19-.01,10.47-1.6,14.69-4.93,2.11-1.66,3.95-3.77,5.33-6.3s2.32-5.47,2.66-8.78c.14-1.29-.8-2.44-2.09-2.57s-2.44.8-2.57,2.09c-.28,2.73-1.03,5.05-2.1,7.01-1.61,2.94-3.98,5.11-6.76,6.59-2.78,1.47-5.98,2.21-9.16,2.21-2.15,0-4.28-.34-6.24-1-2.95-.98-5.52-2.68-7.34-5.02-1.81-2.33-2.95-5.32-2.95-9.17v-.33c.03-1.3-1.01-2.36-2.3-2.38-1.3-.02-2.36,1.01-2.39,2.3"/>
      <path class="cls-48" d="M180.25,223.81v.41c0,3.2.65,6.09,1.82,8.6,1.76,3.76,4.68,6.61,8.09,8.48,3.42,1.87,7.34,2.79,11.3,2.79,5.19,0,10.47-1.6,14.7-4.93,2.11-1.67,3.94-3.77,5.33-6.3s2.32-5.47,2.66-8.78c.14-1.28-.8-2.43-2.09-2.57s-2.44.8-2.57,2.09c-.29,2.73-1.04,5.04-2.11,7.01-1.61,2.94-3.98,5.11-6.76,6.58-2.78,1.47-5.99,2.21-9.16,2.21-2.15,0-4.28-.34-6.24-1-2.95-.98-5.52-2.68-7.34-5.02-1.81-2.34-2.95-5.32-2.95-9.17,0-.11,0-.22,0-.33.02-1.29-1.01-2.36-2.3-2.39-1.3-.02-2.36,1.01-2.39,2.31"/>
      <path class="cls-48" d="M219.48,223.81v.41c0,3.2.65,6.09,1.82,8.59,1.76,3.77,4.68,6.62,8.09,8.48s7.34,2.79,11.3,2.79c5.19,0,10.47-1.6,14.7-4.93,2.11-1.67,3.94-3.77,5.33-6.3,1.39-2.53,2.32-5.47,2.66-8.78.14-1.28-.8-2.43-2.09-2.57s-2.44.8-2.57,2.09c-.28,2.73-1.03,5.04-2.1,7.01-1.61,2.94-3.97,5.11-6.76,6.58-2.78,1.47-5.98,2.21-9.16,2.21-2.15,0-4.28-.34-6.24-1-2.95-.98-5.52-2.68-7.34-5.02-1.81-2.34-2.95-5.32-2.95-9.17,0-.11,0-.22,0-.34.02-1.29-1.01-2.35-2.3-2.38-1.3-.02-2.36,1.01-2.39,2.31"/>
      <path class="cls-48" d="M71.66,250.66c0,.15,0,.28,0,.42,0,3.2.65,6.09,1.82,8.6,1.76,3.77,4.68,6.61,8.09,8.48,3.42,1.87,7.34,2.79,11.3,2.79,5.19,0,10.47-1.59,14.7-4.92,2.11-1.67,3.94-3.77,5.33-6.3,1.39-2.52,2.32-5.46,2.66-8.77.14-1.29-.8-2.44-2.08-2.57-1.29-.14-2.44.8-2.57,2.08-.29,2.74-1.04,5.05-2.11,7.02-1.61,2.94-3.97,5.11-6.76,6.58-2.78,1.47-5.98,2.22-9.16,2.21-2.15,0-4.28-.33-6.24-.99-2.95-.99-5.52-2.69-7.34-5.02-1.81-2.34-2.94-5.32-2.95-9.17,0-.11,0-.22,0-.33.02-1.3-1.01-2.36-2.3-2.38-1.29-.03-2.36,1.01-2.38,2.3"/>
      <path class="cls-48" d="M91.27,232.76c0,.14,0,.28,0,.42,0,3.2.65,6.09,1.83,8.59,1.76,3.77,4.68,6.61,8.09,8.48,3.42,1.87,7.35,2.79,11.3,2.79,5.19,0,10.47-1.59,14.7-4.92,2.11-1.67,3.94-3.78,5.33-6.3s2.32-5.47,2.66-8.78c.14-1.28-.8-2.43-2.09-2.57s-2.44.8-2.57,2.09c-.29,2.73-1.04,5.05-2.11,7.01-1.61,2.94-3.97,5.11-6.76,6.59-2.78,1.47-5.99,2.21-9.16,2.21-2.15,0-4.28-.33-6.24-.99-2.95-.99-5.52-2.69-7.33-5.02-1.82-2.34-2.95-5.32-2.95-9.17v-.34c.03-1.29-1.01-2.36-2.3-2.39-1.3-.02-2.36,1.01-2.39,2.31"/>
      <path class="cls-48" d="M696.17,315.02c0,.15,0,.28,0,.42,0,3.2.65,6.09,1.83,8.6,1.76,3.77,4.67,6.61,8.09,8.48,3.42,1.87,7.34,2.79,11.3,2.8,5.19,0,10.47-1.6,14.69-4.93,2.11-1.66,3.95-3.77,5.33-6.29,1.39-2.53,2.31-5.47,2.66-8.78.13-1.29-.8-2.44-2.09-2.57s-2.44.8-2.57,2.09c-.29,2.73-1.03,5.05-2.11,7.01-1.61,2.94-3.97,5.11-6.76,6.58-2.78,1.47-5.99,2.21-9.16,2.21-2.15,0-4.28-.34-6.24-1-2.95-.99-5.52-2.69-7.34-5.02-1.81-2.34-2.94-5.32-2.95-9.18,0-.11,0-.22,0-.33.02-1.29-1.01-2.36-2.3-2.38s-2.36,1.01-2.38,2.3"/>
      <path class="cls-48" d="M735.4,315.02c0,.15-.01.28-.01.42,0,3.2.66,6.09,1.83,8.59,1.76,3.77,4.68,6.61,8.09,8.48,3.42,1.87,7.34,2.79,11.3,2.8,5.19,0,10.47-1.6,14.69-4.93,2.11-1.66,3.95-3.77,5.34-6.29,1.39-2.53,2.31-5.47,2.66-8.78.13-1.29-.8-2.44-2.09-2.57-1.28-.13-2.43.8-2.57,2.09-.29,2.73-1.04,5.05-2.11,7.01-1.62,2.94-3.97,5.11-6.76,6.58-2.78,1.47-5.98,2.21-9.16,2.21-2.15,0-4.28-.34-6.24-1-2.95-.99-5.52-2.68-7.34-5.02-1.81-2.34-2.94-5.32-2.95-9.17,0-.11,0-.22,0-.34.02-1.29-1.01-2.36-2.3-2.38-1.3-.03-2.36,1.01-2.39,2.3"/>
      <path class="cls-48" d="M715.78,297.12c0,.14,0,.28,0,.42,0,3.2.66,6.09,1.83,8.6,1.76,3.77,4.68,6.61,8.09,8.47,3.42,1.87,7.34,2.79,11.3,2.8,5.19,0,10.47-1.59,14.7-4.93,2.1-1.66,3.94-3.77,5.33-6.3,1.39-2.53,2.32-5.47,2.66-8.78.13-1.29-.8-2.44-2.09-2.57-1.28-.14-2.43.8-2.57,2.09-.29,2.73-1.03,5.04-2.1,7.01-1.62,2.94-3.98,5.11-6.77,6.59-2.78,1.47-5.98,2.21-9.16,2.21-2.15,0-4.28-.34-6.24-.99-2.95-.99-5.52-2.68-7.34-5.02-1.82-2.33-2.94-5.32-2.96-9.17,0-.11,0-.22,0-.34.03-1.29-1.01-2.35-2.3-2.38-1.29-.03-2.36,1.01-2.39,2.3"/>
      <path class="cls-48" d="M834.09,318.04c0,.14,0,.28,0,.42,0,3.2.65,6.09,1.82,8.59,1.76,3.77,4.67,6.62,8.09,8.48,3.42,1.88,7.35,2.8,11.3,2.8,5.2,0,10.47-1.6,14.7-4.93,2.1-1.67,3.94-3.78,5.32-6.3,1.39-2.53,2.32-5.47,2.67-8.78.14-1.29-.8-2.44-2.09-2.57-1.29-.13-2.44.8-2.57,2.09-.29,2.73-1.04,5.05-2.1,7.01-1.61,2.94-3.98,5.11-6.76,6.59-2.78,1.46-5.99,2.2-9.17,2.2-2.14,0-4.27-.34-6.24-.99-2.95-.99-5.52-2.68-7.33-5.02-1.82-2.34-2.95-5.32-2.96-9.17,0-.11,0-.22,0-.34.03-1.29-1.01-2.36-2.3-2.38-1.3-.02-2.36,1.01-2.38,2.3"/>
      <path class="cls-48" d="M873.2,318.04v.42c0,3.2.65,6.09,1.83,8.6,1.76,3.77,4.68,6.61,8.09,8.48,3.43,1.87,7.34,2.79,11.3,2.79,5.19,0,10.47-1.59,14.7-4.93,2.1-1.67,3.94-3.77,5.32-6.3,1.39-2.53,2.32-5.46,2.66-8.77.14-1.29-.8-2.44-2.08-2.58-1.29-.14-2.44.81-2.57,2.09-.29,2.73-1.04,5.05-2.11,7.01-1.61,2.94-3.98,5.12-6.77,6.58-2.78,1.47-5.98,2.21-9.16,2.21-2.15,0-4.28-.34-6.24-.99-2.95-.99-5.52-2.68-7.34-5.02-1.82-2.34-2.95-5.32-2.95-9.18v-.33c.03-1.3-1-2.36-2.3-2.39s-2.36,1.01-2.39,2.3"/>
      <path class="cls-48" d="M814.47,300.13c0,.14,0,.28,0,.42,0,3.2.65,6.09,1.82,8.6,1.76,3.76,4.67,6.61,8.09,8.48,3.43,1.87,7.35,2.8,11.3,2.8,5.19-.01,10.46-1.59,14.69-4.93,2.12-1.67,3.95-3.78,5.33-6.3,1.39-2.53,2.32-5.47,2.66-8.78.14-1.29-.8-2.44-2.09-2.57-1.29-.14-2.44.8-2.57,2.09-.29,2.73-1.04,5.05-2.11,7.01-1.61,2.94-3.97,5.11-6.76,6.59-2.78,1.47-5.98,2.21-9.16,2.21-2.15,0-4.27-.33-6.23-1-2.96-.98-5.52-2.68-7.34-5.01-1.81-2.34-2.95-5.32-2.95-9.18v-.33c.02-1.29-1.01-2.36-2.31-2.38-1.29-.02-2.35,1.01-2.38,2.3"/>
      <path class="cls-48" d="M873.31,264.83c0,.14,0,.28,0,.41,0,3.2.66,6.1,1.82,8.6,1.77,3.77,4.68,6.62,8.1,8.48,3.43,1.86,7.35,2.79,11.3,2.8,5.2-.01,10.47-1.59,14.7-4.93,2.11-1.67,3.95-3.78,5.33-6.3,1.39-2.53,2.32-5.47,2.66-8.78.14-1.29-.8-2.44-2.08-2.57-1.29-.13-2.44.8-2.58,2.09-.29,2.73-1.03,5.05-2.11,7.01-1.61,2.94-3.97,5.11-6.76,6.58-2.78,1.47-5.99,2.21-9.17,2.21-2.15,0-4.27-.34-6.24-1-2.95-.99-5.52-2.68-7.33-5.01-1.82-2.34-2.95-5.33-2.96-9.18,0-.11,0-.22,0-.32.02-1.3-1.01-2.37-2.3-2.39-1.3-.03-2.36,1.01-2.39,2.3"/>
      <path class="cls-48" d="M853.69,245.59c0,.14,0,.28,0,.42,0,3.19.66,6.09,1.83,8.59,1.76,3.77,4.67,6.61,8.09,8.48,3.42,1.86,7.35,2.79,11.3,2.79,5.19,0,10.47-1.59,14.7-4.93,2.11-1.66,3.95-3.77,5.33-6.3,1.39-2.53,2.32-5.47,2.67-8.78.13-1.29-.8-2.44-2.09-2.57-1.29-.14-2.44.8-2.57,2.08-.29,2.73-1.03,5.05-2.11,7.02-1.61,2.93-3.97,5.11-6.76,6.58-2.78,1.47-5.99,2.21-9.16,2.21-2.14,0-4.27-.34-6.23-1-2.96-.98-5.53-2.68-7.34-5.01-1.82-2.34-2.95-5.32-2.96-9.17,0-.11,0-.22,0-.34.03-1.29-1.01-2.36-2.31-2.38-1.29-.03-2.35,1-2.38,2.3"/>
      <path class="cls-48" d="M873.31,227.68c0,.14,0,.28,0,.42,0,3.2.65,6.09,1.82,8.6,1.77,3.77,4.68,6.61,8.1,8.48,3.42,1.88,7.34,2.79,11.3,2.79,5.19,0,10.46-1.59,14.7-4.92,2.1-1.67,3.94-3.77,5.33-6.3,1.39-2.53,2.31-5.47,2.66-8.78.14-1.29-.8-2.44-2.08-2.57-1.29-.13-2.44.8-2.58,2.08-.28,2.73-1.03,5.05-2.1,7.02-1.61,2.94-3.98,5.11-6.76,6.58-2.78,1.47-5.98,2.21-9.16,2.21-2.15,0-4.27-.34-6.24-.99-2.95-.98-5.52-2.69-7.33-5.02-1.82-2.34-2.94-5.32-2.96-9.18,0-.11,0-.22,0-.33.02-1.29-1.01-2.35-2.3-2.38-1.3-.03-2.36,1.01-2.38,2.3"/>
      <path class="cls-48" d="M960.42,317.79c-.01.14-.01.28-.01.42,0,3.2.65,6.09,1.83,8.6,1.76,3.77,4.67,6.61,8.09,8.48,3.42,1.88,7.35,2.8,11.3,2.8,5.2,0,10.47-1.59,14.7-4.93,2.11-1.67,3.95-3.77,5.33-6.3,1.38-2.53,2.32-5.47,2.66-8.79.14-1.28-.8-2.43-2.09-2.56-1.29-.14-2.44.8-2.57,2.08-.29,2.73-1.04,5.05-2.11,7.01-1.61,2.94-3.97,5.11-6.76,6.59-2.78,1.46-5.99,2.21-9.17,2.21-2.15,0-4.28-.34-6.24-.99-2.95-.99-5.52-2.69-7.34-5.02-1.82-2.34-2.94-5.32-2.96-9.18,0-.11,0-.22.01-.33.02-1.3-1.01-2.36-2.3-2.39-1.3-.03-2.36,1.01-2.38,2.3"/>
      <path class="cls-48" d="M940.81,298.55c0,.14,0,.28,0,.42,0,3.2.65,6.09,1.82,8.6,1.76,3.76,4.67,6.61,8.09,8.47,3.43,1.88,7.35,2.79,11.31,2.8,5.19,0,10.46-1.59,14.69-4.93,2.11-1.67,3.95-3.77,5.33-6.3,1.39-2.53,2.32-5.47,2.66-8.78.14-1.29-.8-2.44-2.09-2.57-1.29-.14-2.44.79-2.57,2.08-.29,2.73-1.04,5.05-2.11,7.01-1.61,2.94-3.98,5.11-6.76,6.58-2.78,1.47-5.99,2.21-9.16,2.21-2.15,0-4.28-.33-6.25-.99-2.95-.98-5.52-2.68-7.33-5.01-1.82-2.34-2.95-5.32-2.96-9.18,0-.11,0-.22,0-.33.02-1.3-1.01-2.36-2.31-2.39-1.29-.03-2.35,1.01-2.38,2.3"/>
      <path class="cls-48" d="M960.42,280.64c0,.14,0,.28,0,.41,0,3.2.65,6.09,1.82,8.6,1.77,3.77,4.67,6.61,8.09,8.48s7.34,2.79,11.3,2.79c5.19,0,10.47-1.59,14.7-4.92,2.1-1.66,3.94-3.78,5.33-6.3,1.38-2.53,2.31-5.47,2.66-8.78.14-1.28-.8-2.44-2.09-2.57-1.29-.13-2.44.81-2.57,2.09-.29,2.73-1.03,5.04-2.1,7.01-1.61,2.93-3.98,5.11-6.76,6.58-2.78,1.47-5.99,2.21-9.16,2.21-2.14,0-4.28-.34-6.24-1-2.95-.99-5.52-2.68-7.34-5.02-1.81-2.34-2.94-5.32-2.95-9.18,0-.11,0-.22,0-.33.02-1.3-1.01-2.36-2.31-2.39-1.29-.02-2.35,1.01-2.38,2.3"/>
      <path class="cls-48" d="M736.53,249.53v.42c0,3.2.65,6.09,1.82,8.6,1.76,3.77,4.67,6.62,8.09,8.48,3.42,1.87,7.35,2.79,11.3,2.79,5.19,0,10.47-1.59,14.69-4.93,2.11-1.67,3.95-3.77,5.33-6.3,1.39-2.53,2.32-5.47,2.66-8.78.14-1.29-.8-2.44-2.09-2.57-1.29-.13-2.44.8-2.57,2.09-.28,2.73-1.03,5.05-2.11,7.01-1.61,2.94-3.97,5.11-6.76,6.58-2.78,1.47-5.98,2.21-9.16,2.21-2.15,0-4.28-.34-6.24-1-2.95-.99-5.52-2.68-7.34-5.02-1.81-2.34-2.94-5.32-2.95-9.18,0-.11,0-.22,0-.33.02-1.29-1.01-2.36-2.31-2.38-1.29-.02-2.35,1.01-2.38,2.3"/>
      <path class="cls-48" d="M756.15,231.63c0,.14,0,.28,0,.42,0,3.2.65,6.09,1.82,8.6,1.77,3.77,4.68,6.61,8.09,8.48,3.42,1.86,7.35,2.78,11.3,2.79,5.19,0,10.47-1.59,14.7-4.93,2.1-1.66,3.94-3.78,5.33-6.3,1.39-2.52,2.32-5.46,2.66-8.77.13-1.29-.8-2.44-2.09-2.57-1.29-.14-2.44.8-2.57,2.09-.29,2.73-1.03,5.05-2.1,7.01-1.62,2.94-3.98,5.11-6.77,6.59-2.78,1.47-5.98,2.21-9.16,2.21-2.15,0-4.28-.34-6.24-.99-2.96-.99-5.52-2.68-7.34-5.02-1.82-2.33-2.95-5.32-2.96-9.17,0-.11,0-.22,0-.33.03-1.3-1.01-2.36-2.3-2.38-1.29-.03-2.36,1.01-2.38,2.3"/>
      <path class="cls-49" d="M8.06,263.8c-.07-3.21-.16-6.49-.27-9.97,0-.16-.01-.33-.01-.5,0,.17,0,.34.01.5.11,3.46.19,6.76.27,9.96,0,0,0,0,0,0M1012.66,261.08h0s0-.04,0-.06c.03-.9.04-1.79.04-2.67,0,.88-.01,1.77-.04,2.67v.06"/>
      <path class="cls-21" d="M8.07,263.8c-.08-3.2-.16-6.51-.27-9.96,0-.16-.01-.33-.01-.5,0-7.07,4.44-19.17,14.99-21.97,20.38-5.41,33.63-6.95,54.27-11.18,72.53-14.88,145.85-29.09,219.38-38.06,17.25-2.1,34.63-4.09,52.08-5.91l-14.27,10.02c-36.65,3.61-70.98,7.61-111.22,12.89-44.75,5.87-126.02,23.37-169.77,34.68-13.59,3.51-33.97,7.26-45.18,30M1012.66,261.08c-8.88-15.45-38.5-21.88-50.64-24.89-27.57-10.75-59.16-14.86-74.52-17.93-40.59-8.08-110.53-20.51-148.64-24.16-18.31-1.76-33.59-3.71-48.52-5.59l-19.53-13.71c52.19,5.99,102.67,14.46,158.32,23.86,37.54,6.34,166.88,33.1,177.41,43.08,5.3,5.04,6.16,10.41,6.16,16.61,0,.88-.01,1.77-.04,2.67,0,.02,0,.04,0,.06"/>
      <path class="cls-34" d="M978.61,405.4c-2.3,19.46-3.7,39.02-5.86,58.47-4.35,39.28-9.28,78.48-13.69,117.77-.78,7.14-1.61,14.27-2.43,21.42-.41,3.83-.85,7.66-1.29,11.49-7.83,69.43-15.76,138.86-23.65,208.3-1.06,9.35-1.91,43.77-7.06,48.22-.22.22-.46.41-.73.58-4.93,3.25-26.24,3.83-31.91,3.85-28.43.06-44.05-1.36-73.54-1.36H127.37c-9.22,0-25.01,1.36-29.88-4.76-3.81-4.81-4.79-11.65-5.26-17.38-.88-11.02-1.61-22.1-2.88-33.07-2.24-19.83-4.48-39.67-6.73-59.47-1.26-11.16-2.54-22.32-3.8-33.48-9.6-84.35-19.1-168.72-28.73-253.06-2.27-19.81-5.55-41.47-7.63-61.31-1.45-13.7,9.63-27.35,27.77-28.13,23.83-1.01,30.78-.16,50.54-.16h686.55c28.26,0,125.64-2.52,146.16-1.7,20.15.83,27.31,4.98,25.13,23.78"/>
      <path class="cls-2" d="M935.82,786.84c-.91,7.84-1.79,15.67-2.69,23.49-.43,3.83-.87,7.66-1.31,11.49-.03.33-.08.68-.11,1.02-1.07,9.35-1.91,43.77-7.06,48.22-.22.22-.47.41-.73.58-4.93,3.25-26.24,3.83-31.91,3.85-28.43.06-44.05-1.36-73.55-1.36H127.37c-9.22,0-25.01,1.36-29.88-4.76-3.81-4.81-4.79-11.66-5.26-17.38-.05-.71-.11-1.45-.17-2.16-.3-3.83-.6-7.66-.9-11.49-.49-6.48-1.07-12.97-1.81-19.42-1.2-10.7-2.41-21.39-3.64-32.09h850.09"/>
      <path class="cls-31" d="M838.61,593.1c-2.15,0-2.91-.92-2.91-2.05v-8.45s-.01-.09,0-.14v3.8c0,1.14.77,2.05,2.91,2.05l98.29-.09c2.03,0,2.83-.83,2.9-1.89v4.62c0,1.13-.77,2.05-2.9,2.05l-98.29.09"/>
      <path class="cls-31" d="M718.91,591.73c.02-1.14.02-2.28.03-3.42l92.32-.09c2.14,0,2.91-.92,2.9-2.05v-5.17,8.58c0,1.14-.76,2.05-2.9,2.05l-92.35.08"/>
      <path class="cls-31" d="M722.08,767.3c-.03-1.13-.07-2.27-.1-3.39l79.31-.08c2.02,0,2.74-.86,2.74-1.94v-5.44c.12.26.18.54.18.84v7.98c.01,1.07-.72,1.94-2.73,1.94l-79.4.08"/>
      <path class="cls-31" d="M826.98,766.63c-2.02,0-2.73-.86-2.74-1.93v-7.99c-.01-.21.02-.42.08-.61v5.22c0,1.07.73,1.93,2.75,1.93l92.72-.09c2.03,0,2.75-.86,2.74-1.93v-5.05c.02.15.04.29.04.44v7.99c.01,1.07-.72,1.94-2.73,1.94l-92.85.08h-.01"/>
      <path class="cls-9" d="M851.23,491.05c-2.29,1.55-3.05,9.45-3.53,15.97-.38,5.18-4.38,64.4-4.15,71.32l87-.07c1.82-24.08,5.47-46.93,6.55-71.92.17-3.94,1.91-13.5-1.16-16.06-2.1-1.75-8.73-1.44-11.27-1.41-7.8.08-15.6.07-23.41.07-9.01,0-18.03,0-27.04,0-4.51,0-8.99,0-13.49.03-3.3.02-6.54.07-9.52,2.07"/>
      <path class="cls-4" d="M920.73,575.55c-4.42-8.31-8.26-16.47-12.41-24.54h8.61c4.05,7.69,8.07,15.48,12.48,23.5-.02.34-.04.68-.06,1.03h-8.63M906.17,546.91c-2.72-5.08-5.64-10.13-8.96-15.15-1.43-2.13-2.83-4.26-4.26-6.4l.35-5.79h5.7c5.88,9.15,10.9,18.19,15.76,27.33h-8.59M889.18,519.67s-.04-.06-.06-.09h.07v.09M886.43,515.47c-5.15-7.85-10.22-15.76-15.09-23.78.38,0,.76,0,1.13,0h8.44c3.04,4.7,6.07,9.41,9.12,14.1l-.58,9.69h-3.01M893.55,515.47l.23-3.9c.84,1.3,1.69,2.6,2.54,3.9h-2.78"/>
      <path class="cls-4" d="M901.8,575.56c-3.7-5.91-7.29-11.75-10.81-17.56l.42-6.98h11.17c4.11,8.06,7.59,16.21,12.12,24.53h-12.9M887.25,551.83c-.16-.27-.32-.53-.48-.8h.53l-.05.8M884.31,546.93c-5.46-9.1-10.81-18.17-16.19-27.34l14.8-.02c1.91,2.91,3.83,5.81,5.76,8.71l-1.13,18.64h-3.23M891.66,546.92l.78-12.93c.96,1.45,1.92,2.9,2.88,4.35,1.87,2.85,3.55,5.7,5.11,8.56h-8.76M865.71,515.49c-4.39-7.46-8.8-15.01-13.33-22.7,2.19-1.03,4.71-1.05,7.35-1.06,1.83-.01,3.66-.02,5.5-.03,4.82,8.05,9.86,15.94,14.99,23.78h-14.52"/>
      <path class="cls-22" d="M846.41,575.62c.24-5.16.81-14.53,1.41-24.55l39.47-.04-1.47,24.55-39.41.04M929.36,575.54l-39.44.04,1.48-24.55,39.6-.04c-.61,8.02-1.17,16.09-1.65,24.55M932.74,529.11c-.48,6.01-.96,11.89-1.42,17.77l-39.67.04,1.65-27.35,40.22-.04c-.26,3.23-.52,6.42-.78,9.58M934.71,504.9c-.11,1.21-.22,2.44-.32,3.65-.18,2.33-.36,4.6-.54,6.89l-40.3.04,1.44-23.78h12.36c6.71,0,14.03,0,20.23-.07l.95-.02c.46,0,.95-.02,1.44-.02,1.38,0,3.31.09,4.24.84,1.54,1.23.91,8,.49,12.47M872.47,491.69h18.41s-1.43,23.79-1.43,23.79l-39.6.03c.07-1.64.16-3,.24-4.27.16-2.35.31-4.56.29-7.87v-.31c-.02-2.6-.05-8.68,1.05-9.73,2.4-1.56,5.28-1.58,8.31-1.6,4.24-.02,8.48-.04,12.73-.04M887.54,546.93l-39.46.04c.64-10.42,1.26-20.83,1.58-27.35l39.54-.04-1.65,27.36M840.74,581.09l93.81-.09.14-2.58c.92-17.07,2.18-32.51,3.51-48.86.55-6.71,1.11-13.53,1.65-20.6.09-1.17.2-2.37.32-3.56.68-7.28,1.32-14.16-2.49-17.23-2.77-2.23-6.49-2.09-9.26-2.04l-.89.02c-6.19.07-13.47.07-20.17.07h-13.49s-21.4,0-21.4,0c-4.26,0-8.52.02-12.77.03-3.53.02-7.52.05-11.31,2.52-3.26,2.13-3.39,7.06-3.47,10.52-.14,5.24-.07,10.5-.29,15.76-.47,11.26-1.46,22.48-2.14,33.72-.79,13.1-1.55,25.48-1.66,29.52l-.08,2.81"/>
      <path class="cls-22" d="M939.8,586.17c0,1.13-.77,2.05-2.91,2.05l-98.29.09c-2.15,0-2.91-.92-2.91-2.05v-8.45c-.02-1.14.76-2.05,2.9-2.06l98.29-.09c2.14,0,2.91.92,2.91,2.05l.02,8.46"/>
      <path class="cls-10" d="M939.79,578.58h-104.1v-.77h0c0-1.14.77-2.05,2.91-2.06l98.29-.09h0c2.13,0,2.9.92,2.9,2.05v.87"/>
      <path class="cls-9" d="M720.21,491.05c-2.29,1.55-2.2,7.68-2.18,12.32.03,5.2.24,6.31.29,11.5.09,11.06.17,22.12.27,33.17.03,3.17.04,6.33.11,9.49.16,6.94.37,13.88.6,20.81l85.63-.07c-.03-24.16-.08-48.32-.82-72.47-.12-3.94.74-12.94-2.33-15.51-2.1-1.75-5.58-1.44-8.13-1.41-7.79.08-15.59.07-23.4.07-9.01,0-18.02,0-27.03,0-4.5,0-9,0-13.49.03-3.3.02-6.54.07-9.52,2.07"/>
      <path class="cls-4" d="M795.06,575.55c-4.73-8.31-10.17-16.47-15.7-24.53h9.85c5.02,7.58,9.89,15.26,14.38,23.15v1.37h-8.53M776.54,546.91c-3.52-5.09-7.02-10.13-10.35-15.16-.69-1.02-1.37-2.06-2.06-3.08v-9.1s3.88,0,3.88,0c6.06,9.16,12.35,18.19,18.48,27.34h-9.95M760.02,522.47c-.65-.96-1.28-1.93-1.92-2.9h1.91v2.9M755.41,515.47c-5.15-7.85-10.22-15.75-15.09-23.78.38,0,.75,0,1.13,0h8.44c3.36,5.22,6.73,10.44,10.11,15.64v8.15s-4.59,0-4.59,0M764.12,515.47v-1.84c.4.61.8,1.22,1.19,1.84h-1.19"/>
      <path class="cls-4" d="M776.16,575.56c-3.91-6.15-7.93-12.22-12.01-18.25v-6.28s8.72-.01,8.72-.01c5.56,8.06,11.19,16.21,16.13,24.53h-12.84M760.04,551.26c-.05-.07-.1-.15-.16-.22h.16v.22M757.09,546.93c-6.24-9.1-12.53-18.17-18.66-27.34l13.47-.02c2.7,4.11,5.42,8.21,8.14,12.32v15.04s-2.95,0-2.95,0M764.15,546.92v-8.8c.04.08.09.16.14.23,1.87,2.85,3.81,5.71,5.77,8.57h-5.91M735.69,515.49c-4.93-7.46-9.75-15.01-14.33-22.7,2.19-1.03,4.71-1.05,7.34-1.06,1.84-.01,3.67-.02,5.5-.03,4.83,8.04,9.88,15.94,15,23.78h-13.51"/>
      <path class="cls-22" d="M720.04,557.47c-.05-2.13-.06-4.27-.08-6.4l40.08-.04.03,24.55-39.49.04c-.21-6.06-.38-12.1-.53-18.15M803.59,575.54l-39.42.04-.03-24.54,39.36-.04c.05,7.99.07,16.13.08,24.54M764.12,519.57l38.99-.04c.19,9.02.31,18.08.38,27.35l-39.34.03-.03-27.35M802.76,503.03c-.02,1.09-.03,2.07,0,2.86.1,3.19.19,6.36.27,9.55l-38.91.04-.02-23.78h11.99c6.21,0,12.43,0,18.64-.06l.96-.03c.45,0,.94-.02,1.44-.02,1.37,0,3.31.09,4.24.84,1.53,1.23,1.44,7.8,1.4,10.6M719.69,520.08v-.47l40.32-.04.03,27.36-40.13.04c-.08-8.96-.16-17.93-.23-26.89M741.44,491.68h18.55s.02,23.79.02,23.79l-40.35.04v-.65c-.05-5-.4-9.98-.29-14.98.03-1.34-.32-5.67,1.04-6.56,2.41-1.56,5.27-1.58,8.3-1.59,4.25-.03,8.49-.04,12.74-.04M713.87,501.73c-.02,6.14.3,12.27.35,18.4.07,9.32.15,18.64.23,27.95l.02,2.26c.02,2.43.04,4.84.1,7.27.16,6.95.36,13.9.62,20.85l.1,2.64,93.77-.09v-2.74c-.03-25.78-.11-49.04-.84-72.55-.03-.72-.01-1.61,0-2.61.07-5.36.17-12.03-3.43-14.94-2.77-2.23-6.49-2.09-9.26-2.03l-.88.02c-6.2.06-12.4.06-18.58.07h-13.24s-21.4-.01-21.4-.01c-4.26,0-8.51.02-12.77.04-3.53.02-7.52.04-11.3,2.52-3.9,2.53-3.49,8.95-3.51,12.96"/>
      <path class="cls-22" d="M814.17,586.18c0,1.13-.76,2.05-2.9,2.05l-98.29.09c-2.15,0-2.91-.92-2.91-2.05v-8.45c-.01-1.14.75-2.05,2.9-2.06l98.29-.09c2.14,0,2.91.92,2.91,2.05v8.46"/>
      <path class="cls-10" d="M814.16,579.38h-95.13c.01-1.21.03-2.41.04-3.63l92.18-.08h.01c2.13,0,2.9.92,2.9,2.05v1.66"/>
      <path class="cls-9" d="M715.38,672.16c-2.17,1.45-2.08,7.24-2.06,11.63.03,4.9.23,5.95.27,10.85.08,10.43.16,20.86.26,31.29.03,2.98.04,5.97.1,8.95.15,6.54.34,13.09.57,19.64l80.77-.08c-.02-22.79-.07-45.59-.77-68.36-.1-3.73.7-12.21-2.2-14.63-1.98-1.65-5.27-1.36-7.67-1.33-5.83.07-11.66.07-17.49.06-1.53,0-3.05,0-4.58,0-8.5.01-17,0-25.5,0-4.24,0-8.49.01-12.73.04-3.11.01-6.17.06-8.97,1.95"/>
      <path class="cls-4" d="M785.99,751.87c-4.46-7.84-9.59-15.54-14.81-23.14h9.29c4.74,7.15,9.33,14.4,13.57,21.84v1.29h-8.05M768.52,724.86c-3.32-4.8-6.62-9.57-9.77-14.3-.65-.97-1.29-1.95-1.94-2.92v-8.57h3.66c5.71,8.63,11.65,17.16,17.43,25.79h-9.38M752.93,701.79c-.6-.91-1.2-1.81-1.8-2.72h1.8s0,2.72,0,2.72M748.59,695.2c-4.86-7.41-9.64-14.86-14.24-22.44h9.04c3.17,4.92,6.35,9.84,9.54,14.75v7.68s-4.33,0-4.33,0M756.8,695.19v-1.73c.38.58.76,1.15,1.13,1.73h-1.13"/>
      <path class="cls-4" d="M768.16,751.89c-3.69-5.8-7.48-11.53-11.32-17.22v-5.92s8.22,0,8.22,0c5.24,7.6,10.56,15.29,15.22,23.14h-12.12M752.96,728.95c-.05-.07-.09-.14-.14-.21h.14v.21M750.17,724.88c-5.89-8.59-11.82-17.14-17.6-25.79h12.71c2.55,3.86,5.11,7.73,7.67,11.6v14.19s-2.78,0-2.78,0M756.83,724.87v-8.3c.04.07.09.14.13.21,1.77,2.69,3.59,5.38,5.44,8.08h-5.57M730,695.21c-3.56-5.38-7.04-10.79-10.42-16.29-.04-1.98-.09-3.97-.13-5.95,1.19-.16,2.51-.18,3.95-.18,1.72-.01,3.45-.02,5.19-.02,4.55,7.59,9.31,15.04,14.15,22.43h-12.74"/>
      <path class="cls-22" d="M714.12,672.17l-1.41-2.17c-.54.35-.96.78-1.3,1.23-.59.79-.94,1.64-1.21,2.5-.39,1.29-.56,2.67-.67,4.07-.1,1.41-.13,2.84-.13,4.2,0,.63,0,1.23.01,1.8h0c.01,2.48.07,4.03.13,5.52.07,1.49.13,2.93.14,5.34.09,10.43.17,20.86.27,31.3.03,2.97.04,5.97.11,8.99h0c.16,6.55.34,13.1.58,19.66l.09,2.49,88.47-.08v-2.58c-.02-22.79-.08-45.61-.8-68.44,0-.24-.01-.54-.01-.85,0-1.02.04-2.35.04-3.78,0-1.99-.06-4.17-.43-6.24-.19-1.03-.44-2.04-.87-3.02-.21-.48-.47-.95-.79-1.41-.32-.45-.71-.89-1.17-1.26h0c-.58-.47-1.21-.82-1.84-1.08-.94-.4-1.89-.6-2.81-.72-.91-.11-1.79-.14-2.6-.14-.86,0-1.66.03-2.31.04-5.64.06-11.29.07-16.95.07h-5.82c-2.81,0-5.63,0-8.43,0-5.96,0-11.93,0-17.9-.01h-1.06c-4.03,0-8.06.02-12.1.04-1.61.01-3.34.01-5.15.3-1.81.29-3.71.89-5.52,2.07h.01s1.41,2.16,1.41,2.16l1.41,2.16c1.09-.71,2.21-1.08,3.52-1.3,1.29-.21,2.75-.23,4.36-.24,4.02-.02,8.04-.03,12.06-.03h1.06c5.96,0,11.93,0,17.9,0,2.82,0,5.63,0,8.44,0h5.81c5.66,0,11.32,0,17.01-.06.76-.01,1.52-.04,2.25-.04.93,0,1.81.05,2.52.19.35.06.66.16.91.26s.44.22.59.34c.04.04.11.1.19.22.15.2.34.58.49,1.09.24.76.43,1.81.52,2.97.1,1.15.13,2.41.13,3.63,0,1.35-.04,2.65-.04,3.78,0,.35,0,.69.01,1.02.71,22.73.78,45.5.79,68.29h2.58v-2.58l-83.4.08v2.58l2.58-.1c-.24-6.53-.43-13.06-.58-19.6h0c-.08-2.95-.09-5.93-.11-8.92-.1-10.43-.18-20.86-.27-31.29-.02-2.48-.08-4.03-.15-5.51s-.12-2.92-.13-5.33h0c-.01-.58-.01-1.18-.01-1.78,0-1.97.06-4.02.3-5.54.13-.77.3-1.39.46-1.76.08-.19.16-.31.2-.36l.03-.04-.17-.17.14.2.04-.03-.17-.17.14.2h0l-1.41-2.16"/>
      <path class="cls-22" d="M713.33,699.1l83.08-.07v-3.88s-83.09.08-83.09.08v3.87"/>
      <path class="cls-22" d="M713.36,728.78l83.08-.07v-3.88l-83.08.07v3.87"/>
      <path class="cls-22" d="M752.91,670.76l.07,83.07h3.88s-.08-83.07-.08-83.07h-3.87"/>
      <path class="cls-22" d="M804.02,761.89c0,1.07-.72,1.94-2.74,1.94l-92.72.09c-2.03,0-2.74-.86-2.74-1.94v-7.98c-.01-1.06.71-1.93,2.73-1.93l92.72-.08c2.02,0,2.74.86,2.74,1.93v7.97"/>
      <path class="cls-10" d="M804.02,756.05h-82.28c-.04-1.33-.08-2.67-.12-3.99l79.66-.07h0c2.02,0,2.74.86,2.74,1.93v2.14"/>
      <path class="cls-9" d="M838.98,671.48c-2.16,1.45-2.87,8.91-3.32,15.07-.36,4.89-4.14,60.74-3.91,67.29l82.07-.08c1.72-22.71,5.16-44.26,6.18-67.84.17-3.72,1.81-12.73-1.09-15.15-1.98-1.65-8.24-1.36-10.63-1.33-5.82.07-11.65.07-17.47.07h-4.61c-8.5.01-17.01,0-25.5-.01-4.24,0-8.49.01-12.74.04-3.11.02-6.16.06-8.97,1.95"/>
      <path class="cls-4" d="M904.55,751.19c-7.54-14.14-13.25-27.84-22.19-41.3-1.34-2.02-2.68-4.03-4.02-6.04l.79-13.01c1.19,1.83,2.39,3.65,3.58,5.47,11.73,17.89,19.79,35.26,30.04,53.9-.02.32-.04.65-.06.98h-8.14M874.79,698.48c-5.74-8.71-11.41-17.47-16.84-26.4h2.17c2.29,0,4.58,0,6.86.01,2.85,4.43,5.73,8.86,8.59,13.3l-.79,13.09"/>
      <path class="cls-4" d="M886.69,751.21c-3.49-5.57-6.88-11.08-10.2-16.56l1.36-22.67c.9,1.37,1.81,2.74,2.71,4.12,7.56,11.51,11.77,23.11,18.29,35.09h-12.17M872.96,728.82c-11.09-18.41-21.62-36.56-32.89-55.7.8-.38,1.64-.61,2.57-.77,1.29-.21,2.75-.23,4.36-.24,1.72,0,3.46-.01,5.19-.02,7.03,11.73,14.57,23.13,22.11,34.52l-1.34,22.21"/>
      <path class="cls-22" d="M837.72,671.48l-1.41-2.16c-.54.35-.96.78-1.31,1.24-.59.79-.94,1.65-1.2,2.52-.39,1.3-.57,2.69-.67,4.1-.1,1.42-.13,2.86-.13,4.22,0,.59,0,1.17.01,1.72v.49c0,2.21-.09,3.82-.19,5.5-.11,1.68-.24,3.45-.33,5.86h0c-.11,2.81-.36,7.43-.67,12.88-.47,8.17-1.1,18.21-1.61,26.92-.27,4.35-.5,8.38-.69,11.67-.18,3.29-.3,5.84-.34,7.32l-.07,2.66,88.49-.08.14-2.44c1.21-22.73,3.11-42.67,4.86-65.52.14-1.79.33-3.66.49-5.52.16-1.86.29-3.69.29-5.43,0-1.64-.11-3.19-.48-4.66-.19-.73-.44-1.45-.82-2.14-.38-.68-.89-1.33-1.55-1.86h0c-.58-.47-1.21-.82-1.84-1.08-.94-.4-1.89-.6-2.8-.71s-1.79-.14-2.6-.14c-.86,0-1.66.03-2.31.04h.01c-5.76.06-12.53.06-18.78.06h-33.2c-4.01,0-8.02.01-12.02.03-1.61.01-3.33.02-5.15.31-1.81.28-3.71.89-5.52,2.06h0l1.41,2.16,1.42,2.16c1.09-.71,2.21-1.08,3.51-1.29,1.29-.21,2.76-.23,4.36-.24,4-.02,7.99-.03,11.99-.03h1.14c5.97,0,11.93,0,17.9,0h8.43c1.35,0,2.76,0,4.21,0h1.52c6.26,0,13.04,0,18.83-.06h0c.75-.01,1.51-.04,2.25-.04.92,0,1.81.05,2.51.19.35.07.66.16.91.27.25.1.44.22.59.34.06.05.16.15.27.35.17.3.35.84.47,1.58.13.74.18,1.68.18,2.72,0,1.48-.11,3.19-.27,4.99-.15,1.8-.35,3.69-.49,5.57-1.76,22.79-3.65,42.78-4.88,65.64l2.58.14v-2.58s-83.4.08-83.4.08v2.58l2.58.07c.03-.9.09-2.34.18-4.17.33-6.39,1.02-17.54,1.67-28.32.65-10.78,1.27-21.2,1.47-26.24h0c.09-2.32.22-4.01.33-5.73.11-1.73.19-3.49.19-5.83v-.52c0-.55,0-1.12,0-1.69,0-1.98.05-4.05.3-5.6.13-.77.29-1.4.46-1.78.09-.19.16-.31.2-.36l.03-.04-.17-.17.14.2.03-.03-.17-.17.14.2.04-.03-.03.02-1.42-2.16"/>
      <path class="cls-22" d="M835.83,698.42l84.18-.07v-3.87s-84.19.07-84.19.07"/>
      <path class="cls-22" d="M831.87,728.1l83.08-.08v-3.87s-83.09.08-83.09.08"/>
      <path class="cls-22" d="M876.51,669.96l-5.01,83.07,3.87.23,5.01-83.08-3.87-.23"/>
      <path class="cls-22" d="M922.53,761.21c0,1.07-.72,1.93-2.74,1.93l-92.72.09c-2.03,0-2.74-.86-2.74-1.93v-7.98c0-1.07.71-1.94,2.73-1.94l92.72-.08c2.02,0,2.74.86,2.74,1.93v7.98"/>
      <path class="cls-10" d="M922.52,754.92h-98.2v-1.59c0-1.07.72-1.94,2.74-1.94l92.72-.08h.01c2.01,0,2.73.86,2.73,1.93v1.68"/>
      <path class="cls-31" d="M181.04,593.11l-98.29-.1c-2.14,0-2.91-.92-2.91-2.05v-4.64c.07,1.06.86,1.9,2.91,1.9l98.29.09c2.15,0,2.92-.92,2.92-2.05v-3.8,8.59c0,1.14-.77,2.05-2.92,2.05"/>
      <path class="cls-31" d="M306.66,591.73l-98.29-.09c-2.14,0-2.91-.92-2.91-2.05v-8.46s.01-.04.01-.06v5.1c0,1.13.76,2.05,2.9,2.05l98.29.09c2.15,0,2.91-.92,2.91-2.05v-5.08s0,.03,0,.05v8.46c-.01,1.13-.78,2.04-2.92,2.04"/>
      <path class="cls-31" d="M311.04,767.31h-.01l-92.85-.09c-2.03,0-2.75-.87-2.74-1.94v-7.98c0-.31.06-.59.19-.84v5.44c0,1.07.72,1.94,2.74,1.94l92.72.09c1.73,0,2.51-.64,2.7-1.48v2.94c0,1.06-.73,1.93-2.74,1.93"/>
      <path class="cls-31" d="M192.66,766.63h0l-92.85-.08c-2.02,0-2.74-.87-2.74-1.94v-7.99c.01-.16.02-.3.05-.45v5.05c0,1.07.72,1.93,2.74,1.93l92.72.09c2.02,0,2.75-.86,2.75-1.93v-5.22c.06.19.09.4.09.61v7.99c0,1.07-.73,1.93-2.75,1.93"/>
      <path class="cls-9" d="M168.42,491.05c2.29,1.55,3.05,9.45,3.53,15.97.38,5.18,4.38,64.4,4.14,71.32l-86.99-.07c-1.83-24.08-5.47-46.93-6.56-71.92-.17-3.94-1.91-13.49,1.16-16.06,2.1-1.75,8.74-1.44,11.28-1.41,7.8.08,15.6.07,23.4.07,9.01,0,18.03,0,27.04,0,4.5,0,8.99,0,13.49.03,3.31.02,6.54.07,9.52,2.07"/>
      <path class="cls-4" d="M98.91,575.55h-8.63c-.02-.35-.04-.7-.06-1.04,4.41-8.02,8.43-15.8,12.49-23.5h8.61c-4.15,8.07-7.98,16.23-12.41,24.54M113.47,546.91h-8.59c4.86-9.15,9.89-18.19,15.76-27.34h5.7s.35,5.8.35,5.8c-1.42,2.13-2.83,4.26-4.26,6.39-3.33,5.02-6.24,10.07-8.96,15.15M130.46,519.67v-.09s.06,0,.06,0c-.02.03-.04.07-.06.09M133.22,515.47h-3.02l-.58-9.68c3.05-4.7,6.08-9.4,9.12-14.1h8.44c.38,0,.75,0,1.13,0-4.88,8.03-9.94,15.93-15.09,23.78M126.09,515.47h-2.78c.85-1.3,1.7-2.59,2.55-3.9l.23,3.9"/>
      <path class="cls-4" d="M117.85,575.56h-12.9c4.53-8.33,8.01-16.48,12.12-24.55h11.17s.42,6.99.42,6.99c-3.53,5.81-7.12,11.65-10.81,17.56M132.4,551.83l-.05-.8h.53c-.16.27-.32.54-.48.8M135.34,546.93h-3.24l-1.13-18.64c1.92-2.9,3.84-5.81,5.75-8.71l14.8.02c-5.39,9.17-10.73,18.24-16.19,27.34M127.99,546.92h-8.77c1.56-2.87,3.24-5.72,5.11-8.57l2.88-4.36.78,12.93M153.93,515.49h-14.52c5.13-7.85,10.17-15.74,14.99-23.79,1.83,0,3.67.02,5.5.03,2.64.02,5.16.03,7.35,1.06-4.53,7.69-8.95,15.24-13.33,22.7"/>
      <path class="cls-22" d="M133.83,575.58l-1.48-24.55,39.47.04c.6,10.02,1.17,19.39,1.42,24.55l-39.41-.04M88.64,550.98l39.6.04,1.48,24.55-39.44-.04c-.48-8.45-1.04-16.53-1.65-24.55M86.12,519.54l40.22.04,1.66,27.35-39.67-.04c-.46-5.89-.93-11.77-1.42-17.77-.26-3.17-.52-6.35-.78-9.58M85.42,492.42c.93-.75,2.88-.84,4.25-.84.49,0,.97.02,1.44.02l.95.03c6.21.06,13.52.06,20.23.06h12.36l1.44,23.78-40.3-.04c-.18-2.29-.36-4.56-.54-6.89-.09-1.21-.21-2.43-.32-3.65-.42-4.47-1.05-11.24.48-12.47M159.91,491.72c3.04.02,5.91.04,8.31,1.6,1.09,1.06,1.06,7.14,1.05,9.73v.31c-.02,3.3.13,5.52.28,7.86.09,1.28.17,2.64.25,4.28l-39.6-.04-1.43-23.78h18.41c4.24,0,8.49.01,12.73.04M130.45,519.57l39.54.04c.32,6.53.95,16.94,1.58,27.36l-39.46-.04-1.65-27.36M178.82,578.28c-.12-4.03-.87-16.41-1.67-29.51-.68-11.24-1.67-22.47-2.14-33.73-.22-5.26-.15-10.51-.29-15.76-.09-3.45-.21-8.39-3.47-10.52-3.79-2.47-7.78-2.49-11.31-2.52-4.26-.02-8.51-.04-12.77-.04l-21.4.02h-13.49c-6.69-.02-13.98-.02-20.18-.08l-.88-.02c-2.76-.06-6.49-.2-9.26,2.03-3.81,3.08-3.17,9.96-2.49,17.23.11,1.19.22,2.39.31,3.56.55,7.07,1.1,13.89,1.65,20.6,1.33,16.35,2.59,31.79,3.52,48.86l.14,2.58,93.81.09-.08-2.82"/>
      <path class="cls-22" d="M79.85,586.18c0,1.13.77,2.05,2.91,2.05l98.29.09c2.15,0,2.92-.92,2.92-2.05v-8.45c.01-1.14-.76-2.05-2.91-2.06l-98.29-.09c-2.14,0-2.91.92-2.91,2.05v8.46"/>
      <path class="cls-10" d="M183.96,578.58h-104.1v-.86c0-1.13.77-2.05,2.9-2.05h.01l98.29.09c2.14,0,2.91.92,2.91,2.05h0v.78"/>
      <path class="cls-9" d="M299.44,491.05c2.29,1.55,2.21,7.68,2.18,12.32-.03,5.2-.25,6.31-.29,11.5-.09,11.06-.17,22.12-.27,33.17-.03,3.17-.04,6.33-.11,9.49-.16,6.94-.36,13.88-.6,20.81l-85.62-.07c.02-24.16.08-48.32.81-72.47.13-3.94-.73-12.94,2.34-15.51,2.1-1.75,5.58-1.44,8.12-1.41,7.8.08,15.6.07,23.4.07,9.01,0,18.03,0,27.04,0,4.49,0,9,0,13.49.03,3.3.02,6.54.07,9.52,2.07"/>
      <path class="cls-4" d="M224.59,575.55h-8.53v-1.38c4.49-7.89,9.35-15.57,14.38-23.16h9.85c-5.53,8.06-10.97,16.22-15.7,24.54M243.11,546.91h-9.95c6.13-9.15,12.42-18.19,18.48-27.34h3.89s0,9.1,0,9.1c-.69,1.03-1.38,2.06-2.06,3.08-3.34,5.03-6.84,10.07-10.35,15.16M259.62,522.47v-2.9h1.92c-.64.97-1.28,1.94-1.92,2.9M264.24,515.47h-4.6v-8.15c3.39-5.2,6.76-10.42,10.13-15.64h8.44c.38,0,.75,0,1.13,0-4.87,8.03-9.94,15.93-15.09,23.78M255.53,515.47h-1.2c.4-.61.8-1.22,1.2-1.84v1.84"/>
      <path class="cls-4" d="M243.49,575.56h-12.85c4.94-8.33,10.58-16.48,16.13-24.54h8.73s0,6.29,0,6.29c-4.08,6.03-8.1,12.1-12.01,18.25M259.6,551.26v-.22h.15c-.05.08-.1.15-.15.22M262.56,546.93h-2.96l.02-15.04c2.71-4.1,5.43-8.2,8.14-12.31l13.46.02c-6.13,9.17-12.42,18.24-18.66,27.34M255.5,546.92h-5.91c1.96-2.86,3.9-5.72,5.77-8.57.05-.07.1-.15.15-.23v8.8M283.94,515.49h-13.51c5.13-7.85,10.17-15.75,14.99-23.79,1.83,0,3.67.02,5.5.03,2.64.02,5.16.03,7.35,1.06-4.59,7.69-9.4,15.24-14.34,22.7"/>
      <path class="cls-22" d="M299.07,575.62l-39.49-.04.03-24.55,40.08.04c-.02,2.14-.04,4.27-.09,6.4-.15,6.05-.32,12.09-.53,18.15M216.13,550.99l39.37.04-.03,24.54-39.42-.04c0-8.42.03-16.55.07-24.54M255.5,546.92l-39.34-.03c.07-9.27.19-18.34.38-27.35l38.99.04-.03,27.35M218.28,492.42c.93-.75,2.88-.84,4.24-.84.49,0,.98.02,1.44.02l.95.03c6.21.06,12.43.06,18.65.06h11.98l-.02,23.78-38.9-.04c.07-3.18.16-6.36.26-9.55.03-.79.01-1.77,0-2.86-.04-2.8-.13-9.37,1.4-10.6M299.72,546.97l-40.12-.04.03-27.36,40.33.04v.47c-.07,8.96-.15,17.93-.23,26.89M290.93,491.72c3.03.02,5.9.04,8.3,1.59,1.36.89,1.01,5.21,1.04,6.56.11,4.99-.24,9.98-.29,14.98v.65s-40.36-.04-40.36-.04l.02-23.78h18.55c4.24,0,8.49.01,12.73.04M302.27,488.77c-3.79-2.47-7.78-2.49-11.3-2.52-4.26-.02-8.51-.04-12.77-.04l-21.4.02h-13.24c-6.19-.02-12.4-.02-18.59-.08l-.88-.02c-2.77-.06-6.49-.2-9.26,2.03-3.6,2.91-3.51,9.58-3.43,14.94.01.99.03,1.89,0,2.61-.73,23.52-.82,46.77-.84,72.55v2.74l93.78.09.09-2.64c.25-6.95.45-13.9.62-20.85.06-2.42.08-4.84.1-7.27l.02-2.26c.09-9.32.16-18.64.24-27.95.05-6.13.36-12.26.34-18.4-.01-4.02.39-10.44-3.5-12.96"/>
      <path class="cls-22" d="M205.47,586.18c0,1.13.77,2.05,2.91,2.05l98.29.09c2.15,0,2.91-.92,2.91-2.05v-8.45c.01-1.14-.76-2.05-2.9-2.06l-98.29-.09c-2.14,0-2.91.92-2.91,2.05v8.46"/>
      <path class="cls-10" d="M309.58,579.38h-104.1v-1.66c0-1.13.77-2.05,2.9-2.05h.01l98.29.09c2.15,0,2.91.92,2.91,2.06v1.56"/>
      <path class="cls-9" d="M304.27,672.16c2.16,1.45,2.08,7.24,2.06,11.63-.03,4.9-.23,5.95-.27,10.85-.08,10.43-.16,20.86-.26,31.29-.03,2.98-.04,5.97-.11,8.95-.15,6.54-.34,13.09-.57,19.64l-80.77-.08c.02-22.79.08-45.59.77-68.36.11-3.73-.7-12.21,2.2-14.63,1.98-1.65,5.27-1.36,7.67-1.33,5.83.07,11.67.07,17.5.06,1.53,0,3.05,0,4.57,0,8.51.01,17.01,0,25.51,0,4.24,0,8.49.01,12.73.04,3.11.01,6.16.06,8.97,1.95"/>
      <path class="cls-4" d="M233.65,751.87h-8.05v-1.3c10.54-18.52,23.27-35.79,34.93-53.58.77-1.17,1.54-2.35,2.31-3.53l-.02,14.18c-.65.97-1.29,1.94-1.94,2.92-8.95,13.47-19.19,27.17-27.23,41.31M266.71,701.79v-14.28c3.2-4.91,6.38-9.83,9.55-14.75h9.03c-5.96,9.83-12.24,19.45-18.58,29.03"/>
      <path class="cls-4" d="M251.48,751.89h-12.12c7.11-11.98,15.76-23.59,23.32-35.1.05-.07.09-.15.14-.21l-.02,18.09c-3.84,5.7-7.64,11.42-11.32,17.22M266.68,728.95l.02-18.27c8.29-12.54,16.63-25.02,24.35-37.91,1.73,0,3.46.01,5.19.02,1.6,0,3.07.03,4.36.24.93.16,1.77.39,2.57.77-11.29,18.95-24.06,36.94-36.49,55.16"/>
      <path class="cls-22" d="M305.53,672.17l-1.41,2.16.13-.2-.17.17.04.03.13-.2-.17.17s.04.05.1.15c.1.18.26.55.39,1.05.2.75.33,1.78.41,2.92.07,1.13.09,2.37.09,3.59,0,.59,0,1.19-.01,1.77h0c-.01,2.42-.07,3.85-.13,5.33s-.13,3.03-.15,5.51c-.08,10.43-.16,20.86-.27,31.29-.03,2.99-.04,5.96-.11,8.91v.02h0c-.16,6.53-.35,13.06-.58,19.59l2.58.1v-2.58s-83.39-.08-83.39-.08v2.58s2.58,0,2.58,0c.02-22.79.08-45.56.79-68.29.01-.32.02-.66.02-1.02,0-1.13-.04-2.43-.04-3.79,0-1.85.07-3.8.35-5.32.14-.76.32-1.4.52-1.84.1-.23.2-.4.28-.51.08-.13.15-.19.19-.22.15-.12.34-.23.59-.34.37-.16.87-.28,1.46-.35.59-.08,1.26-.1,1.95-.1.74,0,1.5.03,2.25.04h.04-.03c5.68.06,11.34.06,17.01.06h5.81c2.81,0,5.63,0,8.44,0,5.97,0,11.93,0,17.9,0h1.06c4.02,0,8.05.01,12.07.03,1.6,0,3.07.03,4.36.24,1.3.21,2.42.58,3.52,1.3l.03.02-.03-.02,1.41-2.16,1.41-2.16c-1.81-1.18-3.71-1.78-5.52-2.07-1.81-.29-3.54-.29-5.15-.3-4.03-.03-8.06-.04-12.1-.04h-1.06c-5.97,0-11.93.01-17.9.01-2.81,0-5.63,0-8.44,0h-5.81c-5.66,0-11.31,0-16.95-.07h0c-.66,0-1.45-.04-2.31-.04-1.09,0-2.28.05-3.53.3-.62.12-1.26.3-1.89.56s-1.26.61-1.84,1.09c-.46.37-.85.81-1.17,1.26-.56.8-.93,1.65-1.2,2.52-.41,1.31-.62,2.68-.74,4.07s-.15,2.78-.15,4.07c0,1.44.04,2.77.04,3.79,0,.32,0,.61-.02.85-.71,22.83-.77,45.65-.79,68.44v2.58s88.46.08,88.46.08l.09-2.49c.23-6.56.43-13.11.58-19.67h0c.07-3.02.08-6.02.11-8.99.1-10.43.18-20.87.27-31.3.02-2.41.08-3.84.14-5.34.06-1.49.13-3.04.14-5.52h0c0-.56.01-1.17.01-1.79,0-2.07-.04-4.31-.38-6.37-.17-1.04-.41-2.04-.82-3.01-.21-.47-.47-.95-.81-1.4-.34-.45-.77-.88-1.3-1.23h0s-1.41,2.17-1.41,2.17"/>
      <path class="cls-22" d="M306.32,695.23l-83.08-.08v3.88s83.08.07,83.08.07"/>
      <path class="cls-22" d="M306.29,724.91l-83.08-.07v3.88s83.08.07,83.08.07"/>
      <path class="cls-22" d="M262.86,670.76l-.07,83.07h3.88s.07-83.07.07-83.07h-3.88"/>
      <path class="cls-22" d="M215.62,761.89c0,1.07.72,1.94,2.74,1.94l92.72.09c2.02,0,2.74-.86,2.74-1.94v-7.98c.01-1.06-.71-1.93-2.73-1.93l-92.72-.08c-2.02,0-2.74.86-2.74,1.93v7.97"/>
      <path class="cls-30" d="M215.62,756.05v-2.14s0,2.14,0,2.14"/>
      <path class="cls-10" d="M313.84,756.05h-98.21v-2.14c0-1.07.73-1.93,2.74-1.93h0l92.72.08c2.02,0,2.74.87,2.74,1.93v2.05"/>
      <path class="cls-9" d="M180.66,671.48c2.17,1.45,2.88,8.91,3.33,15.07.36,4.88,4.14,60.74,3.91,67.29l-82.06-.08c-1.73-22.71-5.17-44.26-6.19-67.84-.16-3.72-1.8-12.73,1.1-15.15,1.97-1.65,8.23-1.36,10.63-1.33,5.82.06,11.64.06,17.46.06h4.61c8.51.02,17.01,0,25.51,0,4.24,0,8.49.01,12.73.04,3.11.02,6.17.06,8.97,1.95"/>
      <path class="cls-4" d="M115.09,751.19h-8.14c-.02-.33-.04-.66-.06-.98,10.26-18.64,18.31-36.01,30.04-53.9,1.2-1.82,2.39-3.64,3.58-5.47l.78,13.01c-1.33,2.01-2.67,4.03-4.01,6.04-8.95,13.47-14.67,27.17-22.2,41.31M144.85,698.48l-.79-13.1c2.88-4.42,5.73-8.85,8.6-13.29,2.29,0,4.57,0,6.86,0h2.17c-5.42,8.93-11.09,17.69-16.84,26.4"/>
      <path class="cls-4" d="M132.96,751.2h-12.17c6.52-11.98,10.73-23.59,18.3-35.1.9-1.38,1.8-2.74,2.71-4.11l1.37,22.66c-3.33,5.48-6.72,10.98-10.2,16.56M146.68,728.82l-1.34-22.21c7.54-11.4,15.08-22.79,22.11-34.52,1.73,0,3.46.02,5.19.02,1.6.02,3.06.04,4.36.24.93.15,1.77.39,2.57.77-11.27,19.14-21.8,37.3-32.89,55.7"/>
      <path class="cls-22" d="M181.92,671.48l-1.41,2.16.13-.19-.17.17.04.03.13-.19-.17.17s.04.05.1.15c.11.19.27.56.39,1.07.19.76.33,1.79.41,2.93.07,1.14.09,2.39.09,3.6,0,.58,0,1.17,0,1.73,0,.18,0,.35,0,.52,0,2.34.09,4.1.2,5.83.11,1.72.24,3.42.33,5.73.11,2.89.36,7.52.68,12.98.47,8.18,1.09,18.22,1.62,26.93.26,4.35.49,8.37.68,11.65s.31,5.83.34,7.19l2.58-.07v-2.58l-83.39-.08v2.58l2.58-.14c-1.23-22.86-3.13-42.85-4.88-65.64-.15-1.88-.34-3.77-.49-5.57s-.27-3.51-.27-4.99c0-1.4.11-2.58.32-3.39.1-.41.23-.71.34-.91.11-.2.2-.3.27-.35.15-.12.34-.23.59-.34.36-.16.87-.28,1.46-.36.59-.07,1.26-.1,1.95-.1.74,0,1.5.03,2.25.04h.04-.03c5.79.06,12.57.06,18.83.06h1.52c1.44,0,2.85,0,4.2,0h8.44c5.96,0,11.93,0,17.9,0h1.13c4,0,7.99.01,11.99.03,1.6.02,3.06.04,4.36.24,1.3.21,2.42.58,3.52,1.29l1.41-2.16,1.41-2.16c-1.81-1.18-3.71-1.78-5.52-2.07-1.81-.29-3.54-.3-5.15-.31-4.01-.02-8.01-.03-12.02-.03h-33.19c-6.26,0-13.03,0-18.78-.06h0c-.66-.01-1.45-.04-2.31-.04-1.09,0-2.29.04-3.53.29-.63.13-1.26.3-1.89.57-.63.26-1.26.61-1.84,1.08-.66.53-1.17,1.19-1.54,1.86-.57,1.03-.87,2.13-1.05,3.26-.19,1.13-.25,2.31-.25,3.54,0,1.73.13,3.57.29,5.43s.35,3.73.49,5.52c1.76,22.85,3.65,42.79,4.87,65.52l.13,2.44,88.49.08-.08-2.66c-.06-1.96-.26-5.86-.55-10.84-.43-7.47-1.04-17.33-1.58-26.4-.54-9.06-1.02-17.33-1.19-21.56-.09-2.41-.23-4.18-.33-5.86-.11-1.68-.19-3.28-.19-5.49v-.49c0-.56.01-1.15.01-1.76,0-2.07-.04-4.32-.37-6.4-.17-1.04-.41-2.04-.82-3.01-.21-.48-.47-.95-.81-1.41-.34-.45-.77-.88-1.3-1.23h0s-1.41,2.16-1.41,2.16"/>
      <path class="cls-22" d="M183.81,694.55l-84.18-.07v3.87l84.18.07"/>
      <path class="cls-22" d="M187.78,724.23l-83.08-.08v3.87s83.08.08,83.08.08"/>
      <path class="cls-22" d="M139.26,670.19l5.02,83.07,3.86-.23-5.02-83.07-3.86.23"/>
      <path class="cls-22" d="M97.11,761.21c0,1.07.72,1.93,2.74,1.93l92.72.09c2.02,0,2.75-.86,2.75-1.93v-7.98c0-1.07-.72-1.94-2.74-1.94l-92.72-.08c-2.02,0-2.74.86-2.74,1.93v7.98"/>
      <path class="cls-10" d="M195.32,754.92h-98.21v-1.68c0-1.06.72-1.93,2.73-1.93h.01l92.72.08c2.02,0,2.74.88,2.74,1.94v1.59"/>
      <path class="cls-25" d="M773.28,817.64c0,1.04-.89,1.88-3.36,1.88h-22.19c-2.47,0-3.36-.84-3.36-1.88v-7.73c0-1.04.89-1.88,3.36-1.88h22.19c2.47,0,3.36.84,3.36,1.88v7.73"/>
      <path class="cls-25" d="M744.37,829.13c0,1.04-.88,1.88-3.35,1.88h-22.19c-2.47,0-3.36-.84-3.36-1.88v-7.73c0-1.04.89-1.88,3.36-1.88h22.19c2.47,0,3.35.84,3.35,1.88v7.73"/>
      <path class="cls-25" d="M909.9,850.05c0,1.04-.89,1.88-3.36,1.88h-22.19c-2.47,0-3.35-.84-3.35-1.88v-7.74c0-1.04.89-1.88,3.35-1.88h22.19c2.47,0,3.36.84,3.36,1.88v7.74"/>
      <path class="cls-25" d="M933.14,810.33c-.43,3.83-.88,7.66-1.31,11.49h-11.21c-2.47,0-3.36-.82-3.36-1.86v-7.74c0-1.04.9-1.89,3.36-1.89h12.53"/>
      <path class="cls-25" d="M880.99,861.54c0,1.04-.89,1.88-3.36,1.88h-22.19c-2.46,0-3.35-.84-3.35-1.88v-7.73c0-1.04.89-1.88,3.35-1.88h22.19c2.47,0,3.36.84,3.36,1.88v7.73"/>
      <path class="cls-25" d="M773.28,839.97c0,1.04-.89,1.88-3.36,1.88h-22.19c-2.47,0-3.36-.84-3.36-1.88v-7.74c0-1.03.89-1.88,3.36-1.88h22.19c2.47,0,3.36.84,3.36,1.88v7.74"/>
      <path class="cls-25" d="M286.85,828.08c0,1.04-.89,1.88-3.36,1.88h-22.19c-2.47,0-3.36-.84-3.36-1.88v-7.73c0-1.04.89-1.89,3.36-1.89h22.19c2.47,0,3.36.85,3.36,1.89v7.73"/>
      <path class="cls-25" d="M315.75,838.92c0,1.04-.89,1.88-3.36,1.88h-22.19c-2.47,0-3.35-.84-3.35-1.88v-7.74c0-1.03.89-1.88,3.35-1.88h22.19c2.47,0,3.36.84,3.36,1.88v7.74"/>
      <path class="cls-25" d="M107.56,840.23v7.72c0,1.04-.91,1.89-3.36,1.89h-12.13c-.3-3.83-.6-7.66-.9-11.49h13.03c2.46,0,3.36.85,3.36,1.89"/>
      <path class="cls-25" d="M167.06,847.96c0,1.04-.89,1.88-3.36,1.88h-22.19c-2.47,0-3.36-.84-3.36-1.88v-7.74c0-1.03.89-1.88,3.36-1.88h22.19c2.47,0,3.36.84,3.36,1.88v7.74"/>
      <path class="cls-25" d="M224.32,818.29c0,1.04-.89,1.88-3.36,1.88h-22.19c-2.47,0-3.36-.84-3.36-1.88v-7.74c0-1.03.89-1.88,3.36-1.88h22.19c2.47,0,3.36.84,3.36,1.88v7.74"/>
      <path class="cls-25" d="M136.46,858.8c0,1.04-.89,1.88-3.36,1.88h-22.19c-2.47,0-3.36-.84-3.36-1.88v-7.73c0-1.04.89-1.88,3.36-1.88h22.19c2.47,0,3.36.84,3.36,1.88v7.73"/>
      <path class="cls-8" d="M114.09,620.41c0,1.04-.89,1.88-3.36,1.88h-22.19c-2.47,0-3.35-.83-3.35-1.88v-7.73c0-1.04.89-1.88,3.35-1.88h22.19c2.47,0,3.36.84,3.36,1.88v7.73"/>
      <path class="cls-26" d="M177.69,471.58c0,1.04-.89,1.88-3.36,1.88h-22.19c-2.47,0-3.36-.84-3.36-1.88v-7.73c0-1.04.89-1.88,3.36-1.88h22.19c2.47,0,3.36.84,3.36,1.88v7.73"/>
      <path class="cls-8" d="M85.77,460.09c0,1.04-.89,1.88-3.36,1.88h-22.19c-2.47,0-3.36-.84-3.36-1.88v-7.74c0-1.03.89-1.88,3.36-1.88h22.19c2.47,0,3.36.84,3.36,1.88v7.74"/>
      <path class="cls-8" d="M114.67,471.58c0,1.04-.89,1.88-3.35,1.88h-22.19c-2.47,0-3.35-.84-3.35-1.88v-7.73c0-1.04.89-1.88,3.35-1.88h22.19c2.47,0,3.35.84,3.35,1.88v7.73"/>
      <path class="cls-8" d="M206.6,460.09c0,1.04-.89,1.88-3.36,1.88h-22.19c-2.47,0-3.36-.84-3.36-1.88v-7.74c0-1.03.89-1.88,3.36-1.88h22.19c2.47,0,3.36.84,3.36,1.88v7.74"/>
      <path class="cls-26" d="M142.99,632.34c0,1.04-.89,1.88-3.35,1.88h-22.19c-2.47,0-3.35-.84-3.35-1.88v-7.73c0-1.04.88-1.88,3.35-1.88h22.19c2.47,0,3.35.84,3.35,1.88v7.73"/>
      <path class="cls-26" d="M269.13,608.7c0,1.03-.89,1.88-3.35,1.88h-22.19c-2.47,0-3.36-.84-3.36-1.88v-7.74c0-1.04.89-1.88,3.36-1.88h22.19c2.47,0,3.35.84,3.35,1.88v7.74"/>
      <path class="cls-8" d="M320.77,478.94c0,1.04-.89,1.88-3.35,1.88h-22.19c-2.47,0-3.35-.84-3.35-1.88v-7.73c0-1.04.89-1.88,3.35-1.88h22.19c2.47,0,3.35.84,3.35,1.88v7.73"/>
      <path class="cls-8" d="M269.13,632.34c0,1.04-.89,1.88-3.35,1.88h-22.19c-2.47,0-3.36-.84-3.36-1.88v-7.73c0-1.04.89-1.88,3.36-1.88h22.19c2.47,0,3.35.84,3.35,1.88v7.73"/>
      <path class="cls-8" d="M198.41,652.4c0,1.04-.89,1.89-3.36,1.89h-22.19c-2.47,0-3.36-.84-3.36-1.89v-7.73c0-1.03.89-1.88,3.36-1.88h22.19c2.47,0,3.36.84,3.36,1.88v7.73"/>
      <path class="cls-8" d="M298.03,620.63c0,1.04-.89,1.88-3.35,1.88h-22.19c-2.47,0-3.36-.84-3.36-1.88v-7.73c0-1.04.89-1.88,3.36-1.88h22.19c2.47,0,3.35.84,3.35,1.88v7.73"/>
      <path class="cls-26" d="M771.8,470.56c0,1.04-.89,1.88-3.35,1.88h-22.19c-2.47,0-3.36-.84-3.36-1.88v-7.74c0-1.03.89-1.88,3.36-1.88h22.19c2.47,0,3.35.84,3.35,1.88v7.74"/>
      <path class="cls-8" d="M800.71,458.84c0,1.04-.89,1.88-3.35,1.88h-22.19c-2.47,0-3.36-.84-3.36-1.88v-7.74c0-1.04.89-1.88,3.36-1.88h22.19c2.47,0,3.35.84,3.35,1.88v7.74"/>
      <path class="cls-8" d="M829.61,470.56c0,1.04-.89,1.88-3.36,1.88h-22.19c-2.47,0-3.35-.84-3.35-1.88v-7.74c0-1.03.89-1.87,3.35-1.87h22.19c2.47,0,3.36.84,3.36,1.87v7.74"/>
      <path class="cls-8" d="M968.69,458.84c0,1.04-.89,1.88-3.36,1.88h-22.19c-2.47,0-3.36-.84-3.36-1.88v-7.74c0-1.04.89-1.87,3.36-1.87h22.19c2.47,0,3.36.83,3.36,1.87v7.74"/>
      <path class="cls-8" d="M956.64,603.05c-.41,3.83-.84,7.66-1.29,11.49h-9.69c-2.49,0-3.36-.85-3.36-1.89v-7.72c0-1.04.88-1.89,3.36-1.89h10.97"/>
      <path class="cls-26" d="M943.18,624.72c0,1.03-.89,1.88-3.36,1.88h-22.18c-2.47,0-3.36-.84-3.36-1.88v-7.74c0-1.04.89-1.88,3.36-1.88h22.18c2.48,0,3.36.84,3.36,1.88v7.74"/>
      <path class="cls-26" d="M865.78,610.02c0,1.04-.89,1.88-3.35,1.88h-22.19c-2.47,0-3.36-.84-3.36-1.88v-7.73c0-1.04.89-1.88,3.36-1.88h22.19c2.46,0,3.35.84,3.35,1.88v7.73"/>
      <path class="cls-8" d="M836.87,621.51c0,1.04-.88,1.88-3.35,1.88h-22.19c-2.47,0-3.35-.84-3.35-1.88v-7.74c0-1.04.89-1.87,3.35-1.87h22.19c2.47,0,3.35.83,3.35,1.87v7.74"/>
      <path class="cls-8" d="M865.78,632.35c0,1.04-.89,1.88-3.35,1.88h-22.19c-2.47,0-3.36-.84-3.36-1.88v-7.74c0-1.03.89-1.88,3.36-1.88h22.19c2.46,0,3.35.84,3.35,1.88v7.74"/>
      <path class="cls-8" d="M732.8,642.91c0,1.04-.89,1.88-3.35,1.88h-22.19c-2.47,0-3.36-.84-3.36-1.88v-7.74c0-1.04.89-1.88,3.36-1.88h22.19c2.47,0,3.35.84,3.35,1.88v7.74"/>
      <path class="cls-26" d="M761.71,653.74c0,1.04-.89,1.89-3.36,1.89h-22.18c-2.47,0-3.36-.84-3.36-1.89v-7.73c0-1.03.89-1.88,3.36-1.88h22.18c2.48,0,3.36.84,3.36,1.88v7.73"/>
      <path class="cls-63" d="M724.21,874.14h-55.47s55.47,0,55.47,0h0M976.1,429.83h-.02c.44-4.58.88-9.17,1.35-13.74-.46,4.58-.91,9.16-1.33,13.74"/>
      <path class="cls-31" d="M722.64,786.84h-32.14v-379.52h2.98c22.3,0,44.59,0,66.9,0,20.96,0,41.93,0,62.9,0,19.06,0,38.12.02,57.18.02,16.3,0,32.6.01,48.89.01,12.73,0,25.46,0,38.19-.01,3.61,0,7.23,0,10.85-.01-.33,2.92-.65,5.83-.95,8.75-.47,4.58-.92,9.16-1.35,13.74h-257.71c.89,19.2,1.27,38.45,1.37,57.7-.79.32-1.58.73-2.36,1.24-3.9,2.53-3.49,8.95-3.51,12.96-.01,6.14.3,12.27.35,18.4.07,9.32.15,18.64.24,27.95l.02,2.26c.03,2.42.04,4.84.1,7.27.15,6.05.32,12.1.53,18.15h-2.14c-2.14.01-2.91.93-2.91,2.06v3.37s0,.03,0,.05v8.46c.02,1.13.77,2.04,2.92,2.04h5.93c-.04,4.79-.08,9.59-.09,14.39-.04,9.06-.02,18.11.05,27.17h-11.61c-2.47,0-3.36.84-3.36,1.88v7.74c0,1.04.89,1.88,3.36,1.88h11.73c.08,7.67.21,15.34.36,23.01-.38.04-.74.09-1.13.15-1.8.29-3.71.89-5.51,2.06-.54.35-.96.78-1.3,1.23-.59.79-.94,1.64-1.21,2.5-.39,1.29-.56,2.67-.68,4.07-.1,1.41-.12,2.84-.12,4.19,0,.63,0,1.23.01,1.81h0c0,2.48.07,4.03.13,5.52.07,1.49.13,2.93.14,5.34.09,10.43.18,20.86.27,31.3.03,2.97.04,5.97.11,8.99h0c.13,5.7.3,11.41.49,17.12h-2.01c-2.03,0-2.75.87-2.75,1.93l.02,7.98c0,.16.01.3.04.44v2.95c0,1.06.73,1.93,2.75,1.93h13.47c.19,6.5.39,13.02.57,19.53M712.71,670.01h0s0,0,0,0"/>
      <path class="cls-27" d="M724.22,874.14h-33.71v-87.3h245.31l-2.03,17.78h-210.65c.12,4.97.24,9.93.35,14.9h-4.65c-2.48,0-3.36.83-3.36,1.88v7.73c0,1.04.88,1.88,3.36,1.88h4.88c.28,14.38.46,28.74.5,43.13"/>
      <path class="cls-36" d="M712.98,591.73c-2.14,0-2.91-.92-2.91-2.04v-8.46s0-.03,0-.05v5.08c0,1.14.77,2.05,2.92,2.05h5.96c-.01,1.14-.02,2.27-.03,3.41h-5.93"/>
      <path class="cls-36" d="M708.61,767.31c-2.02,0-2.74-.87-2.74-1.93v-2.95c.18.86.96,1.49,2.69,1.49h13.41c.04,1.11.07,2.25.1,3.38h-13.46s-.01.01-.01.01"/>
      <path class="cls-24" d="M719.69,520.35v-.74h0c0,.25,0,.5,0,.74M719.66,515.51v-.65c-.05-5-.4-9.98-.29-14.98.02-1.07-.2-4.04.41-5.65.01,7.09,0,14.18-.05,21.28h-.06"/>
      <path class="cls-37" d="M715.11,575.75c-.21-6.05-.39-12.09-.53-18.15-.06-2.42-.08-4.84-.1-7.27l-.02-2.26c-.09-9.32-.16-18.64-.23-27.95-.05-6.13-.36-12.26-.35-18.4.01-4.02-.39-10.44,3.51-12.96.78-.51,1.57-.92,2.36-1.24.02,2.24.03,4.47.03,6.7-.6,1.61-.39,4.58-.41,5.65-.11,4.99.24,9.98.29,14.98v.65h.07c0,1.37-.02,2.73-.03,4.1h0v.74c-.13,18.48-.41,36.94-.61,55.4h-3.97"/>
      <path class="cls-37" d="M712.98,588.32c-2.15,0-2.91-.92-2.91-2.05v-5.08s-.01-3.37-.01-3.37v1.56h8.98c-.04,2.98-.07,5.96-.09,8.94h-5.96"/>
      <path class="cls-33" d="M719.04,579.38h-8.97v-1.56c0-1.14.76-2.05,2.9-2.06h6.11c-.01,1.21-.03,2.41-.04,3.62"/>
      <path class="cls-24" d="M715.73,751.94c-.2-5.7-.36-11.41-.49-17.11h0c-.05-2.01-.07-4.02-.09-6.05h5.77c.23,7.71.46,15.43.7,23.15h-5.88M715.11,724.91c-.08-8.6-.16-17.21-.22-25.81h5.18c.22,8.6.47,17.2.72,25.8h-5.68M714.86,695.23c0-.21,0-.41,0-.61-.02-2.48-.08-4.03-.15-5.51s-.12-2.92-.13-5.33h0c-.01-.58-.01-1.18-.01-1.78,0-1.97.06-4.02.3-5.54.13-.77.3-1.39.46-1.76.08-.19.16-.31.2-.36l.03-.03c.3-.2.61-.37.92-.52,1.03,1.72,2.06,3.43,3.11,5.13.12,5.43.25,10.87.39,16.3h-5.11"/>
      <path class="cls-44" d="M719.58,678.93c-1.05-1.7-2.08-3.41-3.11-5.13.81-.38,1.64-.61,2.57-.77.13-.02.27-.04.41-.06.04,1.98.08,3.97.13,5.95"/>
      <path class="cls-37" d="M710.56,752.07c-.2-5.71-.36-11.42-.49-17.13h0c-.08-3.02-.09-6.02-.11-8.99-.1-10.43-.18-20.87-.27-31.3-.02-2.41-.07-3.84-.14-5.34-.06-1.49-.12-3.04-.13-5.52h0c-.01-.57-.01-1.17-.01-1.8,0-1.35.02-2.79.13-4.2.11-1.41.29-2.78.67-4.07.27-.86.61-1.71,1.21-2.5.34-.45.77-.88,1.3-1.23,1.8-1.18,3.7-1.78,5.51-2.06.39-.06.76-.11,1.13-.15.03,1.72.06,3.45.1,5.18-.15.02-.28.04-.41.06-.93.16-1.77.39-2.57.77-.31.15-.61.32-.92.52l-.03.03c-.04.05-.11.17-.2.36-.17.37-.34.99-.46,1.76-.24,1.52-.31,3.57-.3,5.54,0,.6,0,1.19.01,1.77h0c.01,2.42.07,3.85.13,5.33s.13,3.03.15,5.51c0,.2,0,.41,0,.61h-1.54v3.87h1.57c.07,8.6.14,17.2.22,25.81h-1.76v3.87h1.79c.02,2.03.04,4.04.09,6.04h0c.13,5.71.3,11.42.49,17.12h5.88s.01.07.01.12h-11.05M712.71,670h-.01.01"/>
      <path class="cls-37" d="M713.33,699.1v-3.87s1.53,0,1.53,0h5.11c.03,1.29.06,2.57.1,3.87h-6.74"/>
      <path class="cls-37" d="M713.36,728.78v-3.87h7.44c.04,1.29.07,2.58.11,3.87h-7.55"/>
      <path class="cls-37" d="M708.56,763.92c-1.73,0-2.52-.64-2.7-1.49-.03-.14-.04-.29-.04-.44v-7.98s0,2.05,0,2.05h15.93c.08,2.62.16,5.23.23,7.85h-13.41"/>
      <path class="cls-33" d="M721.74,756.05h-15.93v-2.05c0-1.06.72-1.93,2.74-1.93h13.07c.04,1.32.08,2.66.12,3.98"/>
      <path class="cls-27" d="M330.81,804.62H87.76c-.41-3.64-.83-7.27-1.24-10.91.76.06,1.49.07,2.07.07h157.9c6.16,0,12.32,0,18.48,0h17.66c5.54,0,11.07,0,16.6,0h15.1c4.3,0,8.6,0,12.91,0h3.56v10.83"/>
      <path class="cls-63" d="M42.53,412.18c-.02-.19-.04-.38-.06-.57-.02-.14-.03-.28-.04-.42.01.14.03.28.04.42.02.19.04.38.06.57"/>
      <path class="cls-31" d="M330.81,429.83H44.61c-.75-5.97-1.46-11.89-2.08-17.65-.02-.19-.04-.38-.06-.57-.02-.14-.03-.29-.04-.42-.11-1.3-.11-2.58-.01-3.86h288.39v22.5"/>
      <path class="cls-23" d="M723.72,831.01h-4.89c-2.47,0-3.36-.84-3.36-1.88v-7.73c0-1.04.89-1.88,3.36-1.88h4.66c.08,3.83.16,7.66.23,11.49"/>
      <path class="cls-20" d="M718.99,644.78h-11.73c-2.47,0-3.36-.84-3.36-1.88v-7.74c0-1.04.89-1.88,3.36-1.88h11.61c.03,3.84.07,7.67.11,11.49"/>
      <path class="cls-22" d="M1020.17,368.49c-3.47-2.69-28.29-.53-35.96-.53H91.39c-19.53,0-39.06.04-58.59-.04-5.01-.02-10.01-.08-15.01-.08-4.58-.03-12.64-.69-15.04,1.41-3.08,2.68-2.56,4.86-2.59,8.22-.07,8.26-1.17,19.68,3.2,25.59,3.36,4.55,18.21,4.28,24.23,4.28,9.43,0,18.85,0,28.28,0h90.84c19.33,0,38.65,0,57.97,0h63.14c22.36,0,44.71,0,67.07,0,23.44,0,46.89,0,70.32,0h72.59c24.44,0,48.88,0,73.32,0,24.1,0,48.22,0,72.33,0,23.34,0,46.68-.01,70.02-.01,22.3,0,44.6,0,66.9,0,20.96,0,41.93,0,62.9,0,19.06,0,38.11.01,57.18.02,16.3,0,32.6.01,48.9.01,12.73,0,25.45,0,38.18-.01,8.97,0,17.94-.02,26.91-.04,6.07-.02,12.15-.04,18.22-.07,5.47,0,7.6-3.1,7.85-8.11.32-6.25.88-11.43,1.39-17.67.25-2.98,1.11-10.76-1.73-12.96"/>
      <path class="cls-22" d="M351.23,780.76c-.92-.91-7.46-.17-9.49-.17H106.02c-5.16,0-10.31,0-15.46-.02-1.32,0-2.65-.03-3.96-.03-1.21-.01-3.34-.23-3.97.47-.81.9-.67,1.63-.68,2.75-.02,2.77-.31,6.6.85,8.58.89,1.52,4.8,1.43,6.4,1.43h157.31c6.16,0,12.32,0,18.48,0h17.66c5.54,0,11.07,0,16.6,0h15.1c4.3,0,8.6,0,12.91,0h10.08c2.37,0,4.73,0,7.11-.02,1.6,0,3.2-.01,4.81-.03,1.44,0,2.01-1.04,2.07-2.71.09-2.09.24-3.83.37-5.92.06-1.01.29-3.6-.46-4.34"/>
      <path class="cls-22" d="M671,780.76c.91-.91,7.46-.17,9.48-.17h235.72c5.16,0,10.31,0,15.46-.02,1.32,0,2.65-.03,3.97-.03,1.2-.01,3.33-.23,3.97.47.81.9.67,1.63.68,2.75.02,2.77.31,6.6-.85,8.58-.88,1.52-4.8,1.43-6.39,1.43h-157.31c-6.16,0-12.32,0-18.48,0h-17.66c-5.53,0-11.07,0-16.6,0h-15.1c-4.31,0-8.61,0-12.91,0h-10.08c-2.37,0-4.74,0-7.11-.02-1.6,0-3.21-.02-4.81-.03-1.44,0-2.01-1.04-2.07-2.71-.08-2.09-.23-3.83-.36-5.92-.07-1.01-.3-3.6.46-4.34"/>
      <path class="cls-63" d="M978.39,407.33c5.35,0,10.7-.02,16.05-.03,6.07-.02,12.14-.04,18.22-.07,5.47,0,7.6-3.1,7.85-8.11.04-.72.08-1.43.13-2.13h0c-.04.71-.09,1.39-.13,2.13-.25,5.01-2.38,8.11-7.85,8.11-6.08.03-12.15.05-18.22.07-5.35.02-10.7.03-16.05.03M25.35,407.33c-6.86,0-18.97-.22-21.97-4.28-.04-.06-.08-.11-.12-.17.04.06.08.11.12.17,3,4.05,15.11,4.28,21.97,4.28.84,0,1.6,0,2.26,0h14.82-14.82c-.66,0-1.42,0-2.26,0M3.24,402.87s-.01-.01-.01-.02c0,0,0,.01.01.02"/>
      <path class="cls-37" d="M929.34,407.35c-16.29,0-32.59,0-48.89-.01-19.06,0-38.12-.02-57.18-.02-20.97,0-41.94-.01-62.9-.01-22.3,0-44.6,0-66.9,0h-2.97v-10.32h330.14c-.05.7-.09,1.41-.13,2.13-.25,5.01-2.38,8.11-7.85,8.11-6.08.03-12.15.05-18.22.07-5.35.02-10.7.03-16.05.03-3.63,0-7.24.01-10.87.01-12.72.01-25.45.01-38.18.01M146.72,407.33H55.88c-4.48,0-8.97,0-13.46,0h-14.82c-.66,0-1.42,0-2.26,0-6.86,0-18.97-.22-21.97-4.28-.04-.06-.08-.11-.12-.17,0,0,0-.01-.01-.02,0,0-.01-.01-.01-.02-1.14-1.61-1.86-3.64-2.35-5.85h329.93v10.33h-184.09"/>
      <path class="cls-34" d="M690.5,190.73v683.41h-359.68V190.73l179.83-114.71,179.84,114.71"/>
      <path class="cls-28" d="M330.81,301.25v-52.32s.01,0,.02-.01v1.81l-.02-.03v50.55M690.51,293.95s0,0-.01-.01v-47.42s.01,0,.01,0v47.42"/>
      <path class="cls-31" d="M336.36,297.21c-.76-19.94-2.15-38.78-5.53-46.48v-1.81c14.21-9,166.08-114.1,179.78-114.1h.06c14.35.41,153.28,97.74,179.84,111.7v47.42c-57.79-43.03-113.03-76.17-171.34-118.54-1.27-.92-2.67-1.3-4.08-1.3-2.55,0-5.15,1.23-7.14,2.75-61.58,47.03-117.56,81.26-171.59,120.36"/>
      <path class="cls-7" d="M510.66,134.82c14.35.41,153.32,97.76,179.85,111.71l32.52,2.4-212.37-161.86-212.36,161.86h32.51c14.16-8.96,166.63-114.48,179.85-114.11"/>
      <path class="cls-22" d="M339.22,219.55c18.36-12.09,152.29-99.86,170.96-101.34,17.94-1.42,186.32,116.78,212.85,130.72v-37.48L510.66,62.38l-212.36,149.07v37.48c14.16-8.96,27.47-20.53,40.91-29.38"/>
      <path class="cls-5" d="M723.03,221.98c-12.21-9.24-25.01-17.7-37.72-26.3-20.53-13.91-100.63-73.39-121.87-87.08-11.49-7.41-43.54-33.27-51.92-33.27h-.09c-7.42.17-41.17,22.62-50.72,29.3-19.97,13.95-41.37,26.73-60.49,41.73-19.06,14.96-88.62,62.8-101.91,75.27v-10.19L510.66,62.38l212.36,149.07v10.54"/>
      <path class="cls-45" d="M618.92,856.23c3.24-44.06,2.52-137.4,4-175.71,6.08-156.92,0-247.85-111.45-247.85s-113.9,90.93-111.46,247.85c.69,44.38.52,128.31,3.95,175.71h214.96"/>
      <path class="cls-46" d="M632.56,837.16h-12.58c.21-5.1.41-10.52.57-16.15.45-15.27.73-32.21.95-49.15.31-23.65.49-47.3.81-66.44,3.98-.2,7.17-.28,9.36-.28,1.6,0,2.68.04,3.18.12-.7,37-.78,91.69-2.3,131.9M402.84,837.16h-12.77c-.19-4.31-.36-8.75-.52-13.28,2.02-4.24,6.21-11.2,12.14-19.48.3,11.52.67,22.6,1.15,32.77M637.25,620.83h-12.76c.46-56.67-3.2-101.77-17.35-133.58,4.8.71,9.56,1.56,14.29,2.52-16.65-42.78-49.23-65.71-110.03-65.71,107.68,0,127.02,71.24,125.84,196.78M399.73,620.83h-12.75c1.44-125.1,20.43-196.28,123.35-196.78-79.32.39-108.72,43.17-118.68,120.59,4.57-4.03,9.31-7.85,14.2-11.47-4.13,24.98-5.74,54.31-6.13,87.65M510.36,424.06h.09-.09M510.51,424.06h.07-.07M510.72,424.06h.04-.04M510.88,424.06h.03-.03M511.06,424.06h0,0M511.22,424.06h.03-.03"/>
      <path class="cls-38" d="M402.85,837.16h-.01c-.48-10.16-.85-21.24-1.15-32.77h0c.3,11.52.68,22.6,1.16,32.77M620.55,821.01c.45-15.27.73-32.21.95-49.15-.22,16.94-.51,33.88-.95,49.15M624.49,620.83c.46-56.67-3.2-101.77-17.35-133.58,0,0,0,0,0,0,14.15,31.82,17.81,76.92,17.35,133.58M399.74,620.83h-.01c.39-33.34,2-62.67,6.13-87.65-4.12,24.98-5.73,54.31-6.11,87.65"/>
      <path class="cls-22" d="M643.21,854.41c0,1.86-.66,3.37-6.11,3.37h-252.91c-5.45,0-6.07-1.51-6.07-3.37v-13.89c0-1.86.63-3.36,6.07-3.36h252.91c5.45,0,6.11,1.51,6.11,3.36v13.89"/>
      <path class="cls-37" d="M643.21,849.07h-265.09v-8.55c0-1.86.63-3.36,6.07-3.36h252.91c5.45,0,6.11,1.51,6.11,3.36v8.55"/>
      <path class="cls-12" d="M643.21,842.96v-2.44c0-1.86-.66-3.36-6.11-3.36h-252.91c-5.45,0-6.07,1.51-6.07,3.36v2.44h265.09"/>
      <path class="cls-22" d="M658.09,875.03c0,1.86-.73,3.38-6.79,3.38h-281.31c-6.06,0-6.76-1.51-6.76-3.38v-13.88c0-1.86.7-3.37,6.76-3.37h281.31c6.06,0,6.79,1.51,6.79,3.37v13.88"/>
      <path class="cls-37" d="M658.09,869.59h-294.86v-8.45c0-1.86.7-3.37,6.76-3.37h281.31c6.06,0,6.79,1.51,6.79,3.37v8.45"/>
      <path class="cls-12" d="M658.09,863.58v-2.44c0-1.86-.73-3.37-6.79-3.37h-281.31c-6.06,0-6.76,1.51-6.76,3.37v2.44h294.86"/>
      <path class="cls-22" d="M670.44,895.65c0,1.86-.79,3.37-7.36,3.37h-304.88c-6.57,0-7.33-1.51-7.33-3.37v-13.89c0-1.86.76-3.36,7.33-3.36h304.88c6.57,0,7.36,1.51,7.36,3.36v13.89"/>
      <path class="cls-37" d="M670.44,890.34h-319.57v-8.57c0-1.86.76-3.36,7.33-3.36h304.88c6.57,0,7.36,1.51,7.36,3.36v8.57"/>
      <path class="cls-12" d="M670.44,884.21v-2.45c0-1.86-.79-3.36-7.36-3.36h-304.88c-6.57,0-7.33,1.51-7.33,3.36v2.45h319.57"/>
      <path class="cls-16" d="M559.7,688.56h-98.9l10.04,148.59h78.83l10.04-148.59"/>
      <path class="cls-51" d="M543.93,831.92h-26.49v-4.59h23.44l.43-55.59h-23.67l-.42-4.59h30.48l-3.43,60.18h0l-.02.26-.11,2.04h-.04l-.17,2.3"/>
      <path class="cls-51" d="M548.53,758.73h-30.94v-2.15h29.16l2.58-42.32c.75-.15,1.5-.29,2.26-.43l-2.66,40.3h0l-.02.19-.14,2.11h-.05l-.2,2.3"/>
      <path class="cls-51" d="M506.34,758.73h-32.42l-.15-2.15h31.13v-31.26c.62-.2,1.24-.4,1.86-.59l-.42,29.4v4.59M473.67,755.21l-.07-1.07h.01l.06,1.07"/>
      <path class="cls-51" d="M507.19,831.92h-29.13v-4.59h24.53v-55.59h-27.84l-.45-4.59h32.41l.46,60.18h.01v4.59"/>
      <path class="cls-6" d="M504.9,756.58v-60.49h-34.84l3.7,60.49h31.15"/>
      <path class="cls-6" d="M517.44,756.58h29.3l3.7-60.49h-33v60.49"/>
      <path class="cls-6" d="M517.44,769.13v60.49h24.84l3.69-60.49h-28.53"/>
      <path class="cls-6" d="M504.9,769.13h-30.38l3.7,60.49h26.68v-60.49"/>
      <path class="cls-31" d="M388.47,826.45c-.63-50.87-.77-102.35-1.18-137.17-.09-7.22-.16-14.36-.21-21.38h.01c.05,4.63.13,9.33.2,14.08.41,24.87.55,61.64,1.18,97.97.25,15,.59,29.94,1.08,43.93-.49,1.02-.85,1.89-1.08,2.57M622.31,705.42c.16-9.63.35-18.13.61-24.9.17-4.25.33-8.46.47-12.62h0c-.14,4.16-.31,8.37-.47,12.63-.11,2.79-.18,5.85-.27,9.16-.13,4.77-.23,10.05-.33,15.72h-.01M635.12,705.32s-.14-.04-.26-.06c.08-4.18.17-8.14.26-11.82.11-4.21.25-8.04.39-11.46.19-4.72.38-9.38.55-13.98.02,0,.04,0,.05,0-.19,7-.39,14.09-.59,21.28-.14,4.79-.28,10.16-.39,16.05"/>
      <path class="cls-58" d="M401.69,804.39c-.39-15.01-.66-30.76-.85-46.22v-.03c-.39-29.27-.52-57.5-.82-77.6-.06-4.26-.13-8.48-.18-12.64h76.64c6.27,0,12.53,0,18.79,0h38.24c6.18,0,12.36,0,18.54,0h49.94c4.51,0,9.02,0,13.53,0h7.85c-.14,4.16-.3,8.37-.47,12.62-.26,6.77-.45,15.27-.61,24.9-14.03.69-38,2.74-64.24,7.26l1.63-24.11h-98.9l3.69,54.55c-26.57,16.34-49.23,42.3-62.8,61.27"/>
      <path class="cls-17" d="M389.55,823.88c-.49-13.99-.83-28.93-1.08-43.93-.63-36.33-.77-73.1-1.18-97.97-.08-4.74-.15-9.45-.2-14.08h12.74c.05,4.16.11,8.38.18,12.63.48,30.74.55,80.46,1.68,123.87-5.93,8.29-10.11,15.24-12.14,19.48M622.32,705.42c.1-5.68.2-10.96.33-15.72.09-3.31.16-6.37.27-9.16.17-4.26.33-8.47.47-12.63h3.04c2.59,0,5.18,0,7.78,0h.01c.47,0,1.03.04,1.61.08.08,0,.15.01.22.02-.17,4.6-.36,9.26-.55,13.98-.14,3.43-.28,7.25-.39,11.46-.09,3.68-.18,7.65-.26,11.82-.5-.08-1.58-.12-3.18-.12-2.2,0-5.38.08-9.36.28"/>
      <path class="cls-53" d="M401.69,804.39c-1.14-43.41-1.2-93.13-1.68-123.87-.07-4.25-.13-8.47-.18-12.63h.02c.05,4.16.11,8.38.18,12.64.3,20.1.43,48.33.82,77.6v.03c.19,15.46.46,31.22.85,46.22h0"/>
      <path class="cls-51" d="M464.49,743.11l-3.69-54.55h98.9l-1.63,24.11c-2.15.37-4.31.76-6.48,1.16l1.3-19.89h-35.44v27.65c-3.6.99-7.17,2.04-10.69,3.14l.44-30.79h-37.14v4.59h.15l2.44,39.94c-.88.45-1.74.92-2.59,1.39-1.88,1.04-3.73,2.12-5.57,3.24"/>
      <path class="cls-13" d="M549.33,714.27l1.11-18.17h-33v2.45-4.59h35.44l-1.3,19.89c-.76.15-1.51.29-2.26.43"/>
      <path class="cls-13" d="M504.9,725.32v-29.23h-34.84l.15,2.45h-.15v-4.59h37.14l-.44,30.79c-.62.19-1.24.39-1.86.59"/>
      <path class="cls-1" d="M472.65,738.48l-2.44-39.94-.15-2.45h34.84v29.23c-11.55,3.71-22.53,8.07-32.25,13.16"/>
      <path class="cls-1" d="M517.44,721.59v-25.5h33l-1.11,18.17c-10.56,2.01-21.35,4.43-31.89,7.33"/>
      <path class="cls-55" d="M657.89,645.4c0,.11-.05.38-.19.73-1.11,2.23-6.54,5.4-9.19,9.03-1.31,1.8-2.35,3.27-3.2,4.64-.89,1.45-3.36,6.22-3.93,6.97-1.11,1.49-3.54,1.35-5.55,1.21-.59-.04-1.15-.08-1.63-.08-2.59,0-5.18,0-7.78,0-3.64,0-7.27,0-10.9,0-4.51,0-9.03,0-13.53,0h-49.94c-6.18,0-12.36,0-18.54,0h-38.24c-6.26,0-12.53,0-18.79,0h-97.32c-3.23,0-3.67-2.33-4.68-5.03-.41-1.08-.57-1.99-.88-3.07-.71-2.52-2.19-5.96-9.41-14.51-1.64-1.92,7.41-4.98,13.35-5.51.58-.05,1.13-.06,1.61-.06h262.99c5.71,0,15.73,3.13,15.73,5.67"/>
      <path class="cls-29" d="M645.31,659.8h-271.69c-.62-2.19-1.82-5.08-6.87-11.41,1.22.4,2.8.62,4.81.62h278.22c5.24,0,7.58-1.55,8.11-3.61h0c0,.11-.05.38-.19.74-1.11,2.23-6.54,5.4-9.19,9.03-1.31,1.8-2.35,3.27-3.2,4.64"/>
      <path class="cls-22" d="M658.01,644.4c0,2.54-2.17,4.6-8.23,4.6h-278.22c-6.06,0-8.23-2.06-8.23-4.6v-18.96c0-2.54,2.17-4.6,8.23-4.6h278.22c6.06,0,8.23,2.06,8.23,4.6v18.96"/>
      <path class="cls-5" d="M658.01,625.89h-294.69v-.45c0-2.54,2.17-4.6,8.23-4.6h278.22c6.06,0,8.23,2.06,8.23,4.6v.45"/>
      <path class="cls-18" d="M602.99,601.27c-.98-89.83-17.71-140.43-91.36-140.43s-87.46,50.6-90.03,140.43h181.39"/>
      <path class="cls-3" d="M427.65,566.57c.29-3.18.6-6.29.96-9.33,7.06-.52,14.1-1.42,21.13-2.55h26.46v3.98c-16.2,2.52-32.4,5.13-48.55,7.9M484.41,557.42v-2.72h17.98c-5.99.9-11.99,1.81-17.98,2.72M557.47,546.61h-14.97c-.21-.03-.41-.06-.63-.06s-.42.03-.63.06h-49.34c3.67-.7,7.33-1.37,10.99-1.98,29.82-5.02,59.72-9.7,89.76-13.22.7,3.15,1.32,6.41,1.88,9.76-12.35,1.84-24.71,3.65-37.07,5.44"/>
      <path class="cls-3" d="M598.83,597.16h-52.85v-42.46h50.43c1.44,12.92,2.16,27.09,2.42,42.46M537.77,597.16h-53.35v-33.84c17.78-2.73,35.56-5.35,53.35-7.94v41.79M476.21,597.16h-50.37c.29-8.56.71-16.74,1.31-24.55,16.33-2.83,32.68-5.47,49.06-8.03v32.58"/>
      <path class="cls-22" d="M545.98,597.16v-42.46h50.43c1.44,12.92,2.16,27.09,2.42,42.46h-52.85M428.92,554.69h47.28v42.46h-50.37c.52-15.38,1.47-29.55,3.09-42.46M537.77,597.16h-53.35v-42.46h53.35v42.46M511.63,464.93c54.88,0,76.29,29.27,83.76,81.68h-52.89c-.21-.03-.41-.06-.63-.06s-.42.03-.63.06h-60.31c-.21-.03-.41-.06-.63-.06s-.42.03-.63.06h-49.64c8.1-52.41,29.12-81.68,81.58-81.68M511.63,456.73c-74.95,0-91.58,55.26-94.13,144.42-.03,1.11.39,2.19,1.16,2.98s1.83,1.24,2.94,1.24h181.39c1.1,0,2.15-.44,2.92-1.22.78-.78,1.2-1.83,1.19-2.93-.97-89.2-17.28-144.49-95.46-144.49"/>
      <path class="cls-31" d="M406.13,531.55l.02-.06s-.01.05-.02.06M406.14,531.46c10.92-63.88,38.72-98.79,105.32-98.79-66.58,0-94.39,34.91-105.32,98.79M510.33,424.06h.03-.03M510.44,424.06h.06-.06M510.58,424.06h.14-.14M510.76,424.06h.12-.12M510.91,424.06h.16-.16M511.07,424.06h.15-.15M511.25,424.06h.16-.16"/>
      <path class="cls-58" d="M405.86,533.18c.09-.55.18-1.09.27-1.64,0-.02.01-.05.02-.06v-.03c10.93-63.88,38.73-98.79,105.32-98.79h.15c50.83.04,79.72,19.02,95.52,54.58-8.64-1.3-17.4-2.2-26.19-2.71-14.46-18.01-36.41-27.81-69.32-27.81-47.88,0-71.96,22.55-83.77,62.08-7.61,4.37-14.96,9.16-22,14.38"/>
      <path class="cls-17" d="M391.65,544.65c9.96-77.42,39.36-120.21,118.68-120.59h1.07c60.79,0,93.38,22.94,110.03,65.71-4.73-.96-9.49-1.81-14.29-2.52-15.8-35.56-44.68-54.55-95.52-54.58h-.16c-66.6,0-94.4,34.91-105.32,98.79v.03l-.02.06c-.09.54-.18,1.09-.27,1.64-4.9,3.62-9.63,7.44-14.2,11.47"/>
      <path class="cls-53" d="M405.86,533.18c.09-.55.18-1.09.27-1.64-.09.54-.18,1.09-.27,1.64M406.14,531.48v-.03.03M607.14,487.25s0,0,0,0c-15.8-35.56-44.69-54.54-95.52-54.58,50.84.03,79.72,19.02,95.52,54.58M511.62,432.67h-.16.16"/>
      <path class="cls-59" d="M438.29,513.15c11.66-31.24,33.38-48.22,73.33-48.22,26.06,0,44.58,6.61,57.65,19.16-1.79-.03-3.57-.05-5.35-.05-43.45,0-87.35,9.58-125.63,29.1"/>
      <path class="cls-37" d="M427.86,518.81c11.81-39.53,35.89-62.08,83.77-62.08,32.92,0,54.86,9.8,69.32,27.81-3.89-.22-7.78-.37-11.68-.44-13.06-12.55-31.58-19.16-57.65-19.16-39.95,0-61.67,16.98-73.33,48.22-3.53,1.8-7.01,3.69-10.44,5.66"/>
      <path class="cls-43" d="M506.58,388.59c-10.65,0-22.65-2.55-32.53-6.24-35.22-13.13-53.09-45.41-53.98-80.26-.28-10.49.82-22.16,4.44-32.06,11.69-32.06,44.64-52.57,77.6-55.84,1.96-.2,3.98-.29,6.05-.29,8.91,0,18.57,1.71,26.58,4.25,41.6,13.18,62.46,56.76,57.61,98.17-4.79,40.96-44.96,71.85-85.1,72.27-.23,0-.46,0-.68,0M508.05,220.35c-1.92,0-3.81.08-5.63.27-30.52,3.02-61.04,22.02-71.87,51.72-3.35,9.17-4.37,19.97-4.13,29.69.83,32.28,17.39,62.19,50.01,74.34,9.15,3.41,20.26,5.78,30.13,5.78.21,0,.42,0,.63,0,37.19-.38,74.4-28.99,78.84-66.94,4.5-38.36-14.83-78.72-53.36-90.93-7.43-2.35-16.36-3.93-24.61-3.93"/>
      <path class="cls-11" d="M426.43,302.03c.83,32.28,17.39,62.19,50.01,74.34,9.34,3.48,20.73,5.88,30.76,5.77,37.19-.38,74.4-28.99,78.84-66.94,4.5-38.36-14.83-78.72-53.36-90.93-9.16-2.9-20.61-4.62-30.24-3.66-30.52,3.02-61.04,22.02-71.87,51.72-3.35,9.17-4.37,19.97-4.13,29.69"/>
      <path class="cls-47" d="M455.22,357.18l10.16-10.36-2.89-2.84-10.16,10.37,2.89,2.83"/>
      <path class="cls-47" d="M550.59,259.85l10.16-10.37-2.89-2.83-10.16,10.36"/>
      <path class="cls-47" d="M503.75,226.56l.14,14.51,4.05-.04-.14-14.52"/>
      <path class="cls-47" d="M505.14,362.81l.16,14.51,4.04-.04-.15-14.52"/>
      <path class="cls-47" d="M581.92,299.13l-14.53.14.05,4.05,14.52-.15"/>
      <path class="cls-47" d="M445.64,300.52l-14.51.15.04,4.04,14.51-.15-.04-4.05"/>
      <path class="cls-47" d="M561.81,353.23l-10.36-10.16-2.83,2.89,10.36,10.16"/>
      <path class="cls-47" d="M464.47,257.88l-10.37-10.16-2.83,2.89,10.37,10.16,2.83-2.89"/>
      <path class="cls-47" d="M501.3,301.31c.05,2.11,1.14,4.07,3.27,4.86.6.22,1.35.39,2.01.38,2.43-.03,4.87-1.9,5.16-4.38.29-2.52-.96-5.15-3.48-5.96-.61-.18-1.35-.29-1.98-.23-1.99.2-3.98,1.44-4.7,3.38-.22.6-.29,1.31-.27,1.94"/>
      <path class="cls-47" d="M509.15,303.64l-27.44,26.01c-.32.31-.85.3-1.16-.03-.29-.3-.3-.76-.06-1.08l23.42-29.67c1.21-1.54,3.45-1.8,4.98-.59,1.54,1.21,1.8,3.44.59,4.98-.1.13-.22.27-.34.38"/>
      <path class="cls-47" d="M502.99,301.29l2.23-56.71c.02-.46.4-.81.85-.79.43.02.77.36.8.77l3.19,56.67c.11,1.95-1.39,3.63-3.34,3.73-1.95.11-3.63-1.38-3.74-3.33,0-.11-.01-.23,0-.34"/>
      <path class="cls-62" d="M485.37,371.45l-.1-.04c-10.77-4.02-19.68-10.1-26.72-17.62l6.58-6.72c3.33,4.55,7.01,8.89,10.4,13.3,3.12,4.06,6.1,8.02,9.84,11.08M455.86,350.75c-10.59-12.73-16.35-28.99-17.33-46.11l7.15-.07-.04-4.05-7.25.07c-.14-8.8.88-18.44,3.88-26.68,2.67-7.33,7.42-13.93,12.8-19.59l6.27,6.15c-3.01,5.87-5.35,12.06-7.02,18.21-4.98,18.43-4.56,39.66,3.8,57.05,1.63,3.38,3.62,6.57,5.79,9.65l-1.42-1.4-6.63,6.77"/>
      <path class="cls-35" d="M458.54,353.79c-.93-.99-1.82-2.01-2.69-3.04l6.63-6.77,1.42,1.4c.4.57.81,1.13,1.22,1.69l-6.58,6.72"/>
      <path class="cls-62" d="M463.35,256.77l-5.43-5.31c11.78-11.28,25.25-18.06,26.54-18.06.26,0,.02.27-.82.84-8.39,5.66-15.15,13.63-20.29,22.54"/>
      <path class="cls-35" d="M438.53,304.64c-.05-.96-.09-1.93-.12-2.91-.01-.38-.02-.76-.02-1.14l7.25-.07.04,4.05-7.15.07"/>
      <path class="cls-35" d="M461.34,260.47l-6.27-6.15c.93-.98,1.89-1.93,2.85-2.86l5.43,5.31c-.7,1.22-1.37,2.45-2.01,3.7"/>
      <path class="cls-8" d="M413.88,423.28c0,1.04-.89,1.88-3.36,1.88h-22.19c-2.47,0-3.36-.84-3.36-1.88v-7.73c0-1.04.89-1.88,3.36-1.88h22.19c2.47,0,3.36.84,3.36,1.88v7.73"/>
      <path class="cls-26" d="M399.42,305.02c0,1.04-.89,1.88-3.35,1.88h-22.19c-2.47,0-3.35-.84-3.35-1.88v-7.74c0-1.04.89-1.88,3.35-1.88h22.19c2.47,0,3.35.84,3.35,1.88v7.74"/>
      <path class="cls-26" d="M384.97,434.77c0,1.04-.89,1.88-3.36,1.88h-22.19c-2.47,0-3.36-.84-3.36-1.88v-7.74c0-1.03.89-1.88,3.36-1.88h22.19c2.47,0,3.36.84,3.36,1.88v7.74"/>
      <path class="cls-26" d="M690.5,585.41v11.49h-13.76c-2.46,0-3.34-.84-3.34-1.86v-7.74c0-1.04.88-1.89,3.34-1.89h13.76"/>
      <path class="cls-8" d="M673.39,606.52c0,1.04-.89,1.88-3.36,1.88h-22.19c-2.47,0-3.35-.84-3.35-1.88v-7.73c0-1.04.88-1.88,3.35-1.88h22.19c2.47,0,3.36.84,3.36,1.88v7.73"/>
      <path class="cls-8" d="M649.22,696.17v7.74c0,1.04-.88,1.89-3.34,1.89h-11.02c.08-4.05.16-7.9.24-11.49h10.78c2.46,0,3.34.82,3.34,1.86"/>
      <path class="cls-8" d="M678.14,715.41c0,1.04-.89,1.88-3.36,1.88h-22.19c-2.47,0-3.36-.84-3.36-1.88v-7.74c0-1.03.89-1.88,3.36-1.88h22.19c2.47,0,3.36.84,3.36,1.88v7.74"/>
      <path class="cls-8" d="M647.83,785.93v7.74c0,1.04-.91,1.86-3.37,1.86h-10.81c.06-3.8.14-7.66.19-11.49h10.61c2.46,0,3.37.84,3.37,1.89"/>
      <path class="cls-26" d="M676.72,806.15c0,1.04-.89,1.88-3.35,1.88h-22.19c-2.47,0-3.35-.84-3.35-1.88v-7.73c0-1.04.88-1.88,3.35-1.88h22.19c2.47,0,3.35.84,3.35,1.88v7.73"/>
      <path class="cls-8" d="M690.5,784.05v11.49h-11.08c-2.48,0-3.36-.82-3.36-1.86v-7.74c0-1.04.88-1.89,3.36-1.89h11.08"/>
      <path class="cls-26" d="M690.5,740.49v11.49h-11.08c-2.48,0-3.36-.85-3.36-1.89v-7.71c0-1.04.88-1.89,3.36-1.89h11.08"/>
      <path class="cls-8" d="M661.61,319.59c0,1.04-.89,1.88-3.36,1.88h-22.19c-2.46,0-3.35-.84-3.35-1.88v-7.73c0-1.04.89-1.88,3.35-1.88h22.19c2.47,0,3.36.84,3.36,1.88v7.73"/>
      <path class="cls-8" d="M632.71,331.09c0,1.04-.89,1.88-3.36,1.88h-22.19c-2.47,0-3.35-.84-3.35-1.88v-7.73c0-1.04.89-1.88,3.35-1.88h22.19c2.47,0,3.36.84,3.36,1.88v7.73"/>
      <path class="cls-26" d="M615.59,400.3c0,1.04-.89,1.88-3.36,1.88h-22.19c-2.47,0-3.36-.84-3.36-1.88v-7.74c0-1.04.89-1.88,3.36-1.88h22.19c2.47,0,3.36.84,3.36,1.88v7.74"/>
      <path class="cls-8" d="M690.51,331.09c0,1.04-.89,1.88-3.35,1.88h-22.19c-2.47,0-3.36-.84-3.36-1.88v-7.73c0-1.04.89-1.88,3.36-1.88h22.19c2.47,0,3.35.84,3.35,1.88v7.73"/>
      <path class="cls-8" d="M586.67,411.79c0,1.03-.89,1.88-3.35,1.88h-22.19c-2.47,0-3.36-.85-3.36-1.88v-7.74c0-1.03.89-1.88,3.36-1.88h22.19c2.47,0,3.35.84,3.35,1.88v7.74"/>
      <path class="cls-8" d="M413.88,445.61c0,1.04-.89,1.88-3.36,1.88h-22.19c-2.47,0-3.36-.83-3.36-1.88v-7.73c0-1.04.89-1.88,3.36-1.88h22.19c2.47,0,3.36.84,3.36,1.88v7.73"/>
      <path class="cls-8" d="M374.16,698.83c0,1.04-.89,1.88-3.36,1.88h-22.19c-2.47,0-3.35-.84-3.35-1.88v-7.74c0-1.04.89-1.88,3.35-1.88h22.19c2.47,0,3.36.84,3.36,1.88v7.74"/>
      <path class="cls-8" d="M345.27,702.58v7.74c0,1.04-.91,1.89-3.37,1.89h-11.08v-11.49h11.08c2.46,0,3.37.82,3.37,1.86"/>
      <path class="cls-26" d="M374.16,721.16c0,1.04-.89,1.88-3.36,1.88h-22.19c-2.47,0-3.35-.84-3.35-1.88v-7.74c0-1.04.89-1.88,3.35-1.88h22.19c2.47,0,3.36.84,3.36,1.88v7.74"/>
      <path class="cls-8" d="M374.16,566.94c0,1.04-.89,1.88-3.36,1.88h-22.19c-2.47,0-3.35-.84-3.35-1.88v-7.73c0-1.04.89-1.88,3.35-1.88h22.19c2.47,0,3.36.84,3.36,1.88v7.73"/>
      <path class="cls-8" d="M388.25,766.62c.06,3.83.11,7.66.19,11.49h-12.64c-2.48,0-3.36-.82-3.36-1.86v-7.74c0-1.04.88-1.89,3.36-1.89h12.45"/>
      <path class="cls-8" d="M377.53,568.17h11.52c-.3,3.74-.55,7.58-.74,11.49h-10.78c-2.46,0-3.36-.85-3.36-1.89v-7.74c0-1.02.91-1.86,3.36-1.86"/>
      <path class="cls-54" d="M344.43,874.14h-13.63.02s13.61,0,13.61,0h0"/>
      <path class="cls-57" d="M330.81,874.14h.02v-69.52h-.02v69.52Z"/>
      <path class="cls-39" d="M330.82,780.59h-.02v-350.76h.02v350.76"/>
      <path class="cls-64" d="M330.82,367.96h-.02v-66.71s.01-.01.02-.01v66.72"/>
      <path class="cls-15" d="M330.82,804.62h-.02v-10.83h.02v10.83"/>
      <path class="cls-42" d="M330.82,429.83h-.02v-22.5h.02v22.5"/>
      <path class="cls-5" d="M330.82,397h-.02v-29.04h.02v29.04"/>
      <path class="cls-5" d="M330.82,793.79h-.02v-13.2h.02v13.2"/>
      <path class="cls-50" d="M330.82,407.33h-.02v-10.33h.02v10.33"/>
      <path class="cls-39" d="M344.43,874.14h-13.61V301.24c1.84-1.35,3.68-2.69,5.53-4.02.76,20.14.86,41.38,1.69,53.37,2.82,40.95,2.51,139.02,2.71,154.47.88,67.77,1.53,131.98,2.11,195.71-.29-.03-.61-.05-.97-.05h-11.08v11.49h11.08c.4,0,.76-.02,1.08-.07.48,53.61.93,106.99,1.45,162"/>
      <path class="cls-65" d="M330.81,301.25v-50.55l.02.03v50.51s-.01.01-.02.01"/>
      <path class="cls-42" d="M330.82,301.24v-50.51c3.38,7.7,4.78,26.55,5.53,46.49-1.85,1.33-3.69,2.67-5.53,4.02"/>
      <path class="cls-41" d="M341.9,712.21h-11.08v-11.49h11.08c.35,0,.68.02.97.05.04,3.79.07,7.59.11,11.38-.32.05-.68.07-1.08.07"/>
      <path class="cls-40" d="M444.73,52.3c-.92,0-7.32-6.49-17.53-12.98-13.46-8.55-33.54-17.09-56.41-10.81-17.02,4.68-31.38,16.18-48.07,22.03-9.71,3.4-18.4,3.96-28.48,4.44-27.37,1.31-49.92-24.16-51.92-27.47,9.56,20.16,18.18,33.31,14.44,47.93-2.66,10.41-6.74,17.57-14.6,23.91-.82.66,23.26,28.64,51.85,25.15,28.6.91,62.54-29.24,83.89-42.06,15.28-10.04,45.2,1.9,63.06,9.18-1.21-15.65,1.09-26.33,3.77-39.32"/>
      <path class="cls-63" d="M377.89,82.44c.72-.47,1.47-.9,2.25-1.27v.07c-.77.37-1.54.74-2.25,1.2M344.55,40.21c1.85-.99,3.7-1.99,5.56-2.97-1.86.97-3.71,1.97-5.56,2.97M350.12,37.24s.03-.01.04-.02c-.02.01-.03.02-.04.02M350.23,37.18s.01,0,.01,0c0,0,0,0-.01,0M370.88,28.49s.04-.01.05-.02c-.02,0-.04.02-.05.02M370.99,28.47c.06-.02.12-.04.18-.05-.06.02-.12.03-.18.05M371.18,28.41s.08-.02.11-.03c-.04.02-.07.02-.11.03M371.31,28.38s.05-.02.08-.02c-.03,0-.05.01-.08.02M371.44,28.34s.03,0,.04-.01c-.01,0-.03,0-.04.01M371.58,28.31h0,0"/>
      <path class="cls-60" d="M345.72,104.14c1.69-21.65,2.7-42.76-1.17-63.93,1.85-1,3.7-1.99,5.56-2.97,0,0,.01,0,.01,0,.02,0,.03-.02.05-.03.02-.01.04-.03.06-.04,0,0,.01,0,.02,0,6.63-3.47,13.35-6.67,20.55-8.66.03-.01.06-.02.09-.02.02-.01.04-.02.05-.02.02,0,.04,0,.06-.01.06-.02.13-.03.19-.05,0,0,0,0,.01,0,.04,0,.07-.02.11-.03h.02s.05-.01.08-.03c.02,0,.03,0,.05-.01.01,0,.03,0,.04,0,.03-.01.06-.02.1-.03,4.54-1.18,8.96-1.77,13.25-1.91-4.52,17.68-5.85,36.22-4.69,54.77-.78.38-1.53.8-2.24,1.27-8.95,5.38-20.12,13.8-32.18,21.7"/>
      <g class="cls-61">
        <path class="cls-52" d="M234.17,900.85l3.88-879.02h8.21l3.88,879.02h-15.96"/>
      </g>
      <g class="cls-19">
        <path class="cls-56" d="M253.77,11.74c0,6.42-5.2,11.62-11.63,11.62s-11.63-5.2-11.63-11.62S235.72.12,242.15.12s11.63,5.2,11.63,11.63"/>
      </g>
    </g>
  </g>
</svg>