<svg xmlns="http://www.w3.org/2000/svg" xmlns:xlink="http://www.w3.org/1999/xlink" width="1024" zoomAndPan="magnify" viewBox="0 0 768 767.999994" height="1024" preserveAspectRatio="xMidYMid meet" version="1.0"><path fill="#781b20" d="M 746.976562 241.855469 C 746.976562 249.371094 740.871094 255.46875 733.34375 255.46875 L 98.152344 255.46875 C 90.628906 255.46875 84.53125 249.371094 84.53125 241.855469 L 84.53125 236.554688 C 84.53125 229.027344 90.628906 222.921875 98.152344 222.921875 L 733.34375 222.921875 C 740.871094 222.921875 746.976562 229.027344 746.976562 236.554688 L 746.976562 241.855469 " fill-opacity="1" fill-rule="nonzero"/><path fill="#b62b34" d="M 198.222656 486.421875 L 156.269531 197.636719 L 128.953125 197.636719 C 116.53125 197.636719 106.472656 207.699219 106.472656 220.109375 L 106.472656 486.421875 L 198.222656 486.421875 " fill-opacity="1" fill-rule="nonzero"/><path fill="#b62b34" d="M 633.273438 486.421875 L 675.226562 197.636719 L 702.550781 197.636719 C 714.964844 197.636719 725.015625 207.699219 725.015625 220.109375 L 725.015625 486.421875 L 633.273438 486.421875 " fill-opacity="1" fill-rule="nonzero"/><path fill="#40595e" d="M 85.535156 263.609375 L 74.976562 273.367188 L 67.921875 265.730469 L 43.898438 287.9375 L 50.960938 295.566406 L 33.015625 302.433594 L 32.757812 312.421875 L 37.96875 318.058594 L 20.4375 334.261719 L 15.226562 328.636719 L 0.175781 332.792969 L -0.0820312 342.78125 L 43.648438 390.082031 L 59.621094 375.316406 L 59.953125 367.476562 L 63.570312 364.214844 L 73.4375 355.101562 L 77.152344 359.113281 L 97.046875 340.714844 L 100.253906 344.171875 C 106 337.46875 112.023438 331.085938 119.039062 325.710938 L 116.375 322.835938 L 127.441406 312.597656 L 129.285156 310.902344 C 129.285156 310.902344 130.382812 303.375 129.535156 300.914062 C 127.609375 295.207031 123.320312 290.972656 128.421875 286.914062 C 143.738281 274.761719 170.140625 252.535156 187.664062 251.003906 C 187.71875 248.746094 187.957031 247.074219 188.042969 244.179688 C 146.976562 230.355469 85.535156 263.609375 85.535156 263.609375 " fill-opacity="1" fill-rule="nonzero"/><path fill="#647272" d="M 81.957031 299.355469 L 82.835938 266.101562 L 74.976562 273.367188 L 44.175781 277.949219 L 43.898438 287.9375 L 50.960938 295.566406 L 43.730469 298.339844 L 81.957031 299.355469 " fill-opacity="1" fill-rule="nonzero"/><path fill="#2f1d15" d="M 393.835938 592.796875 C 378.554688 577.054688 217.292969 420.117188 214.308594 416.890625 C 213.910156 416.464844 213.042969 416.613281 211.835938 417.164062 C 210.671875 417.929688 209.484375 418.632812 208.265625 419.304688 C 207.742188 419.65625 207.214844 420.042969 206.652344 420.449219 L 206.488281 420.265625 C 203.5 421.839844 200.453125 423.28125 197.429688 424.882812 C 192.542969 427.476562 186.613281 427.652344 183.585938 434.273438 C 180.5625 440.882812 182.453125 444.851562 183.191406 445.671875 C 185.875 448.558594 340.300781 624.585938 352.097656 637.347656 C 364.410156 650.675781 387.777344 633.695312 394.140625 617.273438 C 396.613281 610.898438 398.105469 597.195312 393.835938 592.796875 " fill-opacity="1" fill-rule="nonzero"/><path fill="#647272" d="M 116.976562 322.273438 L 96.960938 321.753906 L 96.445312 341.257812 L 97.046875 340.714844 L 183.585938 434.273438 L 202.417969 418.160156 L 116.375 322.835938 L 116.976562 322.273438 " fill-opacity="1" fill-rule="nonzero"/><path fill="#9bb5b3" d="M 68.179688 255.753906 L 44.175781 277.949219 L 52.871094 287.367188 L 76.886719 265.160156 L 68.179688 255.753906 " fill-opacity="1" fill-rule="nonzero"/><path fill="#9bb5b3" d="M 116.644531 312.847656 L 97.324219 330.71875 L 189.34375 430.234375 L 208.671875 412.351562 L 116.644531 312.847656 " fill-opacity="1" fill-rule="nonzero"/><path fill="#c6d4d3" d="M 200.75 415.496094 L 111.3125 320.179688 L 116.558594 316.054688 L 205.886719 411.253906 C 204.265625 412.507812 202.519531 413.945312 200.75 415.496094 " fill-opacity="1" fill-rule="nonzero"/><path fill="#513428" d="M 214.574219 406.902344 C 211.585938 403.671875 180.773438 432.777344 183.457031 435.683594 C 186.132812 438.570312 340.570312 614.609375 352.355469 627.371094 C 369.433594 645.84375 407.808594 605.984375 392.519531 590.234375 C 377.238281 574.492188 217.554688 410.128906 214.574219 406.902344 " fill-opacity="1" fill-rule="nonzero"/><path fill="#866346" d="M 261.414062 462.132812 L 253.28125 462.132812 L 206.9375 413.9375 C 209.972656 411.660156 212.472656 410.183594 213.734375 410.183594 C 214.019531 410.183594 214.25 410.265625 214.398438 410.425781 C 215.402344 411.511719 234.613281 431.339844 259.949219 457.464844 L 261.414062 462.132812 " fill-opacity="1" fill-rule="nonzero"/><path fill="#5b8188" d="M 33.015625 302.433594 L 38.226562 308.070312 L 20.703125 324.273438 L 15.492188 318.628906 L 0.175781 332.792969 L 43.917969 380.101562 L 59.878906 365.339844 L 56.171875 361.308594 L 73.695312 345.105469 L 77.410156 349.125 L 129.535156 300.914062 C 129.535156 300.914062 121.382812 282.726562 128.695312 276.925781 C 143.996094 264.78125 170.527344 245.710938 188.042969 244.179688 C 185.652344 241.597656 179.6875 235.144531 176.449219 231.636719 C 135.375 217.804688 85.792969 253.613281 85.792969 253.613281 L 33.015625 302.433594 " fill-opacity="1" fill-rule="nonzero"/><path fill="#97b2b7" d="M 50.878906 309.417969 L 40.347656 299.152344 L 85.703125 257.230469 C 85.703125 257.230469 120.535156 232.0625 155.996094 232.0625 C 162.835938 232.0625 169.707031 233.003906 176.347656 235.234375 C 177.335938 236.285156 178.5625 237.625 179.863281 239.023438 C 178.460938 238.867188 177.058594 238.8125 175.675781 238.777344 C 175.222656 238.777344 174.769531 238.765625 174.308594 238.765625 C 164.855469 238.765625 155.285156 240.519531 146.285156 243.175781 C 135.402344 246.402344 124.335938 250.597656 114.246094 255.789062 C 103.65625 261.25 94.046875 268.535156 84.566406 275.664062 C 75.667969 282.351562 56.035156 302.527344 50.878906 309.417969 " fill-opacity="1" fill-rule="nonzero"/><path fill="#29323e" d="M 607.765625 256.925781 L 633.226562 255.949219 L 628.320312 277.480469 L 620.757812 285.042969 L 644.285156 308.566406 L 651.855469 301.003906 L 653.074219 302.222656 L 669.214844 318.351562 C 670.078125 317.476562 723.761719 346.46875 723.761719 346.46875 L 718.855469 368.003906 L 711.285156 375.574219 L 734.8125 399.089844 L 742.382812 391.527344 L 767.84375 390.558594 L 761.527344 412.09375 L 698.03125 475.597656 L 678.011719 454.164062 L 678.933594 444.296875 L 659.878906 425.242188 L 654.484375 430.640625 L 590.09375 366.25 L 590.078125 355.515625 L 571.089844 336.453125 L 565.703125 341.851562 L 544.261719 320.417969 L 544.261719 295.683594 L 607.765625 256.925781 " fill-opacity="1" fill-rule="nonzero"/><path fill="#41220d" d="M 295.085938 661.898438 C 308.355469 648.628906 399.195312 582.007812 474.199219 509.949219 C 559.855469 427.640625 600.644531 381.964844 604.832031 377.953125 L 604.722656 377.84375 C 604.722656 377.84375 629.214844 378.535156 638.125 398.886719 C 642.054688 407.851562 636.789062 409.898438 636.789062 409.898438 C 632.507812 414.335938 587.328125 454.625 505.304688 539.992188 C 433.152344 615.105469 361.078125 702.972656 347.640625 716.417969 C 323.914062 740.144531 286.324219 710.386719 290.023438 683.300781 C 290.785156 677.601562 290.152344 666.820312 295.085938 661.898438 " fill-opacity="1" fill-rule="nonzero"/><path fill="#41220d" d="M 665.867188 300.960938 L 672.753906 307.839844 C 675.097656 305.496094 679.976562 300.628906 684.003906 296.597656 C 688.652344 291.960938 713.664062 305.867188 718.0625 315.953125 C 718.882812 317.855469 716.976562 328.117188 716.246094 328.847656 C 712.796875 332.296875 707.503906 337.589844 705.003906 340.078125 L 707.410156 342.496094 L 665.867188 300.960938 " fill-opacity="1" fill-rule="nonzero"/><path fill="#5a3114" d="M 685.34375 285.585938 C 690.875 280.0625 722.230469 313.1875 717.59375 317.835938 C 712.953125 322.464844 704.957031 330.460938 704.957031 330.460938 L 672.71875 298.230469 C 672.71875 298.230469 679.828125 291.109375 685.34375 285.585938 " fill-opacity="1" fill-rule="nonzero"/><path fill="#5a3114" d="M 606.1875 366.933594 C 617.136719 372.714844 632.859375 387.296875 638.125 398.886719 C 633.863281 403.3125 588.675781 443.625 506.660156 528.980469 C 434.488281 604.105469 362.433594 691.96875 348.988281 705.398438 C 320.269531 734.125 271.253906 684.511719 299.675781 656.085938 C 312.9375 642.828125 400.53125 570.996094 475.554688 498.925781 C 561.203125 416.621094 601.992188 370.953125 606.1875 366.933594 " fill-opacity="1" fill-rule="nonzero"/><path fill="#926614" d="M 527.308594 462.132812 L 525.578125 462.132812 C 525.300781 460.96875 525.003906 459.808594 524.691406 458.65625 C 576.113281 406.882812 605.164062 373.683594 608.300781 370.667969 C 611.472656 371.996094 613.085938 373.128906 615.375 375.519531 L 527.308594 462.132812 " fill-opacity="1" fill-rule="nonzero"/><path fill="#44556b" d="M 633.226562 255.949219 L 625.664062 263.519531 L 649.191406 287.042969 L 656.761719 279.480469 L 690.230469 312.949219 L 626.734375 376.460938 L 594.125 343.859375 L 599.519531 338.464844 L 575.996094 314.929688 L 570.597656 320.324219 L 544.261719 295.683594 L 612.664062 235.390625 L 633.226562 255.949219 " fill-opacity="1" fill-rule="nonzero"/><path fill="#44556b" d="M 594.484375 344.210938 L 657.980469 280.707031 L 723.761719 346.46875 L 716.191406 354.050781 L 739.71875 377.574219 L 747.289062 370.003906 L 767.84375 390.558594 L 704.359375 454.070312 L 682.917969 432.640625 L 688.304688 427.246094 L 664.777344 403.710938 L 659.402344 409.113281 L 594.484375 344.210938 " fill-opacity="1" fill-rule="nonzero"/><path fill="#748196" d="M 644.15625 294.53125 C 635.679688 286.460938 623.664062 273.542969 616.746094 267.335938 C 615.390625 266.121094 620.925781 261.242188 619.265625 257.847656 C 618.011719 255.300781 615.621094 252.453125 613.296875 250.101562 L 616.128906 244.179688 L 628.929688 256.980469 L 622.316406 263.609375 L 648.445312 290.253906 L 644.15625 294.53125 " fill-opacity="1" fill-rule="nonzero"/><path fill="#748196" d="M 684.726562 313.308594 C 665.636719 298.820312 657.742188 303.515625 652.574219 301.394531 C 650.960938 300.730469 647.910156 298.101562 644.15625 294.53125 L 648.445312 290.253906 L 649.773438 291.597656 L 656.394531 284.96875 L 684.726562 313.308594 " fill-opacity="1" fill-rule="nonzero"/><path fill="#464c4e" d="M 370.035156 204.699219 C 370.035156 204.699219 394.871094 144.371094 408.121094 112.175781 C 436.886719 42.320312 443.46875 47.394531 500.371094 70.824219 C 534.734375 84.964844 545.5625 126.777344 541.925781 135.582031 C 538.3125 144.390625 534.863281 152.761719 534.863281 152.761719 C 534.863281 152.761719 480.664062 130.453125 457.230469 120.800781 C 448.765625 117.332031 437.28125 150.246094 437.28125 150.246094 L 370.035156 204.699219 " fill-opacity="1" fill-rule="nonzero"/><path fill="#4b5255" d="M 423.097656 94.839844 C 412.632812 90.53125 400.660156 95.523438 396.355469 106 L 288.019531 369.15625 C 284.820312 376.949219 283.050781 369.617188 283.167969 380.878906 C 285.070312 382.832031 296.496094 394.792969 299.171875 395.898438 C 309.628906 400.195312 321.609375 395.207031 325.914062 384.75 L 434.25 121.582031 C 438.554688 111.125 437.707031 100.851562 423.097656 94.839844 " fill-opacity="1" fill-rule="nonzero"/><path fill="#4b5255" d="M 409.328125 128.304688 C 402.753906 125.59375 395.246094 128.730469 392.546875 135.289062 L 296.441406 368.777344 C 293.730469 375.34375 296.855469 382.851562 303.429688 385.550781 C 309.988281 388.253906 317.496094 385.128906 320.207031 378.5625 L 416.320312 145.089844 C 419.023438 138.503906 415.886719 131.007812 409.328125 128.304688 " fill-opacity="1" fill-rule="nonzero"/><path fill="#464c4e" d="M 525.992188 148.878906 L 528.277344 149.820312 L 530.574219 150.78125 C 531.136719 151 528.96875 153.308594 528.289062 153.019531 C 527.605469 152.753906 527.152344 152.570312 527.152344 152.570312 C 527.152344 152.570312 526.71875 152.375 526.027344 152.097656 C 525.347656 151.8125 525.429688 148.648438 525.992188 148.878906 " fill-opacity="1" fill-rule="nonzero"/><path fill="#464c4e" d="M 521.09375 146.871094 L 523.371094 147.8125 L 525.667969 148.761719 C 526.230469 148.992188 524.054688 151.296875 523.382812 151 C 522.691406 150.714844 522.257812 150.539062 522.257812 150.539062 C 522.257812 150.539062 521.8125 150.363281 521.121094 150.078125 C 520.441406 149.792969 520.523438 146.640625 521.09375 146.871094 " fill-opacity="1" fill-rule="nonzero"/><path fill="#464c4e" d="M 516.1875 144.839844 L 518.476562 145.792969 L 520.761719 146.730469 C 521.324219 146.972656 519.15625 149.269531 518.476562 148.992188 C 517.792969 148.707031 517.339844 148.53125 517.339844 148.53125 C 517.339844 148.53125 516.90625 148.335938 516.214844 148.058594 C 515.535156 147.773438 515.605469 144.609375 516.1875 144.839844 " fill-opacity="1" fill-rule="nonzero"/><path fill="#464c4e" d="M 511.273438 142.832031 L 513.558594 143.78125 L 515.867188 144.710938 C 516.429688 144.941406 514.25 147.25 513.578125 146.972656 C 512.878906 146.6875 512.445312 146.5 512.445312 146.5 C 512.445312 146.5 511.992188 146.316406 511.308594 146.050781 C 510.628906 145.761719 510.71875 142.601562 511.273438 142.832031 " fill-opacity="1" fill-rule="nonzero"/><path fill="#464c4e" d="M 506.375 140.8125 L 508.652344 141.75 L 510.960938 142.691406 C 511.511719 142.933594 509.34375 145.230469 508.664062 144.941406 C 507.980469 144.675781 507.539062 144.492188 507.539062 144.492188 C 507.539062 144.492188 507.09375 144.304688 506.402344 144.019531 C 505.722656 143.742188 505.792969 140.582031 506.375 140.8125 " fill-opacity="1" fill-rule="nonzero"/><path fill="#464c4e" d="M 501.460938 138.792969 L 503.765625 139.730469 L 506.054688 140.671875 C 506.617188 140.902344 504.4375 143.207031 503.765625 142.933594 C 503.074219 142.644531 502.632812 142.472656 502.632812 142.472656 C 502.632812 142.472656 502.1875 142.277344 501.507812 142.011719 C 500.824219 141.722656 500.898438 138.570312 501.460938 138.792969 " fill-opacity="1" fill-rule="nonzero"/><path fill="#464c4e" d="M 496.554688 136.773438 L 498.851562 137.710938 L 501.136719 138.664062 C 501.710938 138.894531 499.542969 141.1875 498.851562 140.914062 C 498.167969 140.636719 497.726562 140.441406 497.726562 140.441406 C 497.726562 140.441406 497.28125 140.265625 496.601562 139.992188 C 495.917969 139.703125 495.992188 136.542969 496.554688 136.773438 " fill-opacity="1" fill-rule="nonzero"/><path fill="#464c4e" d="M 491.65625 134.761719 L 493.945312 135.710938 L 496.230469 136.644531 C 496.804688 136.875 494.625 139.179688 493.945312 138.894531 C 493.261719 138.605469 492.820312 138.421875 492.820312 138.421875 C 492.820312 138.421875 492.375 138.246094 491.683594 137.960938 C 491.011719 137.683594 491.09375 134.523438 491.65625 134.761719 " fill-opacity="1" fill-rule="nonzero"/><path fill="#464c4e" d="M 486.75 132.722656 L 489.039062 133.683594 L 491.324219 134.613281 C 491.898438 134.863281 489.730469 137.148438 489.046875 136.875 C 488.363281 136.597656 487.914062 136.414062 487.914062 136.414062 C 487.914062 136.414062 487.480469 136.238281 486.789062 135.953125 C 486.105469 135.65625 486.1875 132.511719 486.75 132.722656 " fill-opacity="1" fill-rule="nonzero"/><path fill="#464c4e" d="M 481.84375 130.714844 L 484.132812 131.664062 L 486.417969 132.605469 C 486.992188 132.835938 484.8125 135.140625 484.132812 134.863281 C 483.449219 134.566406 483.007812 134.382812 483.007812 134.382812 C 483.007812 134.382812 482.5625 134.207031 481.882812 133.933594 C 481.199219 133.644531 481.28125 130.484375 481.84375 130.714844 " fill-opacity="1" fill-rule="nonzero"/><path fill="#464c4e" d="M 476.949219 128.695312 L 481.523438 130.574219 C 482.085938 130.816406 479.90625 133.121094 479.234375 132.835938 C 478.542969 132.546875 478.109375 132.375 478.109375 132.375 C 478.109375 132.375 477.65625 132.1875 476.984375 131.910156 C 476.300781 131.625 476.367188 128.464844 476.949219 128.695312 " fill-opacity="1" fill-rule="nonzero"/><path fill="#464c4e" d="M 472.03125 126.683594 L 474.328125 127.613281 L 476.617188 128.566406 C 477.179688 128.785156 475.011719 131.089844 474.328125 130.824219 C 473.636719 130.539062 473.203125 130.355469 473.203125 130.355469 C 473.203125 130.355469 472.75 130.167969 472.070312 129.882812 C 471.394531 129.605469 471.46875 126.445312 472.03125 126.683594 " fill-opacity="1" fill-rule="nonzero"/><path fill="#464c4e" d="M 467.125 124.65625 L 469.414062 125.59375 L 471.710938 126.542969 C 472.273438 126.777344 470.105469 129.070312 469.421875 128.785156 C 468.730469 128.519531 468.289062 128.34375 468.289062 128.34375 C 468.289062 128.34375 467.84375 128.148438 467.171875 127.871094 C 466.488281 127.585938 466.5625 124.425781 467.125 124.65625 " fill-opacity="1" fill-rule="nonzero"/><path fill="#464c4e" d="M 442.890625 111.007812 L 464.515625 123.574219 L 466.8125 124.535156 C 467.367188 124.753906 465.199219 127.050781 464.515625 126.777344 C 463.832031 126.488281 463.382812 126.3125 463.382812 126.3125 C 463.382812 126.3125 462.949219 126.128906 462.265625 125.84375 C 461.582031 125.558594 442.316406 110.773438 442.890625 111.007812 " fill-opacity="1" fill-rule="nonzero"/><path fill="#4b5255" d="M 292.253906 360.339844 L 290.953125 363.484375 L 289.660156 366.628906 C 289.347656 367.414062 286.183594 364.425781 286.574219 363.492188 C 286.949219 362.554688 287.207031 361.933594 287.207031 361.933594 C 287.207031 361.933594 287.457031 361.335938 287.835938 360.394531 C 288.222656 359.453125 292.574219 359.566406 292.253906 360.339844 " fill-opacity="1" fill-rule="nonzero"/><path fill="#4b5255" d="M 297.796875 346.867188 L 296.496094 350.011719 L 295.214844 353.164062 C 294.890625 353.929688 291.726562 350.953125 292.113281 350.011719 C 292.503906 349.070312 292.75 348.472656 292.75 348.472656 C 292.75 348.472656 293 347.851562 293.386719 346.921875 C 293.773438 345.980469 298.117188 346.09375 297.796875 346.867188 " fill-opacity="1" fill-rule="nonzero"/><path fill="#4b5255" d="M 303.347656 333.382812 L 302.046875 336.527344 L 300.757812 339.671875 C 300.441406 340.457031 297.269531 337.480469 297.65625 336.527344 C 298.042969 335.597656 298.304688 334.988281 298.304688 334.988281 C 298.304688 334.988281 298.542969 334.378906 298.929688 333.449219 C 299.316406 332.5 303.671875 332.617188 303.347656 333.382812 " fill-opacity="1" fill-rule="nonzero"/><path fill="#4b5255" d="M 308.898438 319.910156 L 306.296875 326.199219 C 305.984375 326.984375 302.832031 323.996094 303.210938 323.054688 C 303.597656 322.132812 303.84375 321.515625 303.84375 321.515625 C 303.84375 321.515625 304.09375 320.90625 304.492188 319.964844 C 304.871094 319.027344 309.214844 319.125 308.898438 319.910156 " fill-opacity="1" fill-rule="nonzero"/><path fill="#4b5255" d="M 314.441406 306.4375 L 313.152344 309.582031 L 311.851562 312.726562 C 311.535156 313.5 308.363281 310.53125 308.75 309.582031 C 309.148438 308.640625 309.398438 308.023438 309.398438 308.023438 C 309.398438 308.023438 309.648438 307.425781 310.023438 306.492188 C 310.421875 305.542969 314.765625 305.652344 314.441406 306.4375 " fill-opacity="1" fill-rule="nonzero"/><path fill="#4b5255" d="M 319.992188 292.953125 L 318.695312 296.101562 L 317.402344 299.253906 C 317.078125 300.027344 313.917969 297.050781 314.304688 296.101562 C 314.683594 295.167969 314.941406 294.550781 314.941406 294.550781 C 314.941406 294.550781 315.1875 293.949219 315.578125 293.011719 C 315.953125 292.070312 320.316406 292.179688 319.992188 292.953125 " fill-opacity="1" fill-rule="nonzero"/><path fill="#4b5255" d="M 325.546875 279.472656 L 324.246094 282.625 L 322.9375 285.78125 C 322.632812 286.546875 319.457031 283.566406 319.855469 282.625 C 320.242188 281.695312 320.492188 281.078125 320.492188 281.078125 C 320.492188 281.078125 320.742188 280.46875 321.128906 279.535156 C 321.515625 278.597656 325.859375 278.699219 325.546875 279.472656 " fill-opacity="1" fill-rule="nonzero"/><path fill="#4b5255" d="M 331.089844 265.988281 L 329.796875 269.132812 L 328.507812 272.289062 C 328.183594 273.054688 325.019531 270.066406 325.417969 269.132812 C 325.792969 268.183594 326.042969 267.585938 326.042969 267.585938 C 326.042969 267.585938 326.300781 266.976562 326.679688 266.054688 C 327.066406 265.105469 331.410156 265.214844 331.089844 265.988281 " fill-opacity="1" fill-rule="nonzero"/><path fill="#4b5255" d="M 336.648438 252.507812 L 334.046875 258.796875 C 333.726562 259.582031 330.570312 256.59375 330.960938 255.660156 C 331.347656 254.722656 331.585938 254.101562 331.585938 254.101562 C 331.585938 254.101562 331.84375 253.503906 332.230469 252.5625 C 332.609375 251.621094 336.960938 251.734375 336.648438 252.507812 " fill-opacity="1" fill-rule="nonzero"/><path fill="#4b5255" d="M 342.191406 239.035156 L 340.902344 242.179688 L 339.601562 245.324219 C 339.285156 246.109375 336.113281 243.109375 336.5 242.179688 C 336.890625 241.238281 337.136719 240.628906 337.136719 240.628906 C 337.136719 240.628906 337.394531 240.019531 337.773438 239.082031 C 338.160156 238.148438 342.515625 238.257812 342.191406 239.035156 " fill-opacity="1" fill-rule="nonzero"/><path fill="#4b5255" d="M 347.734375 225.5625 L 346.433594 228.707031 L 345.152344 231.859375 C 344.828125 232.625 341.667969 229.65625 342.042969 228.707031 C 342.441406 227.765625 342.679688 227.148438 342.679688 227.148438 C 342.679688 227.148438 342.9375 226.558594 343.328125 225.605469 C 343.714844 224.675781 348.058594 224.777344 347.734375 225.5625 " fill-opacity="1" fill-rule="nonzero"/><path fill="#4b5255" d="M 353.285156 212.078125 L 351.984375 215.222656 L 350.703125 218.367188 C 350.371094 219.152344 347.21875 216.164062 347.597656 215.234375 C 347.984375 214.28125 348.242188 213.683594 348.242188 213.683594 C 348.242188 213.683594 348.480469 213.074219 348.878906 212.132812 C 349.265625 211.191406 353.601562 211.304688 353.285156 212.078125 " fill-opacity="1" fill-rule="nonzero"/><path fill="#4b5255" d="M 358.839844 198.597656 L 357.539062 201.75 L 356.246094 204.894531 C 355.921875 205.667969 352.761719 202.699219 353.148438 201.75 C 353.535156 200.808594 353.785156 200.199219 353.785156 200.199219 C 353.785156 200.199219 354.035156 199.601562 354.421875 198.652344 C 354.796875 197.71875 359.160156 197.832031 358.839844 198.597656 " fill-opacity="1" fill-rule="nonzero"/><path fill="#4b5255" d="M 364.378906 185.132812 L 363.082031 188.277344 L 361.789062 191.429688 C 361.476562 192.195312 358.3125 189.207031 358.699219 188.277344 C 359.078125 187.328125 359.328125 186.71875 359.328125 186.71875 C 359.328125 186.71875 359.585938 186.117188 359.972656 185.179688 C 360.351562 184.238281 364.703125 184.355469 364.378906 185.132812 " fill-opacity="1" fill-rule="nonzero"/><path fill="#4b5255" d="M 329.03125 375.472656 L 327.730469 378.628906 L 326.441406 381.773438 C 326.117188 382.546875 330.46875 382.65625 330.847656 381.707031 C 331.246094 380.785156 331.492188 380.175781 331.492188 380.175781 C 331.492188 380.175781 331.734375 379.578125 332.128906 378.628906 C 332.519531 377.675781 329.34375 374.699219 329.03125 375.472656 " fill-opacity="1" fill-rule="nonzero"/><path fill="#4b5255" d="M 334.582031 362.007812 L 333.292969 365.144531 L 331.992188 368.296875 C 331.667969 369.074219 336.011719 369.183594 336.398438 368.253906 C 336.777344 367.300781 337.035156 366.683594 337.035156 366.683594 C 337.035156 366.683594 337.285156 366.085938 337.671875 365.144531 C 338.058594 364.203125 334.898438 361.226562 334.582031 362.007812 " fill-opacity="1" fill-rule="nonzero"/><path fill="#4b5255" d="M 340.125 348.527344 L 338.824219 351.671875 L 337.535156 354.824219 C 337.210938 355.601562 341.566406 355.703125 341.941406 354.769531 C 342.339844 353.828125 342.589844 353.21875 342.589844 353.21875 C 342.589844 353.21875 342.835938 352.621094 343.226562 351.671875 C 343.613281 350.722656 340.441406 347.75 340.125 348.527344 " fill-opacity="1" fill-rule="nonzero"/><path fill="#4b5255" d="M 345.679688 335.042969 L 344.378906 338.1875 L 343.078125 341.34375 C 342.761719 342.117188 347.117188 342.226562 347.496094 341.289062 C 347.882812 340.355469 348.121094 339.746094 348.121094 339.746094 C 348.121094 339.746094 348.378906 339.121094 348.765625 338.1875 C 349.15625 337.265625 345.992188 334.269531 345.679688 335.042969 " fill-opacity="1" fill-rule="nonzero"/><path fill="#4b5255" d="M 351.230469 321.570312 L 349.929688 324.714844 L 348.636719 327.871094 C 348.304688 328.644531 352.648438 328.753906 353.046875 327.824219 C 353.425781 326.875 353.683594 326.265625 353.683594 326.265625 C 353.683594 326.265625 353.933594 325.648438 354.320312 324.714844 C 354.695312 323.785156 351.542969 320.796875 351.230469 321.570312 " fill-opacity="1" fill-rule="nonzero"/><path fill="#4b5255" d="M 356.773438 308.089844 L 355.472656 311.242188 L 354.171875 314.386719 C 353.867188 315.160156 358.210938 315.273438 358.589844 314.332031 C 358.976562 313.398438 359.226562 312.792969 359.226562 312.792969 C 359.226562 312.792969 359.484375 312.183594 359.863281 311.242188 C 360.257812 310.292969 357.085938 307.324219 356.773438 308.089844 " fill-opacity="1" fill-rule="nonzero"/><path fill="#4b5255" d="M 362.324219 294.613281 L 361.023438 297.769531 L 359.722656 300.914062 C 359.402344 301.6875 363.753906 301.800781 364.132812 300.859375 C 364.527344 299.917969 364.769531 299.316406 364.769531 299.316406 C 364.769531 299.316406 365.027344 298.699219 365.414062 297.757812 C 365.792969 296.835938 362.636719 293.839844 362.324219 294.613281 " fill-opacity="1" fill-rule="nonzero"/><path fill="#4b5255" d="M 367.875 281.132812 L 366.574219 284.277344 L 365.285156 287.421875 C 364.960938 288.1875 369.316406 288.308594 369.691406 287.367188 C 370.078125 286.417969 370.328125 285.808594 370.328125 285.808594 C 370.328125 285.808594 370.585938 285.207031 370.964844 284.277344 C 371.363281 283.335938 368.1875 280.347656 367.875 281.132812 " fill-opacity="1" fill-rule="nonzero"/><path fill="#4b5255" d="M 373.417969 267.660156 L 372.128906 270.785156 L 370.828125 273.949219 C 370.511719 274.714844 374.855469 274.824219 375.246094 273.882812 C 375.632812 272.953125 375.871094 272.34375 375.871094 272.34375 C 375.871094 272.34375 376.121094 271.726562 376.515625 270.804688 C 376.894531 269.84375 373.742188 266.875 373.417969 267.660156 " fill-opacity="1" fill-rule="nonzero"/><path fill="#4b5255" d="M 378.96875 254.167969 L 377.679688 257.320312 L 376.378906 260.464844 C 376.046875 261.242188 380.398438 261.351562 380.785156 260.410156 C 381.175781 259.480469 381.421875 258.863281 381.421875 258.863281 C 381.421875 258.863281 381.671875 258.261719 382.070312 257.3125 C 382.457031 256.378906 379.292969 253.402344 378.96875 254.167969 " fill-opacity="1" fill-rule="nonzero"/><path fill="#4b5255" d="M 384.511719 240.695312 L 383.210938 243.847656 L 381.921875 246.992188 C 381.609375 247.757812 385.953125 247.878906 386.339844 246.917969 C 386.734375 245.988281 386.976562 245.378906 386.976562 245.378906 C 386.976562 245.378906 387.234375 244.769531 387.613281 243.847656 C 388 242.898438 384.835938 239.917969 384.511719 240.695312 " fill-opacity="1" fill-rule="nonzero"/><path fill="#4b5255" d="M 390.066406 227.210938 L 388.773438 230.355469 L 387.472656 233.519531 C 387.148438 234.285156 391.503906 234.40625 391.882812 233.453125 C 392.269531 232.515625 392.527344 231.914062 392.527344 231.914062 C 392.527344 231.914062 392.765625 231.296875 393.152344 230.355469 C 393.542969 229.414062 390.386719 226.445312 390.066406 227.210938 " fill-opacity="1" fill-rule="nonzero"/><path fill="#4b5255" d="M 395.617188 213.746094 L 394.316406 216.890625 L 393.023438 220.035156 C 392.691406 220.8125 397.046875 220.914062 397.433594 219.980469 C 397.8125 219.050781 398.078125 218.433594 398.078125 218.433594 C 398.078125 218.433594 398.320312 217.816406 398.714844 216.882812 C 399.09375 215.953125 395.929688 212.964844 395.617188 213.746094 " fill-opacity="1" fill-rule="nonzero"/><path fill="#4b5255" d="M 401.160156 200.265625 L 399.867188 203.417969 L 398.566406 206.5625 C 398.246094 207.328125 402.597656 207.441406 402.984375 206.488281 C 403.363281 205.566406 403.621094 204.949219 403.621094 204.949219 C 403.621094 204.949219 403.871094 204.351562 404.25 203.410156 C 404.644531 202.460938 401.492188 199.492188 401.160156 200.265625 " fill-opacity="1" fill-rule="nonzero"/><path fill="#4e5658" d="M 499.375 175.773438 L 516.695312 184.3125 L 518.984375 185.316406 C 519.527344 185.566406 519.703125 182.410156 519.019531 182.105469 C 518.347656 181.8125 517.902344 181.609375 517.902344 181.609375 C 517.902344 181.609375 500.640625 168.035156 499.964844 167.738281 C 499.285156 167.433594 498.824219 175.511719 499.375 175.773438 " fill-opacity="1" fill-rule="nonzero"/><path fill="#4e5658" d="M 509.59375 181.15625 L 511.855469 182.164062 L 514.121094 183.167969 C 514.683594 183.417969 514.851562 180.246094 514.167969 179.949219 C 513.503906 179.652344 513.0625 179.460938 513.0625 179.460938 C 513.0625 179.460938 512.628906 179.265625 511.945312 178.960938 C 511.273438 178.65625 509.039062 180.910156 509.59375 181.15625 " fill-opacity="1" fill-rule="nonzero"/><path fill="#4e5658" d="M 504.742188 179.007812 L 509.28125 181.019531 C 509.835938 181.257812 510 178.09375 509.316406 177.800781 C 508.644531 177.503906 508.210938 177.300781 508.210938 177.300781 C 508.210938 177.300781 507.769531 177.117188 507.09375 176.804688 C 506.429688 176.5 504.199219 178.75 504.742188 179.007812 " fill-opacity="1" fill-rule="nonzero"/><path fill="#4e5658" d="M 499.902344 176.851562 L 502.171875 177.855469 L 504.421875 178.851562 C 504.984375 179.109375 505.160156 175.945312 504.476562 175.652344 C 503.800781 175.339844 503.359375 175.152344 503.359375 175.152344 C 503.359375 175.152344 502.925781 174.949219 502.242188 174.65625 C 501.570312 174.351562 499.339844 176.59375 499.902344 176.851562 " fill-opacity="1" fill-rule="nonzero"/><path fill="#4e5658" d="M 495.042969 174.691406 L 497.320312 175.699219 L 499.578125 176.703125 C 500.132812 176.960938 500.308594 173.796875 499.632812 173.492188 C 498.960938 173.191406 498.519531 173.003906 498.519531 173.003906 C 498.519531 173.003906 498.085938 172.8125 497.410156 172.507812 C 496.71875 172.195312 494.496094 174.445312 495.042969 174.691406 " fill-opacity="1" fill-rule="nonzero"/><path fill="#4e5658" d="M 490.210938 172.535156 L 492.46875 173.550781 L 494.726562 174.546875 C 495.28125 174.792969 495.457031 171.640625 494.785156 171.34375 C 494.101562 171.039062 493.675781 170.847656 493.675781 170.847656 C 493.675781 170.847656 493.226562 170.652344 492.550781 170.347656 C 491.886719 170.054688 489.648438 172.296875 490.210938 172.535156 " fill-opacity="1" fill-rule="nonzero"/><path fill="#4e5658" d="M 485.359375 170.375 L 487.625 171.382812 L 489.886719 172.394531 C 490.441406 172.644531 490.613281 169.472656 489.933594 169.179688 C 489.257812 168.882812 488.824219 168.6875 488.824219 168.6875 C 488.824219 168.6875 488.382812 168.496094 487.710938 168.191406 C 487.035156 167.894531 484.804688 170.144531 485.359375 170.375 " fill-opacity="1" fill-rule="nonzero"/><path fill="#4e5658" d="M 480.507812 168.226562 L 482.765625 169.234375 L 485.035156 170.246094 C 485.597656 170.488281 485.765625 167.324219 485.089844 167.027344 C 484.417969 166.726562 483.984375 166.53125 483.984375 166.53125 C 483.984375 166.53125 483.542969 166.347656 482.867188 166.035156 C 482.1875 165.738281 479.953125 167.988281 480.507812 168.226562 " fill-opacity="1" fill-rule="nonzero"/><path fill="#4e5658" d="M 475.664062 166.070312 L 477.925781 167.074219 L 480.195312 168.097656 C 480.746094 168.328125 480.914062 165.167969 480.25 164.871094 C 479.566406 164.578125 479.125 164.382812 479.125 164.382812 C 479.125 164.382812 478.691406 164.1875 478.015625 163.882812 C 477.34375 163.589844 475.101562 165.832031 475.664062 166.070312 " fill-opacity="1" fill-rule="nonzero"/><path fill="#4e5658" d="M 470.816406 163.914062 L 473.082031 164.925781 L 475.34375 165.941406 C 475.894531 166.179688 476.070312 163.019531 475.398438 162.722656 C 474.714844 162.425781 474.273438 162.226562 474.273438 162.226562 C 474.273438 162.226562 473.847656 162.03125 473.167969 161.726562 C 472.492188 161.421875 470.261719 163.671875 470.816406 163.914062 " fill-opacity="1" fill-rule="nonzero"/><path fill="#4e5658" d="M 465.964844 161.773438 L 468.222656 162.777344 L 470.492188 163.78125 C 471.046875 164.023438 471.210938 160.859375 470.546875 160.566406 C 469.863281 160.269531 469.429688 160.066406 469.429688 160.066406 C 469.429688 160.066406 468.996094 159.871094 468.324219 159.578125 C 467.640625 159.28125 465.402344 161.523438 465.964844 161.773438 " fill-opacity="1" fill-rule="nonzero"/><path fill="#4e5658" d="M 461.121094 159.605469 L 463.382812 160.621094 L 465.648438 161.625 C 466.210938 161.863281 466.371094 158.710938 465.695312 158.40625 C 465.023438 158.101562 464.589844 157.910156 464.589844 157.910156 C 464.589844 157.910156 464.148438 157.714844 463.464844 157.421875 C 462.800781 157.125 460.570312 159.367188 461.121094 159.605469 " fill-opacity="1" fill-rule="nonzero"/><path fill="#4e5658" d="M 456.28125 157.457031 L 460.800781 159.46875 C 461.351562 159.714844 461.527344 156.554688 460.84375 156.25 C 460.171875 155.953125 459.738281 155.75 459.738281 155.75 C 459.738281 155.75 459.296875 155.566406 458.621094 155.269531 C 457.949219 154.957031 455.71875 157.199219 456.28125 157.457031 " fill-opacity="1" fill-rule="nonzero"/><path fill="#4e5658" d="M 451.429688 155.308594 L 453.699219 156.304688 L 455.957031 157.320312 C 456.511719 157.558594 456.6875 154.40625 456.003906 154.101562 C 455.332031 153.804688 454.886719 153.601562 454.886719 153.601562 C 454.886719 153.601562 454.453125 153.417969 453.78125 153.105469 C 453.097656 152.808594 450.867188 155.058594 451.429688 155.308594 " fill-opacity="1" fill-rule="nonzero"/><path fill="#464c4e" d="M 304.824219 616.136719 C 297.453125 613.105469 293.941406 604.675781 296.976562 597.308594 C 300.007812 589.929688 308.4375 586.414062 315.808594 589.441406 C 323.175781 592.484375 307.054688 605.625 304.824219 616.136719 M 437.097656 293.359375 C 422.5 287.339844 405.789062 294.3125 399.777344 308.898438 L 270.351562 580.789062 C 265.683594 592.125 259.78125 606.09375 268.265625 613.980469 C 270.691406 616.25 293.792969 633.652344 297.058594 634.988281 C 311.65625 640.992188 328.367188 634.027344 334.378906 619.421875 L 452.648438 330.664062 C 458.660156 316.066406 451.695312 299.363281 437.097656 293.359375 " fill-opacity="1" fill-rule="nonzero"/><path fill="#700e17" d="M 429.101562 146.871094 C 429.101562 146.871094 374.71875 168.441406 362.480469 173.539062 C 350.242188 178.640625 341.507812 211.277344 346.148438 213.183594 C 350.804688 215.113281 385.65625 229.25 416.273438 241.855469 C 419.472656 243.164062 420.121094 245.921875 411.304688 267.375 C 402.46875 288.8125 399.90625 289.40625 396.078125 287.828125 C 388.726562 284.804688 370.542969 277.316406 370.542969 277.316406 C 370.542969 277.316406 356.144531 312.285156 349.855469 327.546875 C 343.917969 341.988281 378.722656 348.730469 372.238281 374.109375 L 408.914062 357.914062 L 414.171875 366.519531 C 417.554688 365.558594 429 380.96875 432.570312 382.148438 C 441.679688 385.183594 442.1875 377.90625 442.1875 377.90625 L 520.558594 187.511719 L 429.101562 146.871094 " fill-opacity="1" fill-rule="nonzero"/><path fill="#4e5658" d="M 436.167969 148.144531 L 428.144531 167.621094 L 487.292969 205.652344 L 506.089844 222.648438 L 502.835938 230.578125 L 508.773438 229.257812 L 523.382812 186.894531 L 504.320312 172.515625 L 436.167969 148.144531 " fill-opacity="1" fill-rule="nonzero"/><path fill="#4e5658" d="M 436.167969 148.144531 L 428.144531 167.621094 L 487.292969 205.652344 L 506.089844 222.648438 L 502.835938 230.578125 L 508.773438 229.257812 L 523.382812 186.894531 L 504.320312 172.515625 L 436.167969 148.144531 " fill-opacity="1" fill-rule="nonzero"/><path fill="#222424" d="M 389.511719 270.121094 C 388.515625 272.566406 385.730469 273.726562 383.296875 272.710938 L 326.949219 249.527344 C 324.511719 248.515625 315.835938 239.484375 316.832031 237.050781 L 332.820312 222.75 C 333.828125 220.3125 336.601562 219.152344 339.039062 220.15625 L 388.0625 234.109375 C 390.488281 235.097656 398.984375 247.132812 397.976562 249.574219 L 389.511719 270.121094 " fill-opacity="1" fill-rule="nonzero"/><path fill="#7a898d" d="M 304.601562 593.921875 C 301.566406 601.292969 293.136719 604.796875 285.761719 601.769531 C 278.402344 598.738281 274.886719 590.308594 277.914062 582.929688 C 280.9375 575.5625 289.386719 572.046875 296.753906 575.082031 C 304.132812 578.105469 307.636719 586.554688 304.601562 593.921875 M 418.042969 278.984375 C 403.4375 272.972656 386.746094 279.941406 380.730469 294.542969 L 262.445312 583.316406 C 256.433594 597.90625 263.398438 614.609375 278.003906 620.621094 C 292.605469 626.632812 309.316406 619.671875 315.316406 605.0625 L 433.585938 316.304688 C 439.605469 301.707031 432.644531 284.996094 418.042969 278.984375 " fill-opacity="1" fill-rule="nonzero"/><path fill="#7a898d" d="M 350.972656 190.332031 C 350.972656 190.332031 375.816406 130.011719 389.070312 97.808594 C 417.824219 27.953125 424.417969 33.023438 481.308594 56.449219 C 515.679688 70.605469 526.507812 112.40625 522.882812 121.214844 C 519.25 130.03125 515.808594 138.394531 515.808594 138.394531 C 515.808594 138.394531 461.609375 116.085938 438.167969 106.441406 C 429.710938 102.964844 418.21875 135.867188 418.21875 135.867188 L 350.972656 190.332031 " fill-opacity="1" fill-rule="nonzero"/><path fill="#ffffff" d="M 324.78125 431.128906 L 329.4375 419.765625 L 324.78125 431.128906 " fill-opacity="1" fill-rule="nonzero"/><path fill="#acb4b6" d="M 371.59375 462.132812 L 334.195312 462.132812 C 331.144531 458.066406 327.785156 454.21875 324.0625 450.75 C 322.242188 449.074219 320.539062 447.347656 318.859375 445.597656 L 324.78125 431.128906 L 329.4375 419.765625 C 338.226562 426.035156 346.703125 432.917969 354.363281 440.523438 C 360.859375 446.953125 366.457031 454.367188 371.59375 462.132812 " fill-opacity="1" fill-rule="nonzero"/><path fill="#ffffff" d="M 313.226562 459.355469 L 314.671875 455.824219 L 313.226562 459.355469 " fill-opacity="1" fill-rule="nonzero"/><path fill="#acb4b6" d="M 319.78125 462.132812 L 314.089844 462.132812 L 313.226562 459.355469 L 314.671875 455.824219 C 316.414062 457.90625 318.132812 460 319.78125 462.132812 " fill-opacity="1" fill-rule="nonzero"/><path fill="#7a898d" d="M 415.804688 86.667969 C 405.347656 82.351562 393.367188 87.351562 389.070312 97.808594 L 280.726562 360.976562 C 276.429688 371.441406 281.40625 383.414062 291.882812 387.710938 C 302.34375 392.015625 314.3125 387.046875 318.621094 376.570312 L 426.953125 113.402344 C 431.261719 102.945312 430.410156 92.671875 415.804688 86.667969 " fill-opacity="1" fill-rule="nonzero"/><path fill="#4e5658" d="M 402.035156 120.125 C 395.46875 117.425781 387.953125 120.550781 385.261719 127.109375 L 289.144531 360.597656 C 286.441406 367.15625 289.570312 374.679688 296.136719 377.371094 C 302.703125 380.09375 310.21875 376.957031 312.910156 370.382812 L 409.027344 136.910156 C 411.726562 130.34375 408.59375 122.828125 402.035156 120.125 " fill-opacity="1" fill-rule="nonzero"/><path fill="#7a898d" d="M 506.9375 134.523438 L 509.226562 135.460938 L 511.511719 136.414062 C 512.085938 136.632812 509.917969 138.9375 509.226562 138.664062 C 508.542969 138.375 508.109375 138.203125 508.109375 138.203125 C 508.109375 138.203125 507.65625 138.015625 506.964844 137.730469 C 506.292969 137.453125 506.375 134.28125 506.9375 134.523438 " fill-opacity="1" fill-rule="nonzero"/><path fill="#7a898d" d="M 502.03125 132.503906 L 504.320312 133.453125 L 506.617188 134.382812 C 507.179688 134.613281 505 136.917969 504.320312 136.632812 C 503.636719 136.355469 503.195312 136.183594 503.195312 136.183594 C 503.195312 136.183594 502.75 135.988281 502.070312 135.722656 C 501.386719 135.433594 501.46875 132.261719 502.03125 132.503906 " fill-opacity="1" fill-rule="nonzero"/><path fill="#7a898d" d="M 497.125 130.484375 L 499.414062 131.433594 L 501.710938 132.375 C 502.273438 132.605469 500.09375 134.898438 499.414062 134.613281 C 498.738281 134.335938 498.289062 134.152344 498.289062 134.152344 C 498.289062 134.152344 497.835938 133.976562 497.164062 133.691406 C 496.480469 133.414062 496.554688 130.242188 497.125 130.484375 " fill-opacity="1" fill-rule="nonzero"/><path fill="#7a898d" d="M 492.21875 128.464844 L 496.792969 130.34375 C 497.367188 130.574219 495.199219 132.878906 494.515625 132.605469 C 493.832031 132.316406 493.382812 132.132812 493.382812 132.132812 C 493.382812 132.132812 492.929688 131.957031 492.257812 131.671875 C 491.582031 131.40625 491.65625 128.234375 492.21875 128.464844 " fill-opacity="1" fill-rule="nonzero"/><path fill="#7a898d" d="M 487.304688 126.445312 L 489.609375 127.394531 L 491.898438 128.332031 C 492.46875 128.566406 490.292969 130.859375 489.609375 130.574219 C 488.925781 130.308594 488.476562 130.121094 488.476562 130.121094 C 488.476562 130.121094 488.042969 129.949219 487.351562 129.652344 C 486.667969 129.367188 486.75 126.214844 487.304688 126.445312 " fill-opacity="1" fill-rule="nonzero"/><path fill="#7a898d" d="M 482.417969 124.425781 L 484.703125 125.363281 L 486.992188 126.3125 C 487.554688 126.542969 485.386719 128.851562 484.703125 128.566406 C 484.019531 128.289062 483.578125 128.09375 483.578125 128.09375 C 483.578125 128.09375 483.136719 127.910156 482.453125 127.632812 C 481.769531 127.355469 481.84375 124.191406 482.417969 124.425781 " fill-opacity="1" fill-rule="nonzero"/><path fill="#7a898d" d="M 477.5 122.402344 L 479.796875 123.34375 L 482.085938 124.292969 C 482.65625 124.515625 480.480469 126.832031 479.804688 126.542969 C 479.105469 126.269531 478.671875 126.082031 478.671875 126.082031 C 478.671875 126.082031 478.21875 125.890625 477.546875 125.613281 C 476.863281 125.328125 476.949219 122.171875 477.5 122.402344 " fill-opacity="1" fill-rule="nonzero"/><path fill="#7a898d" d="M 472.605469 120.382812 L 474.882812 121.324219 L 477.179688 122.273438 C 477.75 122.496094 475.574219 124.800781 474.882812 124.535156 C 474.207031 124.25 473.765625 124.0625 473.765625 124.0625 C 473.765625 124.0625 473.324219 123.871094 472.640625 123.585938 C 471.957031 123.316406 472.03125 120.144531 472.605469 120.382812 " fill-opacity="1" fill-rule="nonzero"/><path fill="#7a898d" d="M 467.699219 118.363281 L 469.984375 119.304688 L 472.273438 120.253906 C 472.835938 120.484375 470.667969 122.78125 469.984375 122.496094 C 469.300781 122.21875 468.859375 122.054688 468.859375 122.054688 C 468.859375 122.054688 468.417969 121.859375 467.734375 121.574219 C 467.042969 121.296875 467.125 118.132812 467.699219 118.363281 " fill-opacity="1" fill-rule="nonzero"/><path fill="#7a898d" d="M 462.78125 116.355469 L 465.078125 117.285156 L 467.367188 118.226562 C 467.9375 118.457031 465.761719 120.773438 465.078125 120.484375 C 464.394531 120.199219 463.960938 120.015625 463.960938 120.015625 C 463.960938 120.015625 463.511719 119.839844 462.820312 119.554688 C 462.136719 119.269531 462.21875 116.113281 462.78125 116.355469 " fill-opacity="1" fill-rule="nonzero"/><path fill="#7a898d" d="M 457.886719 114.335938 L 460.171875 115.277344 L 462.46875 116.207031 C 463.039062 116.445312 460.855469 118.742188 460.171875 118.464844 C 459.488281 118.179688 459.046875 117.996094 459.046875 117.996094 C 459.046875 117.996094 458.605469 117.832031 457.929688 117.542969 C 457.238281 117.257812 457.324219 114.09375 457.886719 114.335938 " fill-opacity="1" fill-rule="nonzero"/><path fill="#7a898d" d="M 452.980469 112.304688 L 455.265625 113.246094 L 457.5625 114.195312 C 458.125 114.417969 455.957031 116.734375 455.273438 116.457031 C 454.582031 116.171875 454.140625 115.984375 454.140625 115.984375 C 454.140625 115.984375 453.699219 115.8125 453.023438 115.523438 C 452.34375 115.238281 452.417969 112.074219 452.980469 112.304688 " fill-opacity="1" fill-rule="nonzero"/><path fill="#7a898d" d="M 448.074219 110.285156 L 450.359375 111.238281 L 452.65625 112.175781 C 453.21875 112.40625 451.050781 114.703125 450.359375 114.425781 C 449.675781 114.140625 449.242188 113.964844 449.242188 113.964844 C 449.242188 113.964844 448.800781 113.789062 448.109375 113.503906 C 447.4375 113.226562 447.511719 110.066406 448.074219 110.285156 " fill-opacity="1" fill-rule="nonzero"/><path fill="#7a898d" d="M 443.167969 108.265625 L 445.453125 109.21875 L 447.75 110.15625 C 448.3125 110.386719 446.136719 112.695312 445.460938 112.40625 C 444.78125 112.132812 444.328125 111.945312 444.328125 111.945312 C 444.328125 111.945312 443.894531 111.753906 443.203125 111.484375 C 442.519531 111.199219 442.605469 108.027344 443.167969 108.265625 " fill-opacity="1" fill-rule="nonzero"/><path fill="#7a898d" d="M 284.957031 352.160156 L 283.667969 355.3125 L 282.367188 358.457031 C 282.042969 359.234375 278.882812 356.246094 279.277344 355.3125 C 279.65625 354.363281 279.90625 353.753906 279.90625 353.753906 C 279.90625 353.753906 280.164062 353.15625 280.550781 352.214844 C 280.929688 351.273438 285.28125 351.375 284.957031 352.160156 " fill-opacity="1" fill-rule="nonzero"/><path fill="#7a898d" d="M 290.519531 338.6875 L 289.21875 341.832031 L 287.917969 344.984375 C 287.597656 345.761719 284.441406 342.773438 284.820312 341.832031 C 285.207031 340.910156 285.457031 340.292969 285.457031 340.292969 C 285.457031 340.292969 285.707031 339.671875 286.09375 338.742188 C 286.480469 337.800781 290.824219 337.910156 290.519531 338.6875 " fill-opacity="1" fill-rule="nonzero"/><path fill="#7a898d" d="M 296.054688 325.214844 L 294.761719 328.359375 L 293.460938 331.511719 C 293.136719 332.285156 289.984375 329.296875 290.363281 328.359375 C 290.757812 327.417969 291.007812 326.808594 291.007812 326.808594 C 291.007812 326.808594 291.25 326.199219 291.644531 325.269531 C 292.03125 324.328125 296.367188 324.429688 296.054688 325.214844 " fill-opacity="1" fill-rule="nonzero"/><path fill="#7a898d" d="M 301.605469 311.730469 L 300.304688 314.886719 L 299.023438 318.03125 C 298.691406 318.804688 295.535156 315.816406 295.914062 314.886719 C 296.300781 313.953125 296.550781 313.328125 296.550781 313.328125 C 296.550781 313.328125 296.808594 312.726562 297.195312 311.785156 C 297.582031 310.84375 301.925781 310.945312 301.605469 311.730469 " fill-opacity="1" fill-rule="nonzero"/><path fill="#7a898d" d="M 307.15625 298.257812 L 305.855469 301.402344 L 304.566406 304.546875 C 304.242188 305.332031 301.078125 302.34375 301.464844 301.410156 C 301.855469 300.460938 302.101562 299.863281 302.101562 299.863281 C 302.101562 299.863281 302.351562 299.246094 302.738281 298.3125 C 303.117188 297.371094 307.46875 297.484375 307.15625 298.257812 " fill-opacity="1" fill-rule="nonzero"/><path fill="#7a898d" d="M 312.699219 284.785156 L 311.398438 287.929688 L 310.109375 291.082031 C 309.792969 291.859375 306.628906 288.871094 307.019531 287.929688 C 307.394531 286.988281 307.65625 286.378906 307.65625 286.378906 C 307.65625 286.378906 307.902344 285.769531 308.28125 284.839844 C 308.667969 283.898438 313.023438 284 312.699219 284.785156 " fill-opacity="1" fill-rule="nonzero"/><path fill="#7a898d" d="M 318.25 271.300781 L 316.949219 274.457031 L 315.648438 277.601562 C 315.335938 278.375 312.183594 275.386719 312.5625 274.457031 C 312.949219 273.507812 313.195312 272.898438 313.195312 272.898438 C 313.195312 272.898438 313.457031 272.296875 313.832031 271.355469 C 314.222656 270.417969 318.5625 270.527344 318.25 271.300781 " fill-opacity="1" fill-rule="nonzero"/><path fill="#7a898d" d="M 323.8125 257.808594 L 322.511719 260.953125 L 321.210938 264.109375 C 320.886719 264.882812 317.726562 261.886719 318.113281 260.953125 C 318.5 260.023438 318.757812 259.40625 318.757812 259.40625 C 318.757812 259.40625 319.007812 258.796875 319.386719 257.855469 C 319.78125 256.925781 324.117188 257.035156 323.8125 257.808594 " fill-opacity="1" fill-rule="nonzero"/><path fill="#7a898d" d="M 329.355469 244.328125 L 328.054688 247.472656 L 326.761719 250.625 C 326.441406 251.402344 323.285156 248.414062 323.664062 247.472656 C 324.050781 246.539062 324.308594 245.933594 324.308594 245.933594 C 324.308594 245.933594 324.550781 245.324219 324.9375 244.382812 C 325.324219 243.441406 329.667969 243.554688 329.355469 244.328125 " fill-opacity="1" fill-rule="nonzero"/><path fill="#7a898d" d="M 334.90625 230.855469 L 333.605469 234 L 332.304688 237.152344 C 331.992188 237.925781 328.820312 234.929688 329.207031 234 C 329.59375 233.058594 329.851562 232.460938 329.851562 232.460938 C 329.851562 232.460938 330.101562 231.851562 330.488281 230.902344 C 330.875 229.96875 335.21875 230.070312 334.90625 230.855469 " fill-opacity="1" fill-rule="nonzero"/><path fill="#7a898d" d="M 340.441406 217.382812 L 339.148438 220.527344 L 337.855469 223.679688 C 337.535156 224.445312 334.378906 221.457031 334.757812 220.527344 C 335.144531 219.59375 335.394531 218.976562 335.394531 218.976562 C 335.394531 218.976562 335.644531 218.367188 336.03125 217.4375 C 336.417969 216.496094 340.773438 216.605469 340.441406 217.382812 " fill-opacity="1" fill-rule="nonzero"/><path fill="#7a898d" d="M 345.992188 203.898438 L 344.699219 207.042969 L 343.398438 210.207031 C 343.078125 210.972656 339.921875 207.992188 340.308594 207.042969 C 340.6875 206.101562 340.945312 205.492188 340.945312 205.492188 C 340.945312 205.492188 341.195312 204.894531 341.582031 203.953125 C 341.960938 203.011719 346.3125 203.125 345.992188 203.898438 " fill-opacity="1" fill-rule="nonzero"/><path fill="#7a898d" d="M 351.542969 190.417969 L 350.242188 193.570312 L 348.953125 196.714844 C 348.636719 197.5 345.464844 194.5 345.851562 193.570312 C 346.25 192.636719 346.488281 192.019531 346.488281 192.019531 C 346.488281 192.019531 346.738281 191.421875 347.125 190.472656 C 347.511719 189.539062 351.855469 189.660156 351.542969 190.417969 " fill-opacity="1" fill-rule="nonzero"/><path fill="#7a898d" d="M 357.09375 176.953125 L 355.792969 180.097656 L 354.503906 183.25 C 354.191406 184.015625 351.015625 181.027344 351.40625 180.097656 C 351.78125 179.148438 352.042969 178.546875 352.042969 178.546875 C 352.042969 178.546875 352.289062 177.9375 352.675781 177 C 353.066406 176.066406 357.417969 176.167969 357.09375 176.953125 " fill-opacity="1" fill-rule="nonzero"/><path fill="#7a898d" d="M 321.738281 367.300781 L 320.445312 370.457031 L 319.144531 373.601562 C 318.832031 374.367188 323.175781 374.484375 323.5625 373.546875 C 323.949219 372.605469 324.199219 371.996094 324.199219 371.996094 C 324.199219 371.996094 324.449219 371.378906 324.835938 370.457031 C 325.222656 369.496094 322.058594 366.527344 321.738281 367.300781 " fill-opacity="1" fill-rule="nonzero"/><path fill="#7a898d" d="M 327.289062 353.820312 L 325.988281 356.972656 L 324.6875 360.117188 C 324.375 360.902344 328.71875 361.011719 329.105469 360.0625 C 329.503906 359.132812 329.75 358.503906 329.75 358.503906 C 329.75 358.503906 329.992188 357.914062 330.386719 356.972656 C 330.765625 356.023438 327.601562 353.046875 327.289062 353.820312 " fill-opacity="1" fill-rule="nonzero"/><path fill="#7a898d" d="M 332.832031 340.347656 L 331.539062 343.5 L 330.25 346.644531 C 329.925781 347.417969 334.269531 347.519531 334.65625 346.589844 C 335.035156 345.660156 335.292969 345.039062 335.292969 345.039062 C 335.292969 345.039062 335.550781 344.433594 335.929688 343.492188 C 336.316406 342.558594 333.152344 339.570312 332.832031 340.347656 " fill-opacity="1" fill-rule="nonzero"/><path fill="#7a898d" d="M 338.382812 326.882812 L 337.082031 330.027344 L 335.792969 333.171875 C 335.476562 333.9375 339.820312 334.046875 340.210938 333.117188 C 340.597656 332.175781 340.84375 331.566406 340.84375 331.566406 C 340.84375 331.566406 341.085938 330.949219 341.480469 330.019531 C 341.867188 329.066406 338.707031 326.097656 338.382812 326.882812 " fill-opacity="1" fill-rule="nonzero"/><path fill="#7a898d" d="M 343.933594 313.390625 L 342.632812 316.535156 L 341.34375 319.691406 C 341.019531 320.464844 345.363281 320.585938 345.742188 319.625 C 346.140625 318.703125 346.398438 318.085938 346.398438 318.085938 C 346.398438 318.085938 346.636719 317.476562 347.023438 316.535156 C 347.410156 315.59375 344.25 312.617188 343.933594 313.390625 " fill-opacity="1" fill-rule="nonzero"/><path fill="#7a898d" d="M 349.476562 299.917969 L 348.175781 303.070312 L 346.886719 306.214844 C 346.5625 306.992188 350.917969 307.101562 351.292969 306.160156 C 351.679688 305.21875 351.929688 304.613281 351.929688 304.613281 C 351.929688 304.613281 352.1875 304.003906 352.566406 303.070312 C 352.964844 302.132812 349.789062 299.144531 349.476562 299.917969 " fill-opacity="1" fill-rule="nonzero"/><path fill="#7a898d" d="M 355.027344 286.445312 L 353.730469 289.597656 L 352.429688 292.742188 C 352.113281 293.507812 356.457031 293.628906 356.847656 292.667969 C 357.234375 291.746094 357.492188 291.136719 357.492188 291.136719 C 357.492188 291.136719 357.742188 290.53125 358.117188 289.589844 C 358.507812 288.648438 355.34375 285.667969 355.027344 286.445312 " fill-opacity="1" fill-rule="nonzero"/><path fill="#7a898d" d="M 360.582031 272.945312 L 359.289062 276.097656 L 357.988281 279.242188 C 357.675781 280.027344 362.019531 280.128906 362.40625 279.175781 C 362.785156 278.246094 363.035156 277.636719 363.035156 277.636719 C 363.035156 277.636719 363.292969 277.019531 363.679688 276.097656 C 364.066406 275.15625 360.902344 272.167969 360.582031 272.945312 " fill-opacity="1" fill-rule="nonzero"/><path fill="#7a898d" d="M 366.132812 259.480469 L 363.53125 265.769531 C 363.21875 266.535156 367.5625 266.644531 367.949219 265.703125 C 368.335938 264.773438 368.585938 264.15625 368.585938 264.15625 C 368.585938 264.15625 368.835938 263.546875 369.222656 262.625 C 369.601562 261.675781 366.445312 258.695312 366.132812 259.480469 " fill-opacity="1" fill-rule="nonzero"/><path fill="#7a898d" d="M 371.675781 245.988281 L 370.382812 249.140625 L 369.082031 252.285156 C 368.761719 253.050781 373.113281 253.171875 373.492188 252.230469 C 373.890625 251.300781 374.148438 250.691406 374.148438 250.691406 C 374.148438 250.691406 374.386719 250.082031 374.773438 249.140625 C 375.160156 248.191406 371.988281 245.222656 371.675781 245.988281 " fill-opacity="1" fill-rule="nonzero"/><path fill="#7a898d" d="M 377.226562 232.515625 L 375.9375 235.660156 L 374.625 238.820312 C 374.320312 239.585938 378.65625 239.699219 379.054688 238.75 C 379.441406 237.816406 379.679688 237.207031 379.679688 237.207031 C 379.679688 237.207031 379.9375 236.589844 380.324219 235.660156 C 380.703125 234.726562 377.539062 231.738281 377.226562 232.515625 " fill-opacity="1" fill-rule="nonzero"/><path fill="#7a898d" d="M 382.777344 219.03125 L 381.480469 222.195312 L 380.179688 225.320312 C 379.863281 226.113281 384.207031 226.226562 384.585938 225.273438 C 384.984375 224.34375 385.230469 223.726562 385.230469 223.726562 C 385.230469 223.726562 385.480469 223.117188 385.867188 222.175781 C 386.246094 221.246094 383.09375 218.265625 382.777344 219.03125 " fill-opacity="1" fill-rule="nonzero"/><path fill="#7a898d" d="M 388.320312 205.558594 L 387.03125 208.710938 L 385.722656 211.855469 C 385.40625 212.621094 389.761719 212.742188 390.136719 211.800781 C 390.515625 210.851562 390.773438 210.253906 390.773438 210.253906 C 390.773438 210.253906 391.023438 209.652344 391.421875 208.703125 C 391.796875 207.761719 388.644531 204.792969 388.320312 205.558594 " fill-opacity="1" fill-rule="nonzero"/><path fill="#7a898d" d="M 393.863281 192.085938 L 392.5625 195.238281 L 391.273438 198.382812 C 390.949219 199.148438 395.304688 199.269531 395.691406 198.328125 C 396.078125 197.386719 396.328125 196.769531 396.328125 196.769531 C 396.328125 196.769531 396.574219 196.171875 396.960938 195.238281 C 397.351562 194.28125 394.195312 191.300781 393.863281 192.085938 " fill-opacity="1" fill-rule="nonzero"/><path fill="#51535c" d="M 495.382812 168.9375 L 497.652344 169.953125 L 499.921875 170.957031 C 500.472656 171.207031 500.640625 168.035156 499.964844 167.738281 C 499.285156 167.433594 498.851562 167.25 498.851562 167.25 C 498.851562 167.25 498.417969 167.046875 497.734375 166.761719 C 497.0625 166.457031 494.828125 168.699219 495.382812 168.9375 " fill-opacity="1" fill-rule="nonzero"/><path fill="#51535c" d="M 490.53125 166.78125 L 492.792969 167.804688 L 495.070312 168.800781 C 495.621094 169.058594 495.796875 165.886719 495.105469 165.582031 C 494.441406 165.285156 494 165.082031 494 165.082031 C 494 165.082031 493.566406 164.898438 492.894531 164.59375 C 492.210938 164.289062 489.976562 166.539062 490.53125 166.78125 " fill-opacity="1" fill-rule="nonzero"/><path fill="#51535c" d="M 485.691406 164.640625 L 487.949219 165.636719 L 490.21875 166.640625 C 490.78125 166.890625 490.9375 163.726562 490.265625 163.421875 C 489.601562 163.128906 489.15625 162.925781 489.15625 162.925781 C 489.15625 162.925781 488.722656 162.742188 488.042969 162.445312 C 487.367188 162.140625 485.136719 164.382812 485.691406 164.640625 " fill-opacity="1" fill-rule="nonzero"/><path fill="#51535c" d="M 480.839844 162.484375 L 483.109375 163.480469 L 485.375 164.492188 C 485.929688 164.742188 486.097656 161.578125 485.414062 161.273438 C 484.742188 160.980469 484.316406 160.777344 484.316406 160.777344 C 484.316406 160.777344 483.875 160.582031 483.191406 160.277344 C 482.527344 159.984375 480.285156 162.234375 480.839844 162.484375 " fill-opacity="1" fill-rule="nonzero"/><path fill="#51535c" d="M 475.996094 160.324219 L 480.515625 162.335938 C 481.078125 162.59375 481.253906 159.429688 480.570312 159.125 C 479.898438 158.832031 479.457031 158.628906 479.457031 158.628906 C 479.457031 158.628906 479.023438 158.433594 478.347656 158.128906 C 477.667969 157.835938 475.433594 160.066406 475.996094 160.324219 " fill-opacity="1" fill-rule="nonzero"/><path fill="#51535c" d="M 471.148438 158.175781 L 473.414062 159.179688 L 475.664062 160.1875 C 476.226562 160.4375 476.402344 157.261719 475.730469 156.96875 C 475.058594 156.664062 474.613281 156.480469 474.613281 156.480469 C 474.613281 156.480469 474.179688 156.285156 473.507812 155.980469 C 472.824219 155.6875 470.59375 157.917969 471.148438 158.175781 " fill-opacity="1" fill-rule="nonzero"/><path fill="#51535c" d="M 466.304688 156.019531 L 468.5625 157.023438 L 470.832031 158.027344 C 471.378906 158.277344 471.550781 155.113281 470.878906 154.820312 C 470.207031 154.515625 469.773438 154.320312 469.773438 154.320312 C 469.773438 154.320312 469.320312 154.136719 468.648438 153.824219 C 467.984375 153.519531 465.742188 155.761719 466.304688 156.019531 " fill-opacity="1" fill-rule="nonzero"/><path fill="#51535c" d="M 461.453125 153.851562 L 463.714844 154.855469 L 465.980469 155.871094 C 466.542969 156.121094 466.710938 152.964844 466.039062 152.652344 C 465.355469 152.355469 464.921875 152.171875 464.921875 152.171875 C 464.921875 152.171875 464.480469 151.96875 463.804688 151.675781 C 463.132812 151.378906 460.902344 153.613281 461.453125 153.851562 " fill-opacity="1" fill-rule="nonzero"/><path fill="#51535c" d="M 456.601562 151.710938 L 458.863281 152.71875 L 461.132812 153.722656 C 461.695312 153.972656 461.859375 150.808594 461.1875 150.503906 C 460.511719 150.207031 460.070312 150.003906 460.070312 150.003906 C 460.070312 150.003906 459.636719 149.820312 458.964844 149.515625 C 458.28125 149.210938 456.050781 151.460938 456.601562 151.710938 " fill-opacity="1" fill-rule="nonzero"/><path fill="#51535c" d="M 451.761719 149.542969 L 454.019531 150.550781 L 456.289062 151.5625 C 456.851562 151.804688 457.007812 148.648438 456.335938 148.34375 C 455.664062 148.050781 455.21875 147.855469 455.21875 147.855469 C 455.21875 147.855469 454.785156 147.664062 454.113281 147.359375 C 453.429688 147.0625 451.199219 149.3125 451.761719 149.542969 " fill-opacity="1" fill-rule="nonzero"/><path fill="#51535c" d="M 446.910156 147.394531 L 449.179688 148.402344 L 451.4375 149.414062 C 452 149.65625 452.167969 146.5 451.492188 146.195312 C 450.8125 145.890625 450.378906 145.699219 450.378906 145.699219 C 450.378906 145.699219 449.933594 145.503906 449.261719 145.199219 C 448.589844 144.914062 446.355469 147.15625 446.910156 147.394531 " fill-opacity="1" fill-rule="nonzero"/><path fill="#51535c" d="M 442.058594 145.246094 L 444.320312 146.253906 L 446.585938 147.265625 C 447.148438 147.496094 447.324219 144.34375 446.644531 144.039062 C 445.96875 143.742188 445.527344 143.539062 445.527344 143.539062 C 445.527344 143.539062 445.09375 143.355469 444.421875 143.0625 C 443.738281 142.746094 441.507812 144.996094 442.058594 145.246094 " fill-opacity="1" fill-rule="nonzero"/><path fill="#51535c" d="M 437.21875 143.097656 L 439.476562 144.09375 L 441.746094 145.097656 C 442.300781 145.347656 442.464844 142.183594 441.800781 141.890625 C 441.117188 141.578125 440.675781 141.390625 440.675781 141.390625 C 440.675781 141.390625 440.242188 141.199219 439.570312 140.894531 C 438.894531 140.589844 436.65625 142.839844 437.21875 143.097656 " fill-opacity="1" fill-rule="nonzero"/><path fill="#51535c" d="M 432.375 140.941406 L 436.894531 142.949219 C 437.449219 143.199219 437.625 140.027344 436.941406 139.730469 C 436.269531 139.429688 435.835938 139.234375 435.835938 139.234375 C 435.835938 139.234375 435.390625 139.050781 434.71875 138.746094 C 434.046875 138.433594 431.8125 140.683594 432.375 140.941406 " fill-opacity="1" fill-rule="nonzero"/><path fill="#bf1b2c" d="M 501.507812 173.132812 L 410.050781 132.511719 C 410.050781 132.511719 355.664062 154.0625 343.417969 159.171875 C 331.179688 164.28125 322.457031 196.910156 327.09375 198.816406 C 331.753906 200.734375 366.59375 214.871094 397.210938 227.488281 C 400.421875 228.808594 401.074219 231.566406 392.242188 253.003906 C 383.414062 274.4375 380.832031 275.027344 377.015625 273.460938 C 369.664062 270.433594 351.488281 262.957031 351.488281 262.957031 C 351.488281 262.957031 337.082031 297.925781 330.800781 313.167969 C 324.53125 328.433594 349.367188 349.984375 350.242188 369.691406 C 377.105469 372.605469 423.125 363.539062 423.125 363.539062 L 501.507812 173.132812 " fill-opacity="1" fill-rule="nonzero"/><path fill="#ed1639" d="M 395.375 215.40625 C 384.273438 208.683594 370.742188 209.089844 358.109375 205.261719 C 351.109375 203.140625 343.777344 201.316406 337.332031 197.746094 C 330.027344 193.699219 329.648438 189.171875 332.121094 181.488281 C 333.84375 176.113281 336.824219 168.035156 342 165.027344 C 345.464844 163 349.15625 161.367188 352.808594 159.6875 C 353.5 167.121094 357.398438 174.472656 362.425781 179.625 C 370.097656 187.511719 394.34375 201.667969 395.375 215.40625 " fill-opacity="1" fill-rule="nonzero"/><path fill="#dc1434" d="M 424.914062 359.1875 L 424.933594 359.140625 C 424.933594 359.140625 424.933594 359.148438 424.933594 359.148438 L 424.914062 359.1875 " fill-opacity="1" fill-rule="nonzero"/><path fill="#ed1639" d="M 408.296875 360.644531 C 396.898438 360.644531 369.082031 354.898438 362.636719 349.238281 C 351.3125 339.304688 341.03125 326.707031 334.4375 313.105469 C 333.984375 312.183594 333.53125 311.1875 333.0625 310.183594 L 333.117188 310.015625 C 336.890625 301.625 340.902344 293.324219 345.160156 285.367188 C 346.535156 282.773438 348.867188 279.59375 351.230469 276.171875 C 350.816406 278.421875 350.5 280.746094 350.269531 283.132812 C 349.53125 290.863281 347.964844 300.40625 350.796875 307.886719 C 353.8125 315.863281 399.445312 346.257812 412.945312 349.761719 C 419.105469 351.359375 422.519531 354.871094 424.933594 359.140625 L 424.914062 359.1875 C 423.863281 359.003906 422.777344 358.929688 421.667969 358.929688 C 418.164062 358.929688 414.511719 359.710938 411.78125 360.347656 C 410.945312 360.550781 409.753906 360.644531 408.296875 360.644531 " fill-opacity="1" fill-rule="nonzero"/><path fill="#4e5658" d="M 417.113281 133.765625 L 409.089844 153.242188 L 445.1875 188.09375 L 490.273438 206.65625 L 504.320312 172.515625 L 417.113281 133.765625 " fill-opacity="1" fill-rule="nonzero"/><path fill="#34383a" d="M 382.1875 260.882812 C 381.191406 263.316406 378.40625 264.476562 375.964844 263.472656 L 319.632812 240.289062 C 317.199219 239.285156 316.027344 236.5 317.023438 234.074219 L 325.492188 213.5 C 326.503906 211.0625 329.28125 209.910156 331.714844 210.917969 L 388.0625 234.109375 C 390.496094 235.105469 391.660156 237.890625 390.65625 240.316406 L 382.1875 260.882812 " fill-opacity="1" fill-rule="nonzero"/><path fill="#828d8c" d="M 424.316406 151.460938 C 425.421875 148.761719 424.140625 145.671875 421.4375 144.546875 C 418.726562 143.441406 415.636719 144.722656 414.53125 147.433594 C 413.40625 150.125 414.695312 153.222656 417.398438 154.339844 C 420.109375 155.457031 423.210938 154.164062 424.316406 151.460938 " fill-opacity="1" fill-rule="nonzero"/><path fill="#f47126" d="M 320.722656 483.277344 L 272.757812 498.320312 L 229.53125 360.515625 L 277.496094 345.484375 L 320.722656 483.277344 " fill-opacity="1" fill-rule="nonzero"/><path fill="#f89c22" d="M 283.355469 343.648438 L 223.6875 362.359375 L 217.875 343.871094 L 277.554688 325.15625 L 283.355469 343.648438 " fill-opacity="1" fill-rule="nonzero"/><path fill="#ffffff" d="M 265.378906 328.976562 C 265.378906 328.976562 265.378906 328.964844 265.371094 328.964844 L 273.652344 326.382812 L 265.378906 328.976562 " fill-opacity="1" fill-rule="nonzero"/><path fill="#fbc34b" d="M 272.140625 347.152344 C 270.542969 342.285156 265.792969 330.378906 265.378906 328.976562 L 273.652344 326.382812 C 273.855469 326.957031 278.308594 342.585938 279.214844 344.949219 L 272.140625 347.152344 " fill-opacity="1" fill-rule="nonzero"/><path fill="#f89c22" d="M 330.183594 506.304688 L 278.550781 522.515625 L 266.957031 498.78125 L 326.125 480.234375 L 330.183594 506.304688 " fill-opacity="1" fill-rule="nonzero"/><path fill="#7a898d" d="M 182.453125 143.882812 L 186.417969 167.277344 L 191.105469 177.332031 L 241.0625 336.601562 L 254.773438 332.296875 L 204.816406 173.03125 L 202.878906 162.242188 L 192.46875 140.757812 L 182.453125 143.882812 " fill-opacity="1" fill-rule="nonzero"/><path fill="#acb4b6" d="M 248.421875 332.296875 L 200.152344 178.757812 L 198.25 170.496094 L 189.96875 146.988281 L 191.683594 146.464844 L 201.726562 167.203125 L 203.589844 177.597656 L 251.777344 331.234375 L 248.421875 332.296875 " fill-opacity="1" fill-rule="nonzero"/><path fill="#9f4817" d="M 303.800781 462.132812 L 298.015625 462.132812 L 266.265625 360.894531 L 271.53125 359.234375 L 303.800781 462.132812 " fill-opacity="1" fill-rule="nonzero"/><path fill="#9f4817" d="M 290.640625 462.132812 L 284.855469 462.132812 L 254.285156 364.648438 L 259.542969 362.988281 L 290.640625 462.132812 " fill-opacity="1" fill-rule="nonzero"/><path fill="#9f4817" d="M 277.46875 462.132812 L 271.6875 462.132812 L 242.304688 368.398438 L 247.5625 366.75 L 277.46875 462.132812 " fill-opacity="1" fill-rule="nonzero"/><path fill="#192e42" d="M 462.054688 432.804688 C 466.554688 432.152344 473.839844 421.886719 478.460938 412.472656 L 496.324219 392.46875 C 491.859375 390.578125 487.554688 388.367188 483.902344 385.753906 L 483.070312 385.828125 L 483.007812 385.089844 C 482.230469 384.511719 481.503906 383.910156 480.800781 383.300781 L 475.90625 388.769531 C 473.460938 387.507812 461.242188 406.109375 458.289062 406.53125 C 408.269531 413.6875 372.21875 447.015625 354.070312 502.929688 C 340.910156 543.441406 336.789062 575.671875 336.84375 577.257812 C 337.054688 584.597656 348.203125 596.136719 355.527344 595.933594 C 362.851562 595.710938 368.613281 589.617188 368.410156 582.285156 C 368.390625 581.648438 367.664062 546.550781 379.515625 510.511719 C 394.582031 464.613281 422.359375 438.46875 462.054688 432.804688 " fill-opacity="1" fill-rule="nonzero"/><path fill="#192e42" d="M 522.320312 418.390625 L 521.878906 417.894531 L 526.480469 401.25 C 524.101562 401.027344 521.675781 400.59375 519.183594 399.902344 C 516.390625 399.144531 512.96875 398.214844 509.28125 397.089844 L 500.59375 428.527344 C 495.585938 436.273438 491.507812 445.882812 493.34375 449.867188 C 510.046875 486.3125 503.121094 523.816406 472.707031 561.324219 C 448.691406 590.945312 418.644531 609.359375 418.339844 609.535156 C 412.078125 613.335938 410.078125 621.488281 413.867188 627.757812 C 417.667969 634.019531 425.800781 636.03125 432.070312 632.230469 C 433.4375 631.417969 465.898438 611.621094 492.828125 578.613281 C 530.023438 533.078125 538.523438 484.734375 517.460938 438.800781 C 516.214844 436.089844 524.746094 419.730469 522.320312 418.390625 " fill-opacity="1" fill-rule="nonzero"/><path fill="#515c5c" d="M 627.1875 215.988281 L 528.148438 348.839844 L 581.8125 190.886719 L 579.730469 187.953125 L 492.429688 341.472656 L 496.90625 359.1875 C 495.640625 361.863281 495.003906 364.675781 494.929688 367.476562 L 475.90625 388.769531 C 474.992188 388.292969 472.660156 390.652344 469.976562 393.796875 L 473.285156 405.1875 L 478.449219 412.472656 L 503.304688 384.65625 C 504.070312 385.238281 504.871094 385.773438 505.75 386.253906 C 507.648438 387.296875 509.660156 387.988281 511.679688 388.394531 L 517.15625 408.996094 L 521.878906 417.894531 L 531.71875 382.277344 L 553.65625 374.875 L 628.636719 218.027344 L 627.1875 215.988281 " fill-opacity="1" fill-rule="nonzero"/><path fill="#9bb5b3" d="M 497.625 351.394531 L 450.527344 404.125 C 403.945312 411.992188 370.308594 444.039062 353.109375 497.007812 C 340.171875 536.8125 341.085938 574.078125 341.132812 575.644531 L 358.820312 575.148438 C 358.808594 574.789062 357.972656 538.988281 370.0625 502.0625 C 385.683594 454.300781 414.6875 427.078125 456.261719 421.140625 L 459.453125 420.6875 L 510.8125 363.171875 L 497.625 351.394531 " fill-opacity="1" fill-rule="nonzero"/><path fill="#335f88" d="M 470.742188 381.496094 C 465.097656 376.652344 456.066406 398.832031 453.125 399.257812 C 403.09375 406.402344 367.046875 439.730469 348.894531 495.644531 C 335.734375 536.164062 336.667969 574.179688 336.703125 575.765625 C 336.925781 583.097656 343.03125 588.851562 350.355469 588.648438 C 357.675781 588.445312 363.441406 582.332031 363.226562 575.019531 C 363.21875 574.363281 362.488281 539.273438 374.332031 503.226562 C 389.402344 457.335938 417.1875 431.183594 456.878906 425.519531 C 464.136719 424.480469 474.320312 412.445312 473.285156 405.1875 C 472.667969 400.878906 471.175781 388.429688 470.742188 381.496094 " fill-opacity="1" fill-rule="nonzero"/><path fill="#728483" d="M 528.425781 368.195312 L 511.382812 363.476562 L 490.835938 437.804688 L 492.183594 440.738281 C 534.429688 532.808594 416.660156 605.300781 415.472656 606.039062 L 424.609375 621.183594 C 425.957031 620.351562 457.773438 600.960938 484.242188 568.542969 C 519.460938 525.394531 528.195312 479.765625 509.585938 436.347656 L 528.425781 368.195312 " fill-opacity="1" fill-rule="nonzero"/><path fill="#335f88" d="M 517.15625 408.996094 C 513.605469 407.050781 509.207031 408.597656 505.25 410.414062 C 498.601562 413.46875 485.117188 435.921875 488.160156 442.570312 C 504.882812 479.035156 497.9375 516.53125 467.523438 554.054688 C 443.515625 583.648438 413.480469 602.074219 413.167969 602.25 C 406.914062 606.050781 404.902344 614.210938 408.695312 620.472656 C 412.484375 626.734375 420.628906 628.746094 426.890625 624.953125 C 428.261719 624.132812 460.726562 604.335938 487.664062 571.328125 C 524.839844 525.789062 533.351562 477.457031 512.277344 431.523438 C 511.042969 428.8125 519.574219 410.3125 517.15625 408.996094 " fill-opacity="1" fill-rule="nonzero"/><path fill="#728483" d="M 509.445312 378.164062 L 497.191406 373.621094 L 487.277344 334.195312 L 572.128906 185.945312 L 579.730469 187.953125 L 509.445312 378.164062 " fill-opacity="1" fill-rule="nonzero"/><path fill="#9bb5b3" d="M 499.515625 372.742188 L 509.980469 380.601562 L 548.484375 367.597656 L 627.1875 215.988281 L 621.386719 210.675781 L 499.515625 372.742188 " fill-opacity="1" fill-rule="nonzero"/><path fill="#8d9696" d="M 547.988281 273.855469 L 551.601562 264.082031 C 551.601562 264.082031 551.601562 264.089844 551.601562 264.089844 L 547.988281 273.855469 " fill-opacity="1" fill-rule="nonzero"/><path fill="#ffffff" d="M 532.105469 255.863281 L 532.335938 255.46875 L 532.105469 255.863281 " fill-opacity="1" fill-rule="nonzero"/><path fill="#a83139" d="M 532.335938 255.46875 L 537.453125 246.511719 C 537.464844 246.511719 537.464844 246.511719 537.464844 246.511719 L 532.335938 255.46875 " fill-opacity="1" fill-rule="nonzero"/><path fill="#a9b5b4" d="M 545.101562 281.667969 C 543.226562 278.523438 541.484375 275.265625 539.742188 271.949219 C 536.976562 266.671875 534.265625 261.425781 532.105469 255.863281 L 532.335938 255.46875 L 537.464844 246.511719 C 537.667969 246.984375 543.199219 256.796875 551.601562 264.082031 L 547.988281 273.855469 L 545.101562 281.667969 " fill-opacity="1" fill-rule="nonzero"/><path fill="#ffffff" d="M 516.832031 282.542969 C 516.832031 282.542969 516.832031 282.535156 516.832031 282.535156 L 526.25 266.109375 L 516.832031 282.542969 " fill-opacity="1" fill-rule="nonzero"/><path fill="#a9b5b4" d="M 529.292969 324.4375 C 523.769531 314.265625 519.332031 303.015625 517.683594 291.65625 C 517.25 288.648438 517 285.597656 516.832031 282.542969 L 526.25 266.109375 L 526.71875 265.289062 C 527.9375 268.683594 529.421875 272.019531 530.988281 275.296875 C 534.015625 281.566406 537.132812 287.476562 540.914062 293 L 529.292969 324.4375 " fill-opacity="1" fill-rule="nonzero"/><path fill="#8d9696" d="M 577.738281 311.242188 L 594.335938 279.261719 L 577.738281 311.242188 " fill-opacity="1" fill-rule="nonzero"/><path fill="#c6d4d3" d="M 577.738281 311.242188 C 570.683594 307.5 564.023438 303.117188 558 297.796875 C 557.570312 297.425781 557.144531 297.050781 556.738281 296.652344 L 573.660156 274.152344 C 581.316406 278.125 590.59375 278.457031 594.335938 279.261719 L 577.738281 311.242188 " fill-opacity="1" fill-rule="nonzero"/><path fill="#8d9696" d="M 553.816406 357.332031 L 573.117188 320.140625 C 573.117188 320.152344 573.117188 320.152344 573.117188 320.152344 L 553.816406 357.332031 M 532.132812 329.371094 L 534.503906 326.21875 L 532.132812 329.371094 " fill-opacity="1" fill-rule="nonzero"/><path fill="#c6d4d3" d="M 553.816406 357.332031 C 553.511719 357.027344 553.207031 356.734375 552.902344 356.4375 C 544.859375 348.351562 537.960938 339.167969 532.132812 329.371094 L 534.503906 326.21875 L 550.742188 304.628906 C 557.308594 310.902344 565.128906 315.84375 573.117188 320.140625 L 553.816406 357.332031 " fill-opacity="1" fill-rule="nonzero"/><path fill="#728483" d="M 496.15625 352.886719 C 500.472656 344.957031 510.414062 342.035156 518.355469 346.359375 C 526.277344 350.683594 529.21875 360.625 524.882812 368.554688 C 520.558594 376.488281 510.617188 379.410156 502.6875 375.085938 C 494.753906 370.75 491.832031 360.820312 496.15625 352.886719 " fill-opacity="1" fill-rule="nonzero"/><path fill="#9bb5b3" d="M 521.011719 366.4375 C 524.15625 360.652344 522.015625 353.40625 516.242188 350.242188 C 510.453125 347.089844 503.195312 349.226562 500.039062 355 C 496.886719 360.792969 499.027344 368.058594 504.808594 371.203125 C 510.582031 374.355469 517.847656 372.226562 521.011719 366.4375 Z M 528.765625 370.667969 C 523.28125 380.730469 510.628906 384.457031 500.566406 378.96875 C 490.503906 373.480469 486.777344 360.835938 492.273438 350.777344 C 497.753906 340.714844 510.40625 336.988281 520.46875 342.476562 C 530.539062 347.964844 534.265625 360.617188 528.765625 370.667969 " fill-opacity="1" fill-rule="nonzero"/><path fill="#96232a" d="M 106.472656 462.132812 L 106.472656 690.816406 C 106.472656 713.125 124.566406 731.21875 146.875 731.21875 L 684.632812 731.21875 C 706.941406 731.21875 725.015625 713.125 725.015625 690.816406 L 725.015625 462.132812 L 106.472656 462.132812 " fill-opacity="1" fill-rule="nonzero"/><path fill="#a7a5a6" d="M 725.015625 611.433594 L 725.773438 611.433594 L 725.773438 596.671875 L 725.015625 596.671875 Z M 725.015625 611.433594 " fill-opacity="1" fill-rule="nonzero"/><path fill="#631519" d="M 106.472656 611.433594 L 725.015625 611.433594 L 725.015625 596.671875 L 106.472656 596.671875 Z M 106.472656 611.433594 " fill-opacity="1" fill-rule="nonzero"/></svg>