<svg xmlns="http://www.w3.org/2000/svg" xmlns:xlink="http://www.w3.org/1999/xlink" width="1024" zoomAndPan="magnify" viewBox="0 0 768 767.999994" height="1024" preserveAspectRatio="xMidYMid meet" version="1.0"><path fill="#f3d237" d="M 341.769531 744.671875 L 23.292969 426.195312 C 0 402.902344 0 365.097656 23.292969 341.738281 L 341.769531 23.328125 C 365.066406 0.0351562 402.867188 0.0351562 426.230469 23.328125 L 744.703125 341.804688 C 768 365.097656 768 402.902344 744.703125 426.261719 L 426.230469 744.738281 C 402.867188 767.964844 365.066406 767.964844 341.769531 744.671875 Z M 341.769531 744.671875 " fill-opacity="1" fill-rule="nonzero"/><path fill="#1d1d1b" d="M 383.964844 57.207031 C 386.230469 57.207031 388.292969 58.070312 389.890625 59.667969 L 708.363281 378.144531 C 709.960938 379.742188 710.828125 381.804688 710.828125 384.066406 C 710.828125 386.328125 709.960938 388.394531 708.363281 389.988281 L 389.890625 708.464844 C 388.292969 710.0625 386.230469 710.925781 383.964844 710.925781 C 381.703125 710.925781 379.640625 710.0625 378.042969 708.464844 L 59.570312 389.855469 C 57.972656 388.257812 57.105469 386.195312 57.105469 383.933594 C 57.105469 381.671875 57.972656 379.605469 59.570312 378.011719 L 378.042969 59.601562 C 379.640625 58.003906 381.703125 57.207031 383.964844 57.207031 Z M 383.964844 36.640625 C 376.246094 36.640625 368.992188 39.632812 363.535156 45.09375 L 45.058594 363.566406 C 39.601562 369.023438 36.605469 376.28125 36.605469 384 C 36.605469 391.71875 39.601562 398.976562 45.058594 404.433594 L 363.535156 722.90625 C 368.992188 728.367188 376.246094 731.359375 383.964844 731.359375 C 391.6875 731.359375 398.941406 728.367188 404.398438 722.90625 L 722.875 404.433594 C 728.332031 398.976562 731.328125 391.71875 731.328125 384 C 731.328125 376.28125 728.332031 369.023438 722.875 363.566406 L 404.398438 45.09375 C 398.941406 39.632812 391.6875 36.640625 383.964844 36.640625 Z M 383.964844 36.640625 " fill-opacity="1" fill-rule="nonzero"/><path fill="#1d1d1b" d="M 465.300781 575.417969 L 401.738281 515.25 L 427.429688 489.558594 C 436.214844 493.753906 447.0625 492.222656 454.316406 484.898438 C 459.773438 479.441406 461.972656 472.054688 461.039062 465 C 460.839844 463.601562 459.175781 463.070312 458.175781 464.066406 L 446.664062 475.582031 C 446.398438 475.847656 446.0625 475.980469 445.730469 475.980469 L 431.15625 475.914062 C 430.421875 475.914062 429.824219 475.316406 429.824219 474.582031 L 429.757812 460.007812 C 429.757812 459.675781 429.890625 459.34375 430.15625 459.074219 L 441.671875 447.5625 C 442.667969 446.5625 442.070312 444.898438 440.738281 444.699219 C 433.683594 443.769531 426.230469 445.964844 420.839844 451.421875 C 413.585938 458.675781 411.988281 469.527344 416.179688 478.3125 L 390.222656 504.269531 L 362.734375 478.113281 L 364.464844 476.382812 C 364.796875 476.046875 364.796875 475.515625 364.464844 475.183594 L 362.070312 472.785156 C 360.605469 471.324219 359.605469 469.460938 359.207031 467.460938 C 359.207031 467.394531 359.207031 467.328125 359.140625 467.261719 C 358.941406 466.265625 358.675781 464.667969 359.207031 462.804688 C 359.804688 460.539062 361.269531 459.007812 363.199219 457.414062 C 368.191406 453.285156 373.183594 451.222656 373.785156 450.957031 C 374.847656 450.558594 376.113281 450.089844 377.511719 449.625 C 380.503906 448.894531 383.566406 448.425781 386.628906 448.292969 L 391.554688 448.027344 L 400.605469 447.496094 C 400.9375 447.496094 401.269531 447.230469 401.40625 446.894531 L 402.667969 443.703125 C 402.867188 443.167969 402.601562 442.636719 402.070312 442.4375 L 398.277344 441.171875 L 394.75 439.972656 C 386.628906 437.246094 378.042969 436.511719 369.589844 437.777344 C 369.324219 437.84375 368.992188 437.84375 368.726562 437.910156 C 365.597656 438.445312 362.535156 439.242188 359.539062 440.308594 C 356.277344 441.503906 353.152344 442.96875 350.15625 444.699219 L 346.296875 446.960938 C 343.964844 448.292969 341.769531 449.824219 339.640625 451.488281 C 339.105469 451.886719 338.640625 452.289062 338.175781 452.6875 C 337.710938 453.085938 337.242188 453.550781 336.777344 454.019531 L 322.933594 467.863281 C 322.535156 468.261719 322.46875 468.925781 322.734375 469.390625 C 322.734375 469.390625 322.734375 469.457031 322.800781 469.457031 C 322.800781 469.457031 322.800781 469.527344 322.867188 469.527344 C 322.867188 469.527344 322.867188 469.59375 322.933594 469.59375 C 323 469.660156 323 469.726562 323.066406 469.792969 C 323.066406 469.792969 323.066406 469.859375 323.066406 469.859375 C 323.066406 469.859375 323.066406 469.925781 323.132812 469.925781 C 323.132812 469.925781 323.132812 469.992188 323.199219 469.992188 C 323.199219 469.992188 323.199219 470.058594 323.199219 470.058594 C 323.199219 470.058594 323.199219 470.058594 323.199219 470.125 C 323.199219 470.125 323.199219 470.191406 323.199219 470.191406 C 323.199219 470.191406 323.199219 470.257812 323.199219 470.257812 C 323.199219 470.257812 323.199219 470.324219 323.199219 470.324219 C 323.199219 470.324219 323.199219 470.324219 323.199219 470.390625 C 323.199219 470.390625 323.199219 470.457031 323.199219 470.457031 C 323.199219 470.457031 323.199219 470.523438 323.199219 470.523438 C 323.199219 470.523438 323.199219 470.523438 323.199219 470.589844 C 323.199219 470.65625 323.199219 470.65625 323.199219 470.722656 C 323.199219 470.789062 323.199219 470.789062 323.199219 470.855469 C 323.199219 470.855469 323.199219 470.855469 323.199219 470.921875 C 323.199219 470.921875 323.199219 470.988281 323.199219 470.988281 C 323.199219 470.988281 323.199219 471.054688 323.199219 471.054688 C 323.199219 471.121094 323.199219 471.121094 323.199219 471.1875 C 323.199219 471.253906 323.199219 471.253906 323.199219 471.324219 C 323.53125 473.917969 322.203125 477.246094 319.539062 479.90625 C 319.140625 480.308594 318.675781 480.707031 318.207031 481.105469 C 318.140625 481.171875 318.140625 481.171875 318.074219 481.238281 C 318.074219 481.238281 318.007812 481.304688 318.007812 481.304688 C 318.007812 481.304688 317.941406 481.371094 317.941406 481.371094 C 317.941406 481.371094 317.875 481.4375 317.875 481.4375 C 317.875 481.4375 317.808594 481.503906 317.808594 481.503906 C 317.808594 481.503906 317.808594 481.503906 317.742188 481.503906 C 317.742188 481.503906 317.675781 481.570312 317.675781 481.570312 C 317.675781 481.570312 317.609375 481.636719 317.609375 481.636719 C 317.542969 481.636719 317.542969 481.703125 317.476562 481.703125 C 317.410156 481.703125 317.410156 481.773438 317.34375 481.773438 C 317.277344 481.839844 317.210938 481.90625 317.078125 481.90625 C 317.011719 481.90625 317.011719 481.972656 316.945312 481.972656 C 316.878906 481.972656 316.878906 482.039062 316.8125 482.039062 C 316.8125 482.039062 316.746094 482.039062 316.746094 482.105469 C 316.675781 482.105469 316.675781 482.171875 316.609375 482.171875 C 316.476562 482.238281 316.34375 482.304688 316.210938 482.371094 C 316.144531 482.371094 316.078125 482.4375 316.011719 482.4375 C 316.011719 482.4375 316.011719 482.4375 315.945312 482.4375 C 315.878906 482.4375 315.878906 482.503906 315.8125 482.503906 C 315.8125 482.503906 315.746094 482.503906 315.746094 482.570312 C 315.679688 482.570312 315.679688 482.570312 315.613281 482.636719 C 315.613281 482.636719 315.546875 482.636719 315.546875 482.636719 C 315.480469 482.636719 315.480469 482.703125 315.414062 482.703125 C 315.414062 482.703125 315.347656 482.703125 315.347656 482.703125 C 315.28125 482.703125 315.214844 482.769531 315.214844 482.769531 C 315.148438 482.769531 315.082031 482.835938 315.015625 482.835938 C 314.945312 482.835938 314.878906 482.902344 314.8125 482.902344 C 314.746094 482.902344 314.679688 482.96875 314.679688 482.96875 C 314.613281 482.96875 314.546875 483.035156 314.546875 483.035156 C 314.480469 483.035156 314.480469 483.035156 314.414062 483.101562 C 314.414062 483.101562 314.347656 483.101562 314.347656 483.101562 C 314.28125 483.101562 314.214844 483.167969 314.082031 483.167969 C 314.082031 483.167969 314.015625 483.167969 314.015625 483.167969 C 313.949219 483.167969 313.949219 483.167969 313.882812 483.167969 C 313.882812 483.167969 313.816406 483.167969 313.816406 483.167969 C 313.75 483.167969 313.75 483.167969 313.683594 483.167969 C 313.683594 483.167969 313.617188 483.167969 313.617188 483.167969 C 313.617188 483.167969 313.550781 483.167969 313.550781 483.167969 C 313.550781 483.167969 313.484375 483.167969 313.484375 483.167969 C 313.484375 483.167969 313.484375 483.167969 313.417969 483.167969 C 313.351562 483.167969 313.351562 483.167969 313.28125 483.167969 C 313.214844 483.167969 313.148438 483.167969 313.082031 483.234375 C 313.015625 483.234375 313.015625 483.234375 312.949219 483.234375 C 312.882812 483.234375 312.882812 483.234375 312.816406 483.234375 C 312.816406 483.234375 312.816406 483.234375 312.75 483.234375 C 312.683594 483.234375 312.683594 483.234375 312.617188 483.234375 C 312.617188 483.234375 312.550781 483.234375 312.550781 483.234375 C 312.484375 483.234375 312.484375 483.234375 312.417969 483.234375 C 312.351562 483.234375 312.351562 483.234375 312.285156 483.234375 C 312.21875 483.234375 312.085938 483.234375 312.019531 483.234375 C 311.953125 483.234375 311.953125 483.234375 311.886719 483.234375 C 311.820312 483.234375 311.820312 483.234375 311.753906 483.234375 C 311.6875 483.234375 311.6875 483.234375 311.621094 483.234375 C 311.550781 483.234375 311.550781 483.234375 311.484375 483.234375 C 311.417969 483.234375 311.417969 483.234375 311.351562 483.234375 C 311.285156 483.234375 311.285156 483.234375 311.21875 483.234375 C 311.152344 483.234375 311.152344 483.234375 311.085938 483.234375 C 311.085938 483.234375 311.019531 483.234375 311.019531 483.234375 C 310.953125 483.234375 310.886719 483.234375 310.820312 483.234375 C 310.820312 483.234375 310.753906 483.234375 310.753906 483.234375 C 310.753906 483.234375 310.753906 483.234375 310.6875 483.234375 C 310.621094 483.234375 310.621094 483.234375 310.554688 483.234375 C 310.355469 483.167969 310.15625 483.167969 309.957031 483.101562 C 309.957031 483.101562 309.957031 483.101562 309.886719 483.101562 C 309.886719 483.101562 309.820312 483.101562 309.820312 483.101562 C 309.6875 483.035156 309.621094 483.035156 309.488281 482.96875 C 309.488281 482.96875 309.421875 482.96875 309.421875 482.96875 C 309.355469 482.96875 309.355469 482.902344 309.289062 482.902344 C 309.289062 482.902344 309.222656 482.902344 309.222656 482.902344 C 308.492188 482.503906 307.558594 482.636719 306.960938 483.234375 L 299.304688 491.753906 C 298.375 492.6875 298.375 494.285156 299.304688 495.214844 L 320.738281 516.648438 C 321.667969 517.578125 323.265625 517.578125 324.199219 516.648438 L 332.253906 508.59375 C 332.917969 507.929688 333.050781 506.863281 332.453125 506.132812 C 332.386719 506.066406 332.320312 506 332.320312 505.933594 C 332.320312 505.933594 332.253906 505.867188 332.253906 505.867188 C 332.183594 505.800781 332.117188 505.664062 332.050781 505.597656 C 331.984375 505.53125 331.917969 505.398438 331.917969 505.332031 C 331.851562 505.199219 331.785156 505.066406 331.71875 505 C 331.71875 504.933594 331.652344 504.933594 331.652344 504.867188 C 331.652344 504.867188 331.652344 504.800781 331.585938 504.800781 C 331.585938 504.800781 331.585938 504.734375 331.519531 504.734375 C 331.519531 504.734375 331.519531 504.667969 331.453125 504.667969 C 331.453125 504.667969 331.453125 504.601562 331.386719 504.601562 C 331.386719 504.601562 331.386719 504.535156 331.320312 504.535156 C 331.320312 504.535156 331.320312 504.46875 331.253906 504.46875 C 331.253906 504.402344 331.1875 504.335938 331.1875 504.269531 C 331.1875 504.203125 331.1875 504.203125 331.121094 504.136719 C 331.121094 504.136719 331.121094 504.070312 331.121094 504.070312 C 331.121094 504.070312 331.121094 504.003906 331.054688 504.003906 C 331.054688 504.003906 331.054688 503.9375 330.988281 503.9375 C 330.988281 503.9375 330.988281 503.867188 330.921875 503.800781 C 330.921875 503.800781 330.921875 503.734375 330.921875 503.734375 C 330.921875 503.667969 330.921875 503.667969 330.921875 503.601562 C 330.921875 503.46875 330.855469 503.402344 330.855469 503.269531 C 330.855469 503.203125 330.855469 503.203125 330.855469 503.136719 C 330.855469 503.070312 330.855469 503.070312 330.855469 503.003906 C 330.855469 502.871094 330.789062 502.804688 330.789062 502.671875 C 330.789062 502.605469 330.789062 502.605469 330.789062 502.539062 C 330.789062 502.472656 330.789062 502.40625 330.722656 502.339844 C 330.722656 502.273438 330.722656 502.273438 330.722656 502.207031 C 330.722656 502.136719 330.722656 502.136719 330.722656 502.070312 C 330.722656 501.871094 330.65625 501.738281 330.65625 501.539062 C 330.65625 501.472656 330.65625 501.472656 330.65625 501.40625 C 330.65625 501.339844 330.65625 501.273438 330.65625 501.207031 C 330.65625 501.140625 330.65625 501.074219 330.65625 501.074219 C 330.65625 501.074219 330.65625 501.007812 330.65625 501.007812 C 330.65625 501.007812 330.65625 500.941406 330.65625 500.941406 C 330.65625 500.875 330.65625 500.808594 330.65625 500.742188 C 330.65625 500.675781 330.65625 500.675781 330.65625 500.609375 C 330.65625 500.476562 330.65625 500.339844 330.65625 500.207031 C 330.65625 500.140625 330.65625 500.140625 330.65625 500.074219 C 330.65625 500.007812 330.65625 500.007812 330.65625 499.941406 C 330.65625 499.941406 330.65625 499.875 330.65625 499.875 C 330.65625 499.875 330.65625 499.875 330.65625 499.808594 C 330.65625 499.742188 330.65625 499.675781 330.65625 499.609375 C 330.65625 499.542969 330.65625 499.476562 330.65625 499.410156 C 330.65625 499.34375 330.65625 499.34375 330.65625 499.277344 C 330.65625 499.144531 330.722656 499.011719 330.722656 498.8125 C 330.722656 498.746094 330.722656 498.746094 330.722656 498.675781 C 330.789062 498.476562 330.789062 498.277344 330.855469 498.144531 C 330.855469 498.144531 330.855469 498.078125 330.855469 498.078125 C 330.921875 497.945312 330.921875 497.746094 330.988281 497.613281 C 330.988281 497.613281 330.988281 497.546875 330.988281 497.546875 C 331.054688 497.414062 331.054688 497.28125 331.121094 497.148438 C 331.121094 497.148438 331.121094 497.082031 331.121094 497.082031 C 331.121094 497.082031 331.121094 497.015625 331.121094 497.015625 C 331.121094 497.015625 331.121094 496.949219 331.121094 496.949219 C 331.121094 496.878906 331.121094 496.878906 331.1875 496.8125 C 331.1875 496.8125 331.1875 496.746094 331.253906 496.746094 C 331.253906 496.746094 331.253906 496.679688 331.320312 496.679688 C 331.320312 496.679688 331.320312 496.613281 331.386719 496.613281 C 331.386719 496.546875 331.453125 496.480469 331.453125 496.414062 C 331.453125 496.347656 331.519531 496.28125 331.519531 496.214844 C 331.519531 496.214844 331.519531 496.148438 331.585938 496.148438 C 331.652344 496.082031 331.652344 495.949219 331.71875 495.882812 C 331.71875 495.882812 331.71875 495.882812 331.71875 495.816406 C 331.785156 495.75 331.785156 495.683594 331.851562 495.550781 C 331.851562 495.550781 331.851562 495.484375 331.917969 495.484375 C 331.917969 495.484375 331.917969 495.417969 331.984375 495.417969 C 331.984375 495.351562 332.050781 495.351562 332.050781 495.285156 C 332.050781 495.285156 332.050781 495.21875 332.117188 495.21875 C 332.117188 495.21875 332.183594 495.148438 332.183594 495.148438 C 332.253906 495.082031 332.253906 495.015625 332.320312 495.015625 C 332.652344 494.550781 333.050781 494.085938 333.449219 493.6875 C 336.113281 491.023438 339.972656 490.226562 343.367188 491.355469 C 343.433594 491.355469 343.433594 491.355469 343.5 491.421875 C 343.5 491.421875 343.566406 491.421875 343.566406 491.421875 C 343.566406 491.421875 343.632812 491.421875 343.632812 491.488281 C 343.699219 491.488281 343.699219 491.488281 343.765625 491.554688 C 343.832031 491.554688 343.832031 491.554688 343.898438 491.621094 C 343.964844 491.6875 344.097656 491.6875 344.164062 491.757812 C 344.230469 491.757812 344.230469 491.824219 344.300781 491.824219 C 344.367188 491.824219 344.367188 491.890625 344.433594 491.890625 C 344.5 491.890625 344.5 491.957031 344.566406 491.957031 C 344.632812 491.957031 344.632812 492.023438 344.699219 492.023438 C 344.765625 492.023438 344.765625 492.089844 344.832031 492.089844 C 344.898438 492.15625 345.03125 492.15625 345.097656 492.222656 C 345.164062 492.222656 345.164062 492.289062 345.230469 492.289062 C 345.296875 492.289062 345.296875 492.355469 345.363281 492.355469 C 345.363281 492.355469 345.429688 492.421875 345.429688 492.421875 C 345.429688 492.421875 345.496094 492.488281 345.496094 492.488281 C 345.496094 492.488281 345.496094 492.488281 345.5625 492.488281 C 345.628906 492.488281 345.628906 492.554688 345.695312 492.554688 C 345.695312 492.554688 345.761719 492.554688 345.761719 492.621094 C 345.761719 492.621094 345.828125 492.6875 345.828125 492.6875 C 345.894531 492.6875 345.894531 492.753906 345.960938 492.753906 C 346.03125 492.753906 346.03125 492.820312 346.097656 492.820312 C 346.164062 492.820312 346.164062 492.886719 346.230469 492.886719 C 346.296875 492.953125 346.363281 493.019531 346.429688 493.085938 C 346.429688 493.085938 346.496094 493.152344 346.496094 493.152344 C 346.960938 493.550781 347.691406 493.484375 348.160156 493.085938 L 349.691406 491.554688 L 375.847656 519.042969 L 340.570312 553.984375 C 331.785156 549.792969 320.9375 551.324219 313.683594 558.644531 C 308.226562 564.101562 306.027344 571.492188 306.960938 578.546875 C 307.160156 579.945312 308.824219 580.476562 309.824219 579.476562 L 321.335938 567.964844 C 321.601562 567.695312 321.9375 567.5625 322.269531 567.5625 L 336.84375 567.628906 C 337.578125 567.628906 338.175781 568.230469 338.175781 568.960938 L 338.242188 583.539062 C 338.242188 583.871094 338.109375 584.203125 337.84375 584.46875 L 326.328125 595.984375 C 325.328125 596.980469 325.929688 598.644531 327.261719 598.84375 C 334.316406 599.777344 341.769531 597.582031 347.160156 592.125 C 354.414062 584.867188 356.011719 574.019531 351.820312 565.234375 L 386.695312 530.359375 L 446.863281 593.921875 C 451.921875 599.246094 460.375 599.378906 465.566406 594.1875 C 470.757812 588.929688 470.625 580.476562 465.300781 575.417969 Z M 465.300781 575.417969 " fill-opacity="1" fill-rule="nonzero"/><path fill="#000000" d="M 274.480469 251.949219 L 274.480469 302 C 274.480469 310.320312 271.886719 316.910156 266.695312 321.769531 C 261.503906 326.628906 254.378906 329.023438 245.328125 329.023438 C 236.476562 329.023438 229.421875 326.695312 224.164062 321.96875 C 218.972656 317.242188 216.308594 310.789062 216.175781 302.601562 L 216.175781 251.949219 L 231.816406 251.949219 L 231.816406 302.136719 C 231.816406 307.125 233.015625 310.722656 235.410156 313.050781 C 237.808594 315.3125 241.070312 316.445312 245.328125 316.445312 C 254.113281 316.445312 258.640625 311.785156 258.773438 302.535156 L 258.773438 251.949219 Z M 274.480469 251.949219 " fill-opacity="1" fill-rule="nonzero"/><path fill="#000000" d="M 349.15625 327.960938 L 333.515625 327.960938 L 303.035156 277.910156 L 303.035156 327.960938 L 287.324219 327.960938 L 287.324219 251.949219 L 302.96875 251.949219 L 333.515625 302.070312 L 333.515625 251.949219 L 349.15625 251.949219 Z M 349.15625 327.960938 " fill-opacity="1" fill-rule="nonzero"/><path fill="#000000" d="M 362.867188 327.960938 L 362.867188 251.949219 L 386.296875 251.949219 C 392.953125 251.949219 398.941406 253.480469 404.265625 256.476562 C 409.523438 259.472656 413.652344 263.796875 416.644531 269.324219 C 419.640625 274.847656 421.105469 281.167969 421.105469 288.222656 L 421.105469 291.753906 C 421.105469 298.808594 419.640625 305.128906 416.710938 310.585938 C 413.785156 316.113281 409.722656 320.371094 404.398438 323.367188 C 399.074219 326.363281 393.152344 327.960938 386.496094 327.960938 Z M 378.507812 264.597656 L 378.507812 315.378906 L 386.097656 315.378906 C 392.21875 315.378906 396.878906 313.382812 400.140625 309.390625 C 403.402344 305.394531 405 299.671875 405.132812 292.21875 L 405.132812 288.222656 C 405.132812 280.503906 403.535156 274.648438 400.339844 270.652344 C 397.144531 266.660156 392.484375 264.664062 386.296875 264.664062 L 378.507812 264.664062 Z M 378.507812 264.597656 " fill-opacity="1" fill-rule="nonzero"/><path fill="#000000" d="M 478.078125 295.011719 L 447.996094 295.011719 L 447.996094 315.378906 L 483.269531 315.378906 L 483.269531 327.960938 L 432.285156 327.960938 L 432.285156 251.949219 L 483.136719 251.949219 L 483.136719 264.664062 L 447.929688 264.664062 L 447.929688 282.765625 L 478.011719 282.765625 L 478.011719 295.011719 Z M 478.078125 295.011719 " fill-opacity="1" fill-rule="nonzero"/><path fill="#000000" d="M 520.675781 300.136719 L 508.160156 300.136719 L 508.160156 327.960938 L 492.519531 327.960938 L 492.519531 251.949219 L 520.808594 251.949219 C 529.792969 251.949219 536.714844 253.949219 541.574219 257.941406 C 546.433594 261.933594 548.894531 267.59375 548.894531 274.914062 C 548.894531 280.105469 547.761719 284.429688 545.5 287.890625 C 543.238281 291.351562 539.84375 294.148438 535.316406 296.144531 L 551.757812 327.226562 L 551.757812 327.960938 L 534.917969 327.960938 Z M 508.160156 287.425781 L 520.808594 287.425781 C 524.734375 287.425781 527.796875 286.425781 529.925781 284.429688 C 532.054688 282.433594 533.1875 279.640625 533.1875 276.179688 C 533.1875 272.582031 532.1875 269.789062 530.125 267.726562 C 528.0625 265.660156 524.933594 264.664062 520.742188 264.664062 L 508.160156 264.664062 Z M 508.160156 287.425781 " fill-opacity="1" fill-rule="nonzero"/><path fill="#000000" d="M 156.210938 392.652344 C 155.808594 398.242188 153.746094 402.570312 150.019531 405.765625 C 146.292969 408.957031 141.433594 410.554688 135.375 410.554688 C 128.722656 410.554688 123.53125 408.292969 119.734375 403.832031 C 115.941406 399.375 114.011719 393.25 114.011719 385.464844 L 114.011719 382.269531 C 114.011719 377.277344 114.878906 372.886719 116.609375 369.15625 C 118.339844 365.363281 120.867188 362.4375 124.128906 360.4375 C 127.390625 358.441406 131.183594 357.378906 135.511719 357.378906 C 141.5 357.378906 146.292969 358.976562 149.953125 362.167969 C 153.613281 365.363281 155.675781 369.824219 156.277344 375.613281 L 145.625 375.613281 C 145.359375 372.285156 144.429688 369.824219 142.832031 368.359375 C 141.234375 366.828125 138.769531 366.097656 135.511719 366.097656 C 131.980469 366.097656 129.320312 367.359375 127.523438 369.890625 C 125.726562 372.417969 124.859375 376.414062 124.792969 381.738281 L 124.792969 385.664062 C 124.792969 391.253906 125.660156 395.316406 127.324219 397.910156 C 128.988281 400.507812 131.714844 401.769531 135.308594 401.769531 C 138.570312 401.769531 141.035156 401.039062 142.699219 399.507812 C 144.296875 397.976562 145.226562 395.648438 145.492188 392.519531 L 156.210938 392.519531 Z M 156.210938 392.652344 " fill-opacity="1" fill-rule="nonzero"/><path fill="#000000" d="M 205.660156 385.199219 C 205.660156 390.324219 204.730469 394.78125 202.933594 398.574219 C 201.136719 402.371094 198.539062 405.363281 195.210938 407.429688 C 191.882812 409.492188 188.023438 410.554688 183.695312 410.554688 C 179.4375 410.554688 175.578125 409.558594 172.25 407.496094 C 168.855469 405.429688 166.257812 402.503906 164.460938 398.640625 C 162.597656 394.847656 161.667969 390.390625 161.667969 385.464844 L 161.667969 382.933594 C 161.667969 377.808594 162.597656 373.351562 164.394531 369.492188 C 166.257812 365.628906 168.855469 362.636719 172.183594 360.570312 C 175.511719 358.507812 179.371094 357.445312 183.695312 357.445312 C 188.023438 357.445312 191.816406 358.507812 195.210938 360.570312 C 198.539062 362.636719 201.136719 365.628906 203 369.492188 C 204.863281 373.351562 205.726562 377.808594 205.726562 382.867188 L 205.726562 385.199219 Z M 194.878906 382.800781 C 194.878906 377.410156 193.878906 373.285156 191.949219 370.421875 C 190.019531 367.628906 187.222656 366.164062 183.628906 366.164062 C 180.035156 366.164062 177.308594 367.558594 175.378906 370.355469 C 173.449219 373.152344 172.449219 377.210938 172.449219 382.601562 L 172.449219 385.132812 C 172.449219 390.390625 173.449219 394.515625 175.378906 397.445312 C 177.308594 400.371094 180.101562 401.835938 183.761719 401.835938 C 187.359375 401.835938 190.085938 400.441406 192.015625 397.644531 C 193.945312 394.847656 194.878906 390.722656 194.945312 385.398438 L 194.945312 382.800781 Z M 194.878906 382.800781 " fill-opacity="1" fill-rule="nonzero"/><path fill="#000000" d="M 255.445312 409.824219 L 244.796875 409.824219 L 224.097656 375.8125 L 224.097656 409.824219 L 213.449219 409.824219 L 213.449219 358.109375 L 224.097656 358.109375 L 244.863281 392.1875 L 244.863281 358.109375 L 255.511719 358.109375 L 255.511719 409.824219 Z M 255.445312 409.824219 " fill-opacity="1" fill-rule="nonzero"/><path fill="#000000" d="M 291.585938 396.3125 C 291.585938 394.316406 290.855469 392.785156 289.457031 391.652344 C 288.058594 390.589844 285.460938 389.457031 281.800781 388.257812 C 278.140625 387.0625 275.210938 385.863281 273.015625 384.730469 C 267.160156 381.539062 264.230469 377.277344 264.230469 371.886719 C 264.230469 369.089844 265.03125 366.628906 266.558594 364.433594 C 268.15625 362.234375 270.421875 360.503906 273.347656 359.308594 C 276.277344 358.042969 279.605469 357.445312 283.265625 357.445312 C 286.992188 357.445312 290.253906 358.109375 293.117188 359.441406 C 295.976562 360.773438 298.242188 362.636719 299.839844 365.097656 C 301.4375 367.558594 302.234375 370.289062 302.234375 373.417969 L 291.585938 373.417969 C 291.585938 371.019531 290.855469 369.222656 289.324219 367.894531 C 287.792969 366.5625 285.730469 365.898438 283.066406 365.898438 C 280.472656 365.898438 278.40625 366.429688 277.007812 367.558594 C 275.546875 368.691406 274.8125 370.089844 274.8125 371.886719 C 274.8125 373.550781 275.679688 374.949219 277.34375 376.144531 C 279.007812 377.277344 281.535156 378.34375 284.796875 379.339844 C 290.855469 381.136719 295.246094 383.402344 298.042969 386.128906 C 300.835938 388.859375 302.167969 392.1875 302.167969 396.246094 C 302.167969 400.707031 300.503906 404.234375 297.109375 406.761719 C 293.714844 409.292969 289.191406 410.554688 283.464844 410.554688 C 279.472656 410.554688 275.878906 409.824219 272.617188 408.359375 C 269.355469 406.894531 266.828125 404.898438 265.164062 402.371094 C 263.433594 399.839844 262.566406 396.910156 262.566406 393.585938 L 273.28125 393.585938 C 273.28125 399.308594 276.675781 402.171875 283.53125 402.171875 C 286.0625 402.171875 288.058594 401.636719 289.457031 400.640625 C 290.921875 399.574219 291.585938 398.109375 291.585938 396.3125 Z M 291.585938 396.3125 " fill-opacity="1" fill-rule="nonzero"/><path fill="#000000" d="M 348.425781 366.761719 L 332.585938 366.761719 L 332.585938 409.824219 L 321.9375 409.824219 L 321.9375 366.761719 L 306.292969 366.761719 L 306.292969 358.109375 L 348.425781 358.109375 Z M 348.425781 366.761719 " fill-opacity="1" fill-rule="nonzero"/><path fill="#000000" d="M 373.648438 390.921875 L 365.199219 390.921875 L 365.199219 409.824219 L 354.546875 409.824219 L 354.546875 358.109375 L 373.785156 358.109375 C 379.90625 358.109375 384.632812 359.441406 387.894531 362.167969 C 391.15625 364.898438 392.886719 368.757812 392.886719 373.683594 C 392.886719 377.210938 392.152344 380.140625 390.621094 382.535156 C 389.089844 384.863281 386.761719 386.796875 383.699219 388.191406 L 394.882812 409.359375 L 394.882812 409.824219 L 383.433594 409.824219 Z M 365.199219 382.269531 L 373.785156 382.269531 C 376.445312 382.269531 378.507812 381.605469 379.972656 380.207031 C 381.4375 378.808594 382.167969 376.945312 382.167969 374.550781 C 382.167969 372.085938 381.503906 370.222656 380.105469 368.824219 C 378.707031 367.425781 376.578125 366.761719 373.71875 366.761719 L 365.199219 366.761719 Z M 365.199219 382.269531 " fill-opacity="1" fill-rule="nonzero"/><path fill="#000000" d="M 440.074219 358.109375 L 440.074219 392.1875 C 440.074219 397.84375 438.277344 402.304688 434.75 405.632812 C 431.222656 408.890625 426.363281 410.554688 420.238281 410.554688 C 414.183594 410.554688 409.390625 408.957031 405.863281 405.765625 C 402.335938 402.570312 400.472656 398.175781 400.40625 392.585938 L 400.40625 358.109375 L 411.054688 358.109375 L 411.054688 392.253906 C 411.054688 395.648438 411.855469 398.109375 413.519531 399.640625 C 415.117188 401.171875 417.378906 401.96875 420.238281 401.96875 C 426.230469 401.96875 429.292969 398.84375 429.359375 392.519531 L 429.359375 358.109375 Z M 440.074219 358.109375 " fill-opacity="1" fill-rule="nonzero"/><path fill="#000000" d="M 489.460938 392.652344 C 489.058594 398.242188 486.996094 402.570312 483.269531 405.765625 C 479.542969 408.957031 474.683594 410.554688 468.628906 410.554688 C 461.972656 410.554688 456.78125 408.292969 452.984375 403.832031 C 449.191406 399.375 447.261719 393.25 447.261719 385.464844 L 447.261719 382.269531 C 447.261719 377.277344 448.128906 372.886719 449.859375 369.15625 C 451.589844 365.363281 454.117188 362.4375 457.378906 360.4375 C 460.640625 358.441406 464.433594 357.378906 468.761719 357.378906 C 474.75 357.378906 479.542969 358.976562 483.203125 362.167969 C 486.863281 365.363281 488.925781 369.824219 489.527344 375.613281 L 478.875 375.613281 C 478.609375 372.285156 477.679688 369.824219 476.082031 368.359375 C 474.484375 366.828125 472.023438 366.097656 468.761719 366.097656 C 465.234375 366.097656 462.570312 367.359375 460.773438 369.890625 C 458.976562 372.417969 458.109375 376.414062 458.042969 381.738281 L 458.042969 385.664062 C 458.042969 391.253906 458.910156 395.316406 460.574219 397.910156 C 462.238281 400.507812 464.964844 401.769531 468.558594 401.769531 C 471.820312 401.769531 474.285156 401.039062 475.949219 399.507812 C 477.546875 397.976562 478.476562 395.648438 478.742188 392.519531 L 489.460938 392.519531 Z M 489.460938 392.652344 " fill-opacity="1" fill-rule="nonzero"/><path fill="#000000" d="M 534.320312 366.761719 L 518.476562 366.761719 L 518.476562 409.824219 L 507.828125 409.824219 L 507.828125 366.761719 L 492.1875 366.761719 L 492.1875 358.109375 L 534.320312 358.109375 Z M 534.320312 366.761719 " fill-opacity="1" fill-rule="nonzero"/><path fill="#000000" d="M 541.109375 358.109375 L 551.757812 358.109375 L 551.757812 409.824219 L 541.109375 409.824219 Z M 541.109375 358.109375 " fill-opacity="1" fill-rule="nonzero"/><path fill="#000000" d="M 604.070312 385.199219 C 604.070312 390.324219 603.136719 394.78125 601.339844 398.574219 C 599.542969 402.371094 596.949219 405.363281 593.621094 407.429688 C 590.292969 409.492188 586.433594 410.554688 582.105469 410.554688 C 577.847656 410.554688 573.988281 409.558594 570.660156 407.496094 C 567.265625 405.429688 564.667969 402.503906 562.871094 398.640625 C 561.074219 394.78125 560.078125 390.390625 560.078125 385.464844 L 560.078125 382.933594 C 560.078125 377.808594 561.007812 373.351562 562.804688 369.492188 C 564.601562 365.628906 567.265625 362.636719 570.59375 360.570312 C 573.921875 358.507812 577.78125 357.445312 582.105469 357.445312 C 586.433594 357.445312 590.226562 358.507812 593.621094 360.570312 C 596.949219 362.636719 599.542969 365.628906 601.40625 369.492188 C 603.273438 373.351562 604.136719 377.808594 604.136719 382.867188 L 604.136719 385.199219 Z M 593.289062 382.800781 C 593.289062 377.410156 592.289062 373.285156 590.359375 370.421875 C 588.429688 367.558594 585.632812 366.164062 582.039062 366.164062 C 578.445312 366.164062 575.71875 367.558594 573.785156 370.355469 C 571.855469 373.152344 570.859375 377.210938 570.859375 382.601562 L 570.859375 385.132812 C 570.859375 390.390625 571.855469 394.515625 573.785156 397.445312 C 575.71875 400.371094 578.511719 401.835938 582.171875 401.835938 C 585.765625 401.835938 588.496094 400.441406 590.425781 397.644531 C 592.355469 394.847656 593.289062 390.722656 593.355469 385.398438 L 593.355469 382.800781 Z M 593.289062 382.800781 " fill-opacity="1" fill-rule="nonzero"/><path fill="#000000" d="M 653.921875 409.824219 L 643.273438 409.824219 L 622.507812 375.8125 L 622.507812 409.824219 L 611.859375 409.824219 L 611.859375 358.109375 L 622.507812 358.109375 L 643.273438 392.1875 L 643.273438 358.109375 L 653.921875 358.109375 Z M 653.921875 409.824219 " fill-opacity="1" fill-rule="nonzero"/></svg>