<svg xmlns="http://www.w3.org/2000/svg" version="1.1" xmlns:xlink="http://www.w3.org/1999/xlink" xmlns:svgjs="http://svgjs.dev/svgjs" width="1000" height="1000"><style>
    #light-icon {
      display: inline;
    }
    #dark-icon {
      display: none;
    }

    @media (prefers-color-scheme: dark) {
      #light-icon {
        display: none;
      }
      #dark-icon {
        display: inline;
      }
    }
  </style><g id="light-icon"><svg xmlns="http://www.w3.org/2000/svg" version="1.1" xmlns:xlink="http://www.w3.org/1999/xlink" xmlns:svgjs="http://svgjs.dev/svgjs" width="1000" height="1000"><g clip-path="url(#SvgjsClipPath1086)"><rect width="1000" height="1000" fill="#ffffff"></rect><g transform="matrix(1.3939224979091163,0,0,1.3939224979091163,209.5762475606356,100)"><svg xmlns="http://www.w3.org/2000/svg" version="1.1" xmlns:xlink="http://www.w3.org/1999/xlink" xmlns:svgjs="http://svgjs.dev/svgjs" width="416.7" height="573.92"><svg xmlns="http://www.w3.org/2000/svg" viewBox="0 0 416.7 573.92">
  <defs>
    <style>
      .cls-1, .cls-2, .cls-3, .cls-4 {
        fill: #708090;
      }

      .cls-1, .cls-4, .cls-5 {
        opacity: .25;
      }

      .cls-6 {
        font-family: FiraSans-UltraLight, 'Fira Sans';
        font-size: 64.73px;
        font-weight: 100;
      }

      .cls-6, .cls-7 {
        fill: #231f20;
      }

      .cls-8 {
        fill: #d8ecd2;
      }

      .cls-8, .cls-9, .cls-7 {
        stroke: #231f20;
        stroke-miterlimit: 10;
      }

      .cls-10, .cls-9 {
        fill: #fff;
      }

      .cls-3 {
        opacity: .5;
      }

      .cls-4, .cls-5, .cls-11 {
        mix-blend-mode: multiply;
      }

      .cls-12, .cls-5, .cls-11 {
        fill: #51b848;
      }

      .cls-13 {
        isolation: isolate;
      }

      .cls-14 {
        fill: #606161;
      }
    </style>
  <clipPath id="SvgjsClipPath1086"><rect width="1000" height="1000" x="0" y="0" rx="500" ry="500"></rect></clipPath></defs>
  <g class="cls-13">
    <g id="Layer_2">
      <g id="Layer_1-2" data-name="Layer_1">
        <g>
          <path class="cls-3" d="M59.37,247.12s28.49-73.48,152.96-73.48,145.46,73.48,145.46,73.48c0,0-35.99,276.67-149.21,276.67S59.37,247.12,59.37,247.12Z"></path>
          <path class="cls-12" d="M71.96,255.9s26.03-67.13,139.73-67.13,132.88,67.13,132.88,67.13c0,0-32.88,252.75-136.31,252.75S71.96,255.9,71.96,255.9Z"></path>
          <rect class="cls-2" x="122.72" y="370.78" width="175.91" height="40.65" rx="12" ry="12"></rect>
          <rect class="cls-7" x="134.07" y="385.56" width="154.49" height="11.1"></rect>
          <path class="cls-9" d="M141.61,391.11s18.22,15.57,18.22,29.95v14.38h138.8s6.95-44.56-17.98-44.33-139.04,0-139.04,0Z"></path>
          <rect class="cls-8" x="120.93" y="242.7" width="175.91" height="106.02" rx="12" ry="12"></rect>
          <text class="cls-6" transform="translate(135.51 317.39)" svgjs:data="{&quot;leading&quot;:&quot;1.3&quot;}"><tspan x="0" y="0">100%</tspan></text>
          <path class="cls-1" d="M357.78,246.46s-20.98-73.63-145.47-73.63c-1.26,0-2.5,0-3.74.05v350.91h.02c113.2,0,149.19-277.33,149.19-277.33Z"></path>
          <g>
            <path class="cls-3" d="M310.31,130.67s-14.48,34.69-100.31,34.69c-70.82,0-96.58-23.63-103.41-31.89-1.46-1.74-2.05-2.81-2.05-2.81,0,0,4.39-23.13,15.31-49.95C134.86,43.84,162.21,0,207.43,0c78.06,0,102.88,130.67,102.88,130.67Z"></path>
            <path class="cls-12" d="M300.17,125.94s-13.05,31.28-90.42,31.28c-63.84,0-87.06-21.31-93.22-28.75-1.31-1.57-1.85-2.53-1.85-2.53,0,0,3.96-20.85,13.8-45.03,13.53-33.25,38.19-72.77,78.95-72.77,70.37,0,92.74,117.8,92.74,117.8Z"></path>
            <path class="cls-11" d="M119.85,80.72c-10.92,26.82-15.31,49.95-15.31,49.95,0,0,.6,1.06,2.05,2.81-5.44-.84-9.64-5.41-9.64-10.9v-49.74c0-6.07,5.15-11.03,11.45-11.03,3.14,0,6,1.24,8.08,3.24,2.08,1.99,3.37,4.76,3.37,7.79v7.88Z"></path>
            <path class="cls-11" d="M295.97,80.79c10.92,26.82,15.31,49.95,15.31,49.95,0,0-.6,1.06-2.05,2.81,5.44-.84,9.64-5.41,9.64-10.9v-49.74c0-6.07-5.15-11.03-11.45-11.03-3.14,0-6,1.24-8.08,3.24-2.08,1.99-3.37,4.76-3.37,7.79v7.88Z"></path>
            <g>
              <path class="cls-10" d="M187.6,127.77h42.55s-3.27,16.42-21.27,16.42-21.27-16.42-21.27-16.42Z"></path>
              <ellipse class="cls-10" cx="182.97" cy="97.72" rx="11.55" ry="15.03"></ellipse>
              <ellipse class="cls-10" cx="234.77" cy="97.72" rx="11.55" ry="15.03"></ellipse>
              <ellipse class="cls-14" cx="184.53" cy="97.65" rx="8.54" ry="11.11"></ellipse>
              <ellipse class="cls-14" cx="233.35" cy="97.72" rx="8.54" ry="11.11"></ellipse>
              <ellipse class="cls-10" cx="181.82" cy="92.56" rx="2" ry="1.93"></ellipse>
              <ellipse class="cls-10" cx="236.36" cy="92.56" rx="2" ry="1.93"></ellipse>
            </g>
            <path class="cls-1" d="M310.31,130.04s-14.4,34.53-99.82,34.53c-.86,0-1.71,0-2.57-.02V0h.01c77.68,0,102.37,130.04,102.37,130.04Z"></path>
          </g>
          <g>
            <ellipse class="cls-3" cx="208.27" cy="564.81" rx="77.88" ry="9.11"></ellipse>
            <path class="cls-1" d="M286.45,564.81c0,5.04-34.87,9.12-77.88,9.12v-18.22c43.01,0,77.88,4.08,77.88,9.11Z"></path>
          </g>
          <g>
            <ellipse class="cls-3" cx="29.83" cy="343.76" rx="95.65" ry="26.46" transform="translate(-314.52 321.76) rotate(-81.38)"></ellipse>
            <path class="cls-12" d="M58.51,326.69s-12.15,81.66-37.09,81.66-15.5-81.66-15.5-81.66c0,0-6.97,61.53,14.23,61.84,21.19.31,38.36-61.84,38.36-61.84Z"></path>
            <g>
              <path class="cls-4" d="M15,438.21c.08.02.14.03.22.04,14.44,2.19,32.57-38.38,40.49-90.61.69-4.54,1.28-9.03,1.77-13.43.12-1.02.23-2.04.32-3.04,4.52-44.25-.91-79.35-13.51-81.99l-22.02,142.11-3.09,19.87-4.19,27.05Z"></path>
              <path class="cls-5" d="M19.79,408.17c.62.12,1.26.18,1.94.18,21.21,0,33.09-60.05,36.05-77.19.44-2.55.69-4.15.73-4.47-.04.16-.18.65-.41,1.43-2.62,9.01-17.24,56.44-35.25,60.17l-3.06,19.89Z"></path>
            </g>
          </g>
          <g>
            <ellipse class="cls-3" cx="386.86" cy="343.76" rx="26.46" ry="95.65" transform="translate(-47.13 61.83) rotate(-8.62)"></ellipse>
            <path class="cls-12" d="M358.19,326.69s12.15,81.66,37.09,81.66,15.5-81.66,15.5-81.66c0,0,6.97,61.53-14.23,61.84-21.19.31-38.36-61.84-38.36-61.84Z"></path>
            <g>
              <path class="cls-4" d="M401.7,438.21c-.08.02-.14.03-.22.04-14.44,2.19-32.57-38.38-40.49-90.61-.69-4.54-1.28-9.03-1.77-13.43-.12-1.02-.23-2.04-.32-3.04-4.52-44.25.91-79.35,13.51-81.99l22.02,142.11,3.09,19.87,4.19,27.05Z"></path>
              <path class="cls-5" d="M396.91,408.17c-.62.12-1.26.18-1.94.18-21.21,0-33.09-60.05-36.05-77.19-.44-2.55-.69-4.15-.73-4.47.04.16.18.65.41,1.43,2.62,9.01,17.24,56.44,35.25,60.17l3.06,19.89Z"></path>
            </g>
          </g>
        </g>
      </g>
    </g>
  </g>
</svg></svg></g></g></svg></g><g id="dark-icon"><svg xmlns="http://www.w3.org/2000/svg" version="1.1" xmlns:xlink="http://www.w3.org/1999/xlink" xmlns:svgjs="http://svgjs.dev/svgjs" width="1000" height="1000"><g clip-path="url(#SvgjsClipPath1087)"><rect width="1000" height="1000" fill="#ffffff"></rect><g transform="matrix(1.3939224979091163,0,0,1.3939224979091163,209.5762475606356,100)"><svg xmlns="http://www.w3.org/2000/svg" version="1.1" xmlns:xlink="http://www.w3.org/1999/xlink" xmlns:svgjs="http://svgjs.dev/svgjs" width="416.7" height="573.92"><svg xmlns="http://www.w3.org/2000/svg" viewBox="0 0 416.7 573.92">
  <defs>
    <style>
      .cls-1, .cls-2, .cls-3, .cls-4 {
        fill: #708090;
      }

      .cls-1, .cls-4, .cls-5 {
        opacity: .25;
      }

      .cls-6 {
        font-family: FiraSans-UltraLight, 'Fira Sans';
        font-size: 64.73px;
        font-weight: 100;
      }

      .cls-6, .cls-7 {
        fill: #231f20;
      }

      .cls-8 {
        fill: #d8ecd2;
      }

      .cls-8, .cls-9, .cls-7 {
        stroke: #231f20;
        stroke-miterlimit: 10;
      }

      .cls-10, .cls-9 {
        fill: #fff;
      }

      .cls-3 {
        opacity: .5;
      }

      .cls-4, .cls-5, .cls-11 {
        mix-blend-mode: multiply;
      }

      .cls-12, .cls-5, .cls-11 {
        fill: #51b848;
      }

      .cls-13 {
        isolation: isolate;
      }

      .cls-14 {
        fill: #606161;
      }
    </style>
  <clipPath id="SvgjsClipPath1087"><rect width="1000" height="1000" x="0" y="0" rx="500" ry="500"></rect></clipPath></defs>
  <g class="cls-13">
    <g id="Layer_2">
      <g id="Layer_1-2" data-name="Layer_1">
        <g>
          <path class="cls-3" d="M59.37,247.12s28.49-73.48,152.96-73.48,145.46,73.48,145.46,73.48c0,0-35.99,276.67-149.21,276.67S59.37,247.12,59.37,247.12Z"></path>
          <path class="cls-12" d="M71.96,255.9s26.03-67.13,139.73-67.13,132.88,67.13,132.88,67.13c0,0-32.88,252.75-136.31,252.75S71.96,255.9,71.96,255.9Z"></path>
          <rect class="cls-2" x="122.72" y="370.78" width="175.91" height="40.65" rx="12" ry="12"></rect>
          <rect class="cls-7" x="134.07" y="385.56" width="154.49" height="11.1"></rect>
          <path class="cls-9" d="M141.61,391.11s18.22,15.57,18.22,29.95v14.38h138.8s6.95-44.56-17.98-44.33-139.04,0-139.04,0Z"></path>
          <rect class="cls-8" x="120.93" y="242.7" width="175.91" height="106.02" rx="12" ry="12"></rect>
          <text class="cls-6" transform="translate(135.51 317.39)" svgjs:data="{&quot;leading&quot;:&quot;1.3&quot;}"><tspan x="0" y="0">100%</tspan></text>
          <path class="cls-1" d="M357.78,246.46s-20.98-73.63-145.47-73.63c-1.26,0-2.5,0-3.74.05v350.91h.02c113.2,0,149.19-277.33,149.19-277.33Z"></path>
          <g>
            <path class="cls-3" d="M310.31,130.67s-14.48,34.69-100.31,34.69c-70.82,0-96.58-23.63-103.41-31.89-1.46-1.74-2.05-2.81-2.05-2.81,0,0,4.39-23.13,15.31-49.95C134.86,43.84,162.21,0,207.43,0c78.06,0,102.88,130.67,102.88,130.67Z"></path>
            <path class="cls-12" d="M300.17,125.94s-13.05,31.28-90.42,31.28c-63.84,0-87.06-21.31-93.22-28.75-1.31-1.57-1.85-2.53-1.85-2.53,0,0,3.96-20.85,13.8-45.03,13.53-33.25,38.19-72.77,78.95-72.77,70.37,0,92.74,117.8,92.74,117.8Z"></path>
            <path class="cls-11" d="M119.85,80.72c-10.92,26.82-15.31,49.95-15.31,49.95,0,0,.6,1.06,2.05,2.81-5.44-.84-9.64-5.41-9.64-10.9v-49.74c0-6.07,5.15-11.03,11.45-11.03,3.14,0,6,1.24,8.08,3.24,2.08,1.99,3.37,4.76,3.37,7.79v7.88Z"></path>
            <path class="cls-11" d="M295.97,80.79c10.92,26.82,15.31,49.95,15.31,49.95,0,0-.6,1.06-2.05,2.81,5.44-.84,9.64-5.41,9.64-10.9v-49.74c0-6.07-5.15-11.03-11.45-11.03-3.14,0-6,1.24-8.08,3.24-2.08,1.99-3.37,4.76-3.37,7.79v7.88Z"></path>
            <g>
              <path class="cls-10" d="M187.6,127.77h42.55s-3.27,16.42-21.27,16.42-21.27-16.42-21.27-16.42Z"></path>
              <ellipse class="cls-10" cx="182.97" cy="97.72" rx="11.55" ry="15.03"></ellipse>
              <ellipse class="cls-10" cx="234.77" cy="97.72" rx="11.55" ry="15.03"></ellipse>
              <ellipse class="cls-14" cx="184.53" cy="97.65" rx="8.54" ry="11.11"></ellipse>
              <ellipse class="cls-14" cx="233.35" cy="97.72" rx="8.54" ry="11.11"></ellipse>
              <ellipse class="cls-10" cx="181.82" cy="92.56" rx="2" ry="1.93"></ellipse>
              <ellipse class="cls-10" cx="236.36" cy="92.56" rx="2" ry="1.93"></ellipse>
            </g>
            <path class="cls-1" d="M310.31,130.04s-14.4,34.53-99.82,34.53c-.86,0-1.71,0-2.57-.02V0h.01c77.68,0,102.37,130.04,102.37,130.04Z"></path>
          </g>
          <g>
            <ellipse class="cls-3" cx="208.27" cy="564.81" rx="77.88" ry="9.11"></ellipse>
            <path class="cls-1" d="M286.45,564.81c0,5.04-34.87,9.12-77.88,9.12v-18.22c43.01,0,77.88,4.08,77.88,9.11Z"></path>
          </g>
          <g>
            <ellipse class="cls-3" cx="29.83" cy="343.76" rx="95.65" ry="26.46" transform="translate(-314.52 321.76) rotate(-81.38)"></ellipse>
            <path class="cls-12" d="M58.51,326.69s-12.15,81.66-37.09,81.66-15.5-81.66-15.5-81.66c0,0-6.97,61.53,14.23,61.84,21.19.31,38.36-61.84,38.36-61.84Z"></path>
            <g>
              <path class="cls-4" d="M15,438.21c.08.02.14.03.22.04,14.44,2.19,32.57-38.38,40.49-90.61.69-4.54,1.28-9.03,1.77-13.43.12-1.02.23-2.04.32-3.04,4.52-44.25-.91-79.35-13.51-81.99l-22.02,142.11-3.09,19.87-4.19,27.05Z"></path>
              <path class="cls-5" d="M19.79,408.17c.62.12,1.26.18,1.94.18,21.21,0,33.09-60.05,36.05-77.19.44-2.55.69-4.15.73-4.47-.04.16-.18.65-.41,1.43-2.62,9.01-17.24,56.44-35.25,60.17l-3.06,19.89Z"></path>
            </g>
          </g>
          <g>
            <ellipse class="cls-3" cx="386.86" cy="343.76" rx="26.46" ry="95.65" transform="translate(-47.13 61.83) rotate(-8.62)"></ellipse>
            <path class="cls-12" d="M358.19,326.69s12.15,81.66,37.09,81.66,15.5-81.66,15.5-81.66c0,0,6.97,61.53-14.23,61.84-21.19.31-38.36-61.84-38.36-61.84Z"></path>
            <g>
              <path class="cls-4" d="M401.7,438.21c-.08.02-.14.03-.22.04-14.44,2.19-32.57-38.38-40.49-90.61-.69-4.54-1.28-9.03-1.77-13.43-.12-1.02-.23-2.04-.32-3.04-4.52-44.25.91-79.35,13.51-81.99l22.02,142.11,3.09,19.87,4.19,27.05Z"></path>
              <path class="cls-5" d="M396.91,408.17c-.62.12-1.26.18-1.94.18-21.21,0-33.09-60.05-36.05-77.19-.44-2.55-.69-4.15-.73-4.47.04.16.18.65.41,1.43,2.62,9.01,17.24,56.44,35.25,60.17l3.06,19.89Z"></path>
            </g>
          </g>
        </g>
      </g>
    </g>
  </g>
</svg></svg></g></g></svg></g></svg>